<svg id="Layer_1" data-name="Layer 1" xmlns="http://www.w3.org/2000/svg" xmlns:xlink="http://www.w3.org/1999/xlink" viewBox="0 0 541.38 336.76"><defs><style>.cls-1,.cls-10,.cls-11{fill:#fff200;}.cls-2,.cls-4,.cls-7,.cls-9{fill:#231f20;}.cls-10,.cls-2,.cls-3,.cls-4,.cls-5,.cls-7,.cls-9{stroke:#231f20;}.cls-2{stroke-width:3.19px;}.cls-3{fill:#008dd2;stroke-width:3.11px;}.cls-4{stroke-width:7.3px;}.cls-5{stroke-width:9.55px;}.cls-5,.cls-6{fill:url(#linear-gradient);}.cls-11,.cls-6{stroke:#ed1c24;}.cls-6{stroke-width:3.93px;}.cls-7{stroke-width:4.86px;}.cls-8{fill:#ed1c24;}.cls-10,.cls-9{stroke-width:4.81px;}.cls-11{stroke-width:0.8px;}</style><linearGradient id="linear-gradient" x1="391.22" y1="210.3" x2="377.83" y2="57.31" gradientUnits="userSpaceOnUse"><stop offset="0" stop-color="#ed1c24"/><stop offset="0.05" stop-color="#ef391f"/><stop offset="0.12" stop-color="#f36418"/><stop offset="0.21" stop-color="#f68b11"/><stop offset="0.29" stop-color="#f9ab0c"/><stop offset="0.39" stop-color="#fbc508"/><stop offset="0.49" stop-color="#fdd904"/><stop offset="0.61" stop-color="#fee702"/><stop offset="0.76" stop-color="#ffef00"/><stop offset="1" stop-color="#fff200"/></linearGradient></defs><polyline class="cls-1" points="202.65 194.5 88.53 204.27 202.18 190.1 87.68 192.69 201.99 185.67 87.56 181.07 202.09 181.25 88.16 169.47 202.46 176.84 89.5 157.92 203.11 172.45 91.55 146.49 204.03 168.12 94.33 135.2 205.22 163.85 97.8 124.11 206.68 159.67 101.97 113.26 208.39 155.59 106.8 102.7 210.36 151.62 112.29 92.45 212.57 147.78 118.41 82.58 215.02 144.1 125.14 73.11 217.7 140.57 132.46 64.07 220.6 137.22 140.32 55.52 223.69 134.05 148.71 47.48 226.98 131.09 157.59 39.97 230.45 128.34 166.91 33.05 234.09 125.81 176.66 26.72 237.88 123.52 186.78 21.01 241.8 121.47 197.25 15.95 245.85 119.66 208 11.56 250 118.12 219.02 7.86 254.24 116.83 230.24 4.85 258.55 115.83 241.63 2.55 262.92 115.09 253.15 0.97 267.32 114.62 264.73 0.12 271.75 114.44 276.35 0 276.17 114.53 287.95 0.61 280.58 114.9 299.5 1.94 284.96 115.55 310.94 4 289.3 116.47 322.23 6.77 293.57 117.66 333.31 10.24 297.75 119.12 344.16 14.41 301.83 120.83 354.72 19.25 305.8 122.8 364.97 24.73 309.64 125.01 374.84 30.86 313.32 127.47 384.32 37.59 316.85 130.14 393.35 44.9 320.2 133.04 401.9 52.77 323.37 136.14 409.94 61.16 326.33 139.43 417.45 70.03 329.08 142.9 424.38 79.36 331.61 146.53 430.7 89.11 333.9 150.33 436.41 99.23 335.95 154.25 441.46 109.69 337.76 158.29 445.86 120.45 339.3 162.44 449.56 131.46 340.58 166.68 452.57 142.69 341.59 171 454.87 154.08 342.33 175.36 456.44 165.59 342.8 179.76 457.3 177.18 342.99 184.19 457.42 188.79 342.89 188.62 456.81 200.4 342.51 193.03"/><path class="cls-2" d="M206.8,245.81c-11.19-7.38-17.27-15.43-17.1-23.81.74-34.2,105.4-61.09,233.77-60.07s231.84,29.56,231.11,63.75c-.63,29.53-78.79,53.62-182.79,59H472s-25.23.8-26.2,14.81a7.84,7.84,0,0,0,.63,3.47l1.49,2.68a12.77,12.77,0,0,1,1.17,5.53c-.52,24.46-75.4,43.7-167.23,43S116,333,116.55,308.51c.34-15.9,32.1-29.59,79.51-37l.39-.11c10.76-1.75,18.7-7.44,18.85-14.26.07-3.51-2-6.77-5.39-9.35Z" transform="translate(-114.95 -33.61)"/><path class="cls-3" d="M209.72,243.54c-10.87-7.19-16.79-15-16.62-23.2.71-33.3,102.45-59.5,227.24-58.51s225.37,28.8,224.66,62.1c-.62,28.77-76.59,52.23-177.69,57.45h.23s-24.53.78-25.47,14.43a8,8,0,0,0,.61,3.38l1.46,2.6a12.75,12.75,0,0,1,1.14,5.39C444.77,331,372,349.75,282.71,349S121.48,328.44,122,304.61c.33-15.48,31.2-28.82,77.29-36.06l.38-.11c10.45-1.7,18.18-7.25,18.32-13.88.07-3.43-1.89-6.6-5.24-9.12Z" transform="translate(-114.95 -33.61)"/><path class="cls-4" d="M297.45,89q.89-10-6.27-14.75t-23.5-3.62a103.54,103.54,0,0,0-28.92,7.25A169.14,169.14,0,0,0,210.5,92.21a213.66,213.66,0,0,0-28.84,21.13q-13.28,11.58-19.87,21.26-16.56,26.53,29,36.8,16.89,3.85,28.25,7.21a124.5,124.5,0,0,1,15.52,5.32q6.88,3.3,7.29,8.9T231.13,206q-11.41,7.58-28.72,11.71t-30.32-2.51q-5.07-2.49-13.58-7.45a46.39,46.39,0,0,0-16.3-6.12,38.75,38.75,0,0,0-15.57.7q-7.26,1.91,4.68,3.68a48.81,48.81,0,0,1,19.23,8.92A127.79,127.79,0,0,0,168,226.14q16.1,7.68,43.48,3.25t46.42-21.87q12.56-14,3.64-22.81t-44.88-17.53q-19.22-4.35-28.44-8.56-9.48-5.82-4.58-15.62,4.65-9.6,15-20.69a209.58,209.58,0,0,1,22.67-20.89q26-20.2,41.74-23.11,10.91-2.24,16.1.76,4.55,3.39.54,10.72a229,229,0,0,1-19.79,31q-11.52,15.28-12.28,22.1-.25,7.11,8.33,11.12,8.31,4.37,9.73-1.47a138.75,138.75,0,0,1,9-19.57q4.71-8.28,13.45-22T297.45,89Zm118,44.15q-4-5.19-9.49-3.9-2.21.44-14.89,12.49-4.94,4.75-10.43,10.45T369.93,164a1.3,1.3,0,0,1-1.23.49c-.39-.12-.46-.44-.2-1q1.29-2.92,2.65-5.86T373.8,152c1.2-2.43,2.36-4.74,3.49-6.91s2.19-4.09,3.23-5.77q2.19-3.76-2.68-7.77t-6.3-1.59q-3.5,5.67-8.66,14.37-4.12,7-8.07,14-3.39,3.94-7.85,9.25Q335.32,181.4,331,184.48q-3.24,2.39-3.25-.34.51-7.56,4.63-18.83a64.07,64.07,0,0,1,6.46-14.37c2.15-3.25,1.72-6.36-1.32-9.34s-5.8-2.48-8.3,1.48a63.29,63.29,0,0,0-4.07,7c-1.51,2.94-2.78,5.23-3.82,6.85-1.47,2.22-3.23,4.92-5.3,8.07s-4.36,6.44-6.86,9.83a111.22,111.22,0,0,1-8.28,9.94,105.76,105.76,0,0,1-8,7.87q-5.19,4.26-6.43-.12c-.82-2.92-.64-7.09.56-12.48a97.47,97.47,0,0,1,5.54-16.86,80.73,80.73,0,0,1,7.24-14.17q3.1-5-2.22-8.11-5.59-3-8.43,2.73-4.14,6.75-6.66,11.09t-5.5,9.63a113.53,113.53,0,0,0-5.49,11.38,80.7,80.7,0,0,0-3.29,9.93,16.31,16.31,0,0,0,2.24,13q4,6.34,13.9,7.17c1.39.17,3.11-.65,5.19-2.47a107.68,107.68,0,0,0,7.77-7.81q3.36-3.85,6.66-7.59l5.25-5.93c.77-.92,1.29-1.32,1.55-1.19s.22.79-.12,2q-1.67,9.63,2,15.57,3.64,7,12.2.3,7.95-6.37,18.48-18.77c-2,4.28-3.09,7.46-3.32,9.51q-.76,4.43,5.21,7.78,5.6,3.48,7.53.85.39-.54,2.33-4.29.65-1.5,1.35-3.36a23.21,23.21,0,0,1,2-3.92,82.7,82.7,0,0,1,9.7-12.7Q374.35,167,381,160.19q10.88-11.13,20.72-19.7c1-.76,1.56-1.09,1.82-1s.3.6-.13,1.38q-9.18,14.76-14,24.54-8.4,17.52-5.4,25.31c.36,1.22,1.7,2.68,4,4.37a58.63,58.63,0,0,0,7,4.39,21.42,21.42,0,0,0,4.8,1.92q1.56.3,1.16-4.79a47.28,47.28,0,0,1,.68-14.46A100.3,100.3,0,0,1,406,166.8a187,187,0,0,1,12.27-26.45Q419.45,138.37,415.42,133.19Zm96.42-4.49q5.06-.4,10.62-7.18a7.4,7.4,0,0,0,1.75-5q-.21-2.34-4-2.8c-4.84-.35-8.35,2-10.49,7.17Q506.65,129.13,511.84,128.7Zm140.69-.15c-.7-1-1.64-.84-2.85.4q-4.53,5.4-10.81,11.89t-12.5,11.78a141.86,141.86,0,0,1-17,12.82q-12.45,6.74-18.7.14-3.12-3.08-2.61-9.19c0-.91.73-1.48,2.2-1.71q10.89-2.09,23-10.49a81.71,81.71,0,0,0,20.2-20.43,38.07,38.07,0,0,0,4.91-10.39q1.15-9.5-11.58-9.58-17.12.1-35.64,17.91a103.93,103.93,0,0,0-14.5,17.8,53.15,53.15,0,0,0-5.66,11,92,92,0,0,0-12.23,1,1.83,1.83,0,0,1-1.69-.81,72.32,72.32,0,0,1-4.55-5.7,31.64,31.64,0,0,1-3.39-6q-2-4.38,1.92-11.53c1.73-3.38,5-6.94,9.91-10.67a115.32,115.32,0,0,1,15.61-10c2.43-1.16,3.59-2.11,3.5-2.84q-.64-1.57-5.45-.93a69.92,69.92,0,0,0-40.44,22.66q-6.64,8-.2,15.72l-8.06,8.15q-7.11,7.2-11,11.19t-7.45,7.61c-2.38,2.35-4.21,4.1-5.51,5.23q-2.58,2.34-2.33-.93a39.41,39.41,0,0,1,1.79-9.07,113.72,113.72,0,0,1,4.91-13.17q3.22-7.44,4.38-9.59,3-5.28-.47-8.08c-2.3-1.86-4.17-1.8-5.64.2q-1.68,2.35-5.37,7.74c-1.5,2.2-2.94,4.47-4.34,6.79q-5.16,5.77-10.67,12-9.39,10.59-15.87,15.47-3.24,1.89-3.06-2.79t2.9-12.67a120.87,120.87,0,0,1,6.71-16.22,67.68,67.68,0,0,1,9.7-14.67c1.3-1.53.34-2.35-2.85-2.46a87.42,87.42,0,0,0-11,.42c-2.94.29-5.78.64-8.5,1s-4.69.63-5.9.73-1.39-.6-.78-2.07q1.15-2.92,5.49-8.65a64.49,64.49,0,0,1,5.63-6.87c1.9-1.92.92-3.84-2.93-5.79s-6.3-1.7-7.33.72a106.13,106.13,0,0,1-6.33,12q-5.7,9.18-11.77,18.21T426.36,154q-3.62,5.59-7.37,11.58t-7.5,12.35a11.8,11.8,0,0,0-1.67,7.91,19.71,19.71,0,0,0,1.7,6.62q1.56,3.28,3.12.6.39-1,4.39-8.77t9.7-17.58q5.56-9.84,11-18.45a96.73,96.73,0,0,1,9.51-12.95,6.67,6.67,0,0,1,3.76-1.93c1.82-.14,3.53-.31,5.13-.49s3.22-.35,4.87-.48q3.88-.31,1.56,2.35a94,94,0,0,0-14.36,22.06q-5.16,11.31-6.18,20.45T447,190.38q4,4,14.41-1.46a49.07,49.07,0,0,0,9.71-7.41,129,129,0,0,0,9.71-10.31l5.86-7.14c-.08.2-.16.42-.23.62A25.22,25.22,0,0,0,485,175.57a14.34,14.34,0,0,0,5.08,9.76q4.16,3.67,7.27,1.54a42.38,42.38,0,0,0,7.58-6.59q2-2.15,4.12-4.46a.56.56,0,0,0,0,.12q-1.8,6,6.12,8.9,5.83,1.93,14.21.91a45.85,45.85,0,0,0,15.89-5q9.08-4.74,13.34-11.2T560.31,157c-.17-.5.09-.89.78-1.18,1.55-.4,3.85-.83,6.87-1.28l1.84-.27a32.23,32.23,0,0,0-.91,5.2q-1.27,11.13,3.47,16.13t12.79,5q17.26.24,36.05-16.15,10.75-9.75,17.35-17t11.53-13.19Q653.31,130.28,652.53,128.55Zm-63.29,18.86A51.89,51.89,0,0,1,594,136.34,60.93,60.93,0,0,1,605,122a80.05,80.05,0,0,1,12.5-10.24q5.84-3.63,9.4-3.62c2.38,0,3.06,1.74,2,5.18a29.46,29.46,0,0,1-5.49,8.82,120.75,120.75,0,0,1-9.52,10.08q-12,11-20.86,16Q588.07,151.1,589.24,147.41Zm-64,9.78q7.51-8.38,10.49-12c.27-.36.52-.71.75-1l4.64,4.92a30,30,0,0,1,3.32,4c.34.6.13,1-.65,1.25q-14.93,3.76-24,9.63c-.53.34-1,.68-1.53,1Q521.35,161.58,525.27,157.19Zm17.29,10.91a46.55,46.55,0,0,1-9.85,6.86,49.47,49.47,0,0,1-10.57,3.93q-5,1.17-6.69-.4-1.56-3,4.27-7.27a57.89,57.89,0,0,1,13.81-7.35A92,92,0,0,1,545.26,160c1.13-.26,1.69-.05,1.69.63C546.87,163,545.4,165.48,542.56,168.1Z" transform="translate(-114.95 -33.61)"/><path class="cls-5" d="M296.23,85.42q.88-10-6.26-14.75t-23.51-3.62a103.19,103.19,0,0,0-28.92,7.25,168.35,168.35,0,0,0-28.26,14.28,214.65,214.65,0,0,0-28.83,21.13Q167.16,121.29,160.57,131q-16.55,26.55,29,36.8,16.88,3.85,28.24,7.21a125.15,125.15,0,0,1,15.52,5.33q6.88,3.28,7.29,8.9t-10.74,13.17Q218.5,210,201.19,214.1t-30.32-2.51q-5.06-2.51-13.58-7.45A46.13,46.13,0,0,0,141,198a38.57,38.57,0,0,0-15.57.7q-7.26,1.91,4.68,3.68a48.61,48.61,0,0,1,19.23,8.92,128.76,128.76,0,0,0,17.42,11.2q16.11,7.66,43.48,3.24t46.42-21.86q12.56-14,3.65-22.81t-44.89-17.54Q196.2,159.21,187,155q-9.48-5.82-4.57-15.62,4.65-9.6,15-20.69A208.57,208.57,0,0,1,220.07,97.8q26-20.22,41.74-23.11,10.9-2.25,16.1.75,4.54,3.41.54,10.73a228.92,228.92,0,0,1-19.79,31q-11.52,15.28-12.28,22.1-.24,7.13,8.33,11.12,8.31,4.38,9.73-1.46a138.23,138.23,0,0,1,9-19.57q4.71-8.28,13.45-22T296.23,85.42Zm118,44.14q-4-5.18-9.49-3.89-2.2.43-14.89,12.48-4.92,4.75-10.43,10.46t-10.68,11.75a1.25,1.25,0,0,1-1.23.49c-.39-.11-.46-.43-.2-1q1.29-2.92,2.65-5.85c.9-2,1.78-3.85,2.65-5.69,1.2-2.43,2.37-4.73,3.49-6.9s2.19-4.09,3.23-5.77q2.19-3.76-2.68-7.78t-6.3-1.58q-3.49,5.66-8.66,14.37-4.12,6.94-8.07,14-3.39,4-7.85,9.26-11.64,13.84-15.92,16.92-3.24,2.4-3.25-.34.51-7.55,4.63-18.83a64.52,64.52,0,0,1,6.46-14.37c2.16-3.24,1.72-6.36-1.32-9.33s-5.8-2.48-8.3,1.48a64.91,64.91,0,0,0-4.07,7q-2.27,4.41-3.82,6.84l-5.3,8.08q-3.11,4.74-6.86,9.83a112.65,112.65,0,0,1-8.28,9.94,105.4,105.4,0,0,1-8,7.86c-3.45,2.85-5.6,2.81-6.42-.12s-.65-7.08.55-12.48a97.63,97.63,0,0,1,5.55-16.85,81,81,0,0,1,7.23-14.18q3.11-4.93-2.22-8.11c-3.73-2-6.54-1.06-8.43,2.73q-4.14,6.75-6.66,11.1c-1.68,2.89-3.52,6.11-5.5,9.63a114.69,114.69,0,0,0-5.49,11.38,79.38,79.38,0,0,0-3.28,9.92,16.29,16.29,0,0,0,2.23,13q4,6.34,13.9,7.17c1.39.18,3.12-.65,5.19-2.47a107.19,107.19,0,0,0,7.77-7.8q3.36-3.87,6.66-7.59c2.21-2.49,3.95-4.47,5.25-5.94.78-.91,1.29-1.31,1.55-1.19s.22.79-.12,2q-1.67,9.62,2,15.56,3.65,7,12.2.3,8-6.36,18.48-18.76-3,6.42-3.31,9.5-.78,4.43,5.2,7.79,5.6,3.48,7.53.84.39-.54,2.33-4.29c.43-1,.88-2.12,1.36-3.35a22.05,22.05,0,0,1,2-3.92,82.7,82.7,0,0,1,9.71-12.71q6.21-6.87,12.81-13.64,10.88-11.13,20.73-19.7c1-.76,1.55-1.1,1.81-1s.3.61-.13,1.38q-9.18,14.76-14,24.55-8.4,17.51-5.39,25.3c.34,1.23,1.69,2.69,4,4.38a59.93,59.93,0,0,0,7,4.39,21.42,21.42,0,0,0,4.8,1.92q1.56.3,1.16-4.8a46.91,46.91,0,0,1,.69-14.45,98.81,98.81,0,0,1,4.31-15.35,186.55,186.55,0,0,1,12.27-26.46Q418.23,134.76,414.2,129.56Zm96.42-4.49c3.38-.27,6.91-2.66,10.63-7.18a7.42,7.42,0,0,0,1.74-5c-.13-1.55-1.46-2.48-4-2.79q-7.26-.54-10.49,7.17Q505.42,125.49,510.62,125.07Zm140.69-.15c-.69-1-1.65-.83-2.85.4q-4.53,5.42-10.81,11.9T625.15,149a142.27,142.27,0,0,1-17,12.82q-12.43,6.72-18.68.14-3.13-3.08-2.62-9.19c0-.91.73-1.49,2.2-1.72Q600,149,612,140.57a81.71,81.71,0,0,0,20.2-20.43,38.13,38.13,0,0,0,4.91-10.4q1.14-9.49-11.57-9.58-17.14.11-35.65,17.92a103.84,103.84,0,0,0-14.5,17.79,53.7,53.7,0,0,0-5.66,11,91.42,91.42,0,0,0-12.22,1,1.79,1.79,0,0,1-1.69-.8,70.24,70.24,0,0,1-4.56-5.7,31.41,31.41,0,0,1-3.39-6q-1.95-4.36,1.93-11.52,2.58-5.09,9.9-10.67a114,114,0,0,1,15.61-10q3.63-1.74,3.5-2.85-.65-1.56-5.45-.93a66.35,66.35,0,0,0-11.28,3q-17.91,6.32-29.16,19.7-6.63,8-.2,15.72L524.68,146q-7.11,7.2-11,11.18t-7.45,7.61c-2.37,2.36-4.21,4.1-5.5,5.23q-2.6,2.35-2.34-.92a40,40,0,0,1,1.79-9.08,117.54,117.54,0,0,1,4.91-13.17q3.23-7.44,4.39-9.58,3-5.29-.48-8.08t-5.64.2q-1.68,2.35-5.37,7.74c-1.5,2.19-2.94,4.46-4.33,6.79q-5.18,5.77-10.68,12-9.39,10.59-15.86,15.47-3.25,1.88-3.06-2.79T467,155.86a120.87,120.87,0,0,1,6.71-16.22A67.66,67.66,0,0,1,483.37,125c1.29-1.52.34-2.34-2.87-2.45a85.33,85.33,0,0,0-11,.41q-4.41.45-8.5,1c-2.72.39-4.69.64-5.9.73s-1.39-.6-.78-2.07a43.38,43.38,0,0,1,5.49-8.65,62.82,62.82,0,0,1,5.63-6.86q2.85-2.88-2.93-5.79t-7.33.72a105.31,105.31,0,0,1-6.33,12q-5.7,9.18-11.77,18.22t-11.91,18.13q-3.61,5.59-7.37,11.58t-7.5,12.36a11.8,11.8,0,0,0-1.67,7.91,19.62,19.62,0,0,0,1.71,6.61q1.56,3.3,3.11.61.39-1.07,4.39-8.78t9.7-17.57q5.57-9.85,11.06-18.46a94.79,94.79,0,0,1,9.51-12.94,6.54,6.54,0,0,1,3.76-1.93c1.81-.15,3.52-.31,5.12-.5s3.23-.34,4.87-.48q3.89-.31,1.56,2.36a94.13,94.13,0,0,0-14.36,22q-5.16,11.31-6.18,20.45t2.88,13.15q4,4,14.41-1.46a48.88,48.88,0,0,0,9.71-7.41,134.51,134.51,0,0,0,9.72-10.31l5.85-7.15c-.07.21-.15.42-.22.62a25.09,25.09,0,0,0-1.47,10.89,14.34,14.34,0,0,0,5.08,9.76q4.15,3.69,7.28,1.55a42.37,42.37,0,0,0,7.57-6.59c1.36-1.44,2.73-2.92,4.12-4.47l0,.12q-1.8,6,6.12,8.91,5.85,1.92,14.21.9a45.62,45.62,0,0,0,15.89-5Q553,172.42,557.3,166t1.79-12.58c-.17-.5.09-.9.78-1.18a66.3,66.3,0,0,1,6.87-1.28l1.84-.27a33.17,33.17,0,0,0-.91,5.2Q566.4,167,571.14,172t12.8,5q17.26.24,36-16.15,10.74-9.76,17.35-17t11.52-13.19C651,128,651.83,126.08,651.31,124.92ZM588,143.79a51.45,51.45,0,0,1,4.78-11.07,60.68,60.68,0,0,1,10.93-14.3,79,79,0,0,1,12.5-10.24q5.84-3.63,9.4-3.62c2.38,0,3.06,1.73,2,5.18a29.94,29.94,0,0,1-5.5,8.82,122.25,122.25,0,0,1-9.51,10.08q-12.06,11-20.87,16Q586.86,147.47,588,143.79Zm-64,9.77q7.5-8.38,10.48-11.95c.27-.37.53-.71.75-1.05l4.64,4.93a28.82,28.82,0,0,1,3.32,4c.35.59.13,1-.64,1.24q-14.93,3.78-24,9.63c-.54.34-1,.69-1.54,1Q520.13,157.95,524.06,153.56Zm17.28,10.92a46.3,46.3,0,0,1-9.85,6.86,49.81,49.81,0,0,1-10.57,3.93q-5,1.17-6.68-.41-1.57-2.94,4.26-7.26a57.29,57.29,0,0,1,13.8-7.35,92.48,92.48,0,0,1,11.75-3.86c1.12-.26,1.68,0,1.69.64Q545.61,160.54,541.34,164.48Z" transform="translate(-114.95 -33.61)"/><path class="cls-6" d="M296.23,85.42q.88-10-6.26-14.75t-23.51-3.62a103.19,103.19,0,0,0-28.92,7.25,168.35,168.35,0,0,0-28.26,14.28,214.65,214.65,0,0,0-28.83,21.13Q167.16,121.29,160.57,131q-16.55,26.55,29,36.8,16.88,3.85,28.24,7.21a125.15,125.15,0,0,1,15.52,5.33q6.88,3.28,7.29,8.9t-10.74,13.17Q218.5,210,201.19,214.1t-30.32-2.51q-5.06-2.51-13.58-7.45A46.13,46.13,0,0,0,141,198a38.57,38.57,0,0,0-15.57.7q-7.26,1.91,4.68,3.68a48.61,48.61,0,0,1,19.23,8.92,128.76,128.76,0,0,0,17.42,11.2q16.11,7.66,43.48,3.24t46.42-21.86q12.56-14,3.65-22.81t-44.89-17.54Q196.2,159.21,187,155q-9.48-5.82-4.57-15.62,4.65-9.6,15-20.69A208.57,208.57,0,0,1,220.07,97.8q26-20.22,41.74-23.11,10.9-2.25,16.1.75,4.54,3.41.54,10.73a228.92,228.92,0,0,1-19.79,31q-11.52,15.28-12.28,22.1-.24,7.13,8.33,11.12,8.31,4.38,9.73-1.46a138.23,138.23,0,0,1,9-19.57q4.71-8.28,13.45-22T296.23,85.42Zm118,44.14q-4-5.18-9.49-3.89-2.2.43-14.89,12.48-4.92,4.75-10.43,10.46t-10.68,11.75a1.25,1.25,0,0,1-1.23.49c-.39-.11-.46-.43-.2-1q1.29-2.92,2.65-5.85c.9-2,1.78-3.85,2.65-5.69,1.2-2.43,2.37-4.73,3.49-6.9s2.19-4.09,3.23-5.77q2.19-3.76-2.68-7.78t-6.3-1.58q-3.49,5.66-8.66,14.37-4.12,6.94-8.07,14-3.39,4-7.85,9.26-11.64,13.84-15.92,16.92-3.24,2.4-3.25-.34.51-7.55,4.63-18.83a64.52,64.52,0,0,1,6.46-14.37c2.16-3.24,1.72-6.36-1.32-9.33s-5.8-2.48-8.3,1.48a64.91,64.91,0,0,0-4.07,7q-2.27,4.41-3.82,6.84l-5.3,8.08q-3.11,4.74-6.86,9.83a112.65,112.65,0,0,1-8.28,9.94,105.4,105.4,0,0,1-8,7.86c-3.45,2.85-5.6,2.81-6.42-.12s-.65-7.08.55-12.48a97.63,97.63,0,0,1,5.55-16.85,81,81,0,0,1,7.23-14.18q3.11-4.93-2.22-8.11c-3.73-2-6.54-1.06-8.43,2.73q-4.14,6.75-6.66,11.1c-1.68,2.89-3.52,6.11-5.5,9.63a114.69,114.69,0,0,0-5.49,11.38,79.38,79.38,0,0,0-3.28,9.92,16.29,16.29,0,0,0,2.23,13q4,6.34,13.9,7.17c1.39.18,3.12-.65,5.19-2.47a107.19,107.19,0,0,0,7.77-7.8q3.36-3.87,6.66-7.59c2.21-2.49,3.95-4.47,5.25-5.94.78-.91,1.29-1.31,1.55-1.19s.22.79-.12,2q-1.67,9.62,2,15.56,3.65,7,12.2.3,8-6.36,18.48-18.76-3,6.42-3.31,9.5-.78,4.43,5.2,7.79,5.6,3.48,7.53.84.39-.54,2.33-4.29c.43-1,.88-2.12,1.36-3.35a22.05,22.05,0,0,1,2-3.92,82.7,82.7,0,0,1,9.71-12.71q6.21-6.87,12.81-13.64,10.88-11.13,20.73-19.7c1-.76,1.55-1.1,1.81-1s.3.61-.13,1.38q-9.18,14.76-14,24.55-8.4,17.51-5.39,25.3c.34,1.23,1.69,2.69,4,4.38a59.93,59.93,0,0,0,7,4.39,21.42,21.42,0,0,0,4.8,1.92q1.56.3,1.16-4.8a46.91,46.91,0,0,1,.69-14.45,98.81,98.81,0,0,1,4.31-15.35,186.55,186.55,0,0,1,12.27-26.46Q418.23,134.76,414.2,129.56Zm96.42-4.49c3.38-.27,6.91-2.66,10.63-7.18a7.42,7.42,0,0,0,1.74-5c-.13-1.55-1.46-2.48-4-2.79q-7.26-.54-10.49,7.17Q505.42,125.49,510.62,125.07Zm140.69-.15c-.69-1-1.65-.83-2.85.4q-4.53,5.42-10.81,11.9T625.15,149a142.27,142.27,0,0,1-17,12.82q-12.43,6.72-18.68.14-3.13-3.08-2.62-9.19c0-.91.73-1.49,2.2-1.72Q600,149,612,140.57a81.71,81.71,0,0,0,20.2-20.43,38.13,38.13,0,0,0,4.91-10.4q1.14-9.49-11.57-9.58-17.14.11-35.65,17.92a103.84,103.84,0,0,0-14.5,17.79,53.7,53.7,0,0,0-5.66,11,91.42,91.42,0,0,0-12.22,1,1.79,1.79,0,0,1-1.69-.8,70.24,70.24,0,0,1-4.56-5.7,31.41,31.41,0,0,1-3.39-6q-1.95-4.36,1.93-11.52,2.58-5.09,9.9-10.67a114,114,0,0,1,15.61-10q3.63-1.74,3.5-2.85-.65-1.56-5.45-.93a66.35,66.35,0,0,0-11.28,3q-17.91,6.32-29.16,19.7-6.63,8-.2,15.72L524.68,146q-7.11,7.2-11,11.18t-7.45,7.61c-2.37,2.36-4.21,4.1-5.5,5.23q-2.6,2.35-2.34-.92a40,40,0,0,1,1.79-9.08,117.54,117.54,0,0,1,4.91-13.17q3.23-7.44,4.39-9.58,3-5.29-.48-8.08t-5.64.2q-1.68,2.35-5.37,7.74c-1.5,2.19-2.94,4.46-4.33,6.79q-5.18,5.77-10.68,12-9.39,10.59-15.86,15.47-3.25,1.88-3.06-2.79T467,155.86a120.87,120.87,0,0,1,6.71-16.22A67.66,67.66,0,0,1,483.37,125c1.29-1.52.34-2.34-2.87-2.45a85.33,85.33,0,0,0-11,.41q-4.41.45-8.5,1c-2.72.39-4.69.64-5.9.73s-1.39-.6-.78-2.07a43.38,43.38,0,0,1,5.49-8.65,62.82,62.82,0,0,1,5.63-6.86q2.85-2.88-2.93-5.79t-7.33.72a105.31,105.31,0,0,1-6.33,12q-5.7,9.18-11.77,18.22t-11.91,18.13q-3.61,5.59-7.37,11.58t-7.5,12.36a11.8,11.8,0,0,0-1.67,7.91,19.62,19.62,0,0,0,1.71,6.61q1.56,3.3,3.11.61.39-1.07,4.39-8.78t9.7-17.57q5.57-9.85,11.06-18.46a94.79,94.79,0,0,1,9.51-12.94,6.54,6.54,0,0,1,3.76-1.93c1.81-.15,3.52-.31,5.12-.5s3.23-.34,4.87-.48q3.89-.31,1.56,2.36a94.13,94.13,0,0,0-14.36,22q-5.16,11.31-6.18,20.45t2.88,13.15q4,4,14.41-1.46a48.88,48.88,0,0,0,9.71-7.41,134.51,134.51,0,0,0,9.72-10.31l5.85-7.15c-.07.21-.15.42-.22.62a25.09,25.09,0,0,0-1.47,10.89,14.34,14.34,0,0,0,5.08,9.76q4.15,3.69,7.28,1.55a42.37,42.37,0,0,0,7.57-6.59c1.36-1.44,2.73-2.92,4.12-4.47l0,.12q-1.8,6,6.12,8.91,5.85,1.92,14.21.9a45.62,45.62,0,0,0,15.89-5Q553,172.42,557.3,166t1.79-12.58c-.17-.5.09-.9.78-1.18a66.3,66.3,0,0,1,6.87-1.28l1.84-.27a33.17,33.17,0,0,0-.91,5.2Q566.4,167,571.14,172t12.8,5q17.26.24,36-16.15,10.74-9.76,17.35-17t11.52-13.19C651,128,651.83,126.08,651.31,124.92ZM588,143.79a51.45,51.45,0,0,1,4.78-11.07,60.68,60.68,0,0,1,10.93-14.3,79,79,0,0,1,12.5-10.24q5.84-3.63,9.4-3.62c2.38,0,3.06,1.73,2,5.18a29.94,29.94,0,0,1-5.5,8.82,122.25,122.25,0,0,1-9.51,10.08q-12.06,11-20.87,16Q586.86,147.47,588,143.79Zm-64,9.77q7.5-8.38,10.48-11.95c.27-.37.53-.71.75-1.05l4.64,4.93a28.82,28.82,0,0,1,3.32,4c.35.59.13,1-.64,1.24q-14.93,3.78-24,9.63c-.54.34-1,.69-1.54,1Q520.13,157.95,524.06,153.56Zm17.28,10.92a46.3,46.3,0,0,1-9.85,6.86,49.81,49.81,0,0,1-10.57,3.93q-5,1.17-6.68-.41-1.57-2.94,4.26-7.26a57.29,57.29,0,0,1,13.8-7.35,92.48,92.48,0,0,1,11.75-3.86c1.12-.26,1.68,0,1.69.64Q545.61,160.54,541.34,164.48Z" transform="translate(-114.95 -33.61)"/><path class="cls-1" d="M296.23,85.42q.88-10-6.26-14.75t-23.51-3.62a103.19,103.19,0,0,0-28.92,7.25,168.35,168.35,0,0,0-28.26,14.28,214.65,214.65,0,0,0-28.83,21.13Q167.16,121.29,160.57,131q-16.55,26.55,29,36.8,16.88,3.85,28.24,7.21a125.15,125.15,0,0,1,15.52,5.33q6.88,3.28,7.29,8.9t-10.74,13.17Q218.5,210,201.19,214.1t-30.32-2.51q-5.06-2.51-13.58-7.45A46.13,46.13,0,0,0,141,198a38.57,38.57,0,0,0-15.57.7q-7.26,1.91,4.68,3.68a48.61,48.61,0,0,1,19.23,8.92,128.76,128.76,0,0,0,17.42,11.2q16.11,7.66,43.48,3.24t46.42-21.86q12.56-14,3.65-22.81t-44.89-17.54Q196.2,159.21,187,155q-9.48-5.82-4.57-15.62,4.65-9.6,15-20.69A208.57,208.57,0,0,1,220.07,97.8q26-20.22,41.74-23.11,10.9-2.25,16.1.75,4.54,3.41.54,10.73a228.92,228.92,0,0,1-19.79,31q-11.52,15.28-12.28,22.1-.24,7.13,8.33,11.12,8.31,4.38,9.73-1.46a138.23,138.23,0,0,1,9-19.57q4.71-8.28,13.45-22T296.23,85.42Zm118,44.14q-4-5.18-9.49-3.89-2.2.43-14.89,12.48-4.92,4.75-10.43,10.46t-10.68,11.75a1.25,1.25,0,0,1-1.23.49c-.39-.11-.46-.43-.2-1q1.29-2.92,2.65-5.85c.9-2,1.78-3.85,2.65-5.69,1.2-2.43,2.37-4.73,3.49-6.9s2.19-4.09,3.23-5.77q2.19-3.76-2.68-7.78t-6.3-1.58q-3.49,5.66-8.66,14.37-4.12,6.94-8.07,14-3.39,4-7.85,9.26-11.64,13.84-15.92,16.92-3.24,2.4-3.25-.34.51-7.55,4.63-18.83a64.52,64.52,0,0,1,6.46-14.37c2.16-3.24,1.72-6.36-1.32-9.33s-5.8-2.48-8.3,1.48a64.91,64.91,0,0,0-4.07,7q-2.27,4.41-3.82,6.84l-5.3,8.08q-3.11,4.74-6.86,9.83a112.65,112.65,0,0,1-8.28,9.94,105.4,105.4,0,0,1-8,7.86c-3.45,2.85-5.6,2.81-6.42-.12s-.65-7.08.55-12.48a97.63,97.63,0,0,1,5.55-16.85,81,81,0,0,1,7.23-14.18q3.11-4.93-2.22-8.11c-3.73-2-6.54-1.06-8.43,2.73q-4.14,6.75-6.66,11.1c-1.68,2.89-3.52,6.11-5.5,9.63a114.69,114.69,0,0,0-5.49,11.38,79.38,79.38,0,0,0-3.28,9.92,16.29,16.29,0,0,0,2.23,13q4,6.34,13.9,7.17c1.39.18,3.12-.65,5.19-2.47a107.19,107.19,0,0,0,7.77-7.8q3.36-3.87,6.66-7.59c2.21-2.49,3.95-4.47,5.25-5.94.78-.91,1.29-1.31,1.55-1.19s.22.79-.12,2q-1.67,9.62,2,15.56,3.65,7,12.2.3,8-6.36,18.48-18.76-3,6.42-3.31,9.5-.78,4.43,5.2,7.79,5.6,3.48,7.53.84.39-.54,2.33-4.29c.43-1,.88-2.12,1.36-3.35a22.05,22.05,0,0,1,2-3.92,82.7,82.7,0,0,1,9.71-12.71q6.21-6.87,12.81-13.64,10.88-11.13,20.73-19.7c1-.76,1.55-1.1,1.81-1s.3.61-.13,1.38q-9.18,14.76-14,24.55-8.4,17.51-5.39,25.3c.34,1.23,1.69,2.69,4,4.38a59.93,59.93,0,0,0,7,4.39,21.42,21.42,0,0,0,4.8,1.92q1.56.3,1.16-4.8a46.91,46.91,0,0,1,.69-14.45,98.81,98.81,0,0,1,4.31-15.35,186.55,186.55,0,0,1,12.27-26.46Q418.23,134.76,414.2,129.56Zm96.42-4.49c3.38-.27,6.91-2.66,10.63-7.18a7.42,7.42,0,0,0,1.74-5c-.13-1.55-1.46-2.48-4-2.79q-7.26-.54-10.49,7.17Q505.42,125.49,510.62,125.07Zm140.69-.15c-.69-1-1.65-.83-2.85.4q-4.53,5.42-10.81,11.9T625.15,149a142.27,142.27,0,0,1-17,12.82q-12.43,6.72-18.68.14-3.13-3.08-2.62-9.19c0-.91.73-1.49,2.2-1.72Q600,149,612,140.57a81.71,81.71,0,0,0,20.2-20.43,38.13,38.13,0,0,0,4.91-10.4q1.14-9.49-11.57-9.58-17.14.11-35.65,17.92a103.84,103.84,0,0,0-14.5,17.79,53.7,53.7,0,0,0-5.66,11,91.42,91.42,0,0,0-12.22,1,1.79,1.79,0,0,1-1.69-.8,70.24,70.24,0,0,1-4.56-5.7,31.41,31.41,0,0,1-3.39-6q-1.95-4.36,1.93-11.52,2.58-5.09,9.9-10.67a114,114,0,0,1,15.61-10q3.63-1.74,3.5-2.85-.65-1.56-5.45-.93a66.35,66.35,0,0,0-11.28,3q-17.91,6.32-29.16,19.7-6.63,8-.2,15.72L524.68,146q-7.11,7.2-11,11.18t-7.45,7.61c-2.37,2.36-4.21,4.1-5.5,5.23q-2.6,2.35-2.34-.92a40,40,0,0,1,1.79-9.08,117.54,117.54,0,0,1,4.91-13.17q3.23-7.44,4.39-9.58,3-5.29-.48-8.08t-5.64.2q-1.68,2.35-5.37,7.74c-1.5,2.19-2.94,4.46-4.33,6.79q-5.18,5.77-10.68,12-9.39,10.59-15.86,15.47-3.25,1.88-3.06-2.79T467,155.86a120.87,120.87,0,0,1,6.71-16.22A67.66,67.66,0,0,1,483.37,125c1.29-1.52.34-2.34-2.87-2.45a85.33,85.33,0,0,0-11,.41q-4.41.45-8.5,1c-2.72.39-4.69.64-5.9.73s-1.39-.6-.78-2.07a43.38,43.38,0,0,1,5.49-8.65,62.82,62.82,0,0,1,5.63-6.86q2.85-2.88-2.93-5.79t-7.33.72a105.31,105.31,0,0,1-6.33,12q-5.7,9.18-11.77,18.22t-11.91,18.13q-3.61,5.59-7.37,11.58t-7.5,12.36a11.8,11.8,0,0,0-1.67,7.91,19.62,19.62,0,0,0,1.71,6.61q1.56,3.3,3.11.61.39-1.07,4.39-8.78t9.7-17.57q5.57-9.85,11.06-18.46a94.79,94.79,0,0,1,9.51-12.94,6.54,6.54,0,0,1,3.76-1.93c1.81-.15,3.52-.31,5.12-.5s3.23-.34,4.87-.48q3.89-.31,1.56,2.36a94.13,94.13,0,0,0-14.36,22q-5.16,11.31-6.18,20.45t2.88,13.15q4,4,14.41-1.46a48.88,48.88,0,0,0,9.71-7.41,134.51,134.51,0,0,0,9.72-10.31l5.85-7.15c-.07.21-.15.42-.22.62a25.09,25.09,0,0,0-1.47,10.89,14.34,14.34,0,0,0,5.08,9.76q4.15,3.69,7.28,1.55a42.37,42.37,0,0,0,7.57-6.59c1.36-1.44,2.73-2.92,4.12-4.47l0,.12q-1.8,6,6.12,8.91,5.85,1.92,14.21.9a45.62,45.62,0,0,0,15.89-5Q553,172.42,557.3,166t1.79-12.58c-.17-.5.09-.9.78-1.18a66.3,66.3,0,0,1,6.87-1.28l1.84-.27a33.17,33.17,0,0,0-.91,5.2Q566.4,167,571.14,172t12.8,5q17.26.24,36-16.15,10.74-9.76,17.35-17t11.52-13.19C651,128,651.83,126.08,651.31,124.92ZM588,143.79a51.45,51.45,0,0,1,4.78-11.07,60.68,60.68,0,0,1,10.93-14.3,79,79,0,0,1,12.5-10.24q5.84-3.63,9.4-3.62c2.38,0,3.06,1.73,2,5.18a29.94,29.94,0,0,1-5.5,8.82,122.25,122.25,0,0,1-9.51,10.08q-12.06,11-20.87,16Q586.86,147.47,588,143.79Zm-64,9.77q7.5-8.38,10.48-11.95c.27-.37.53-.71.75-1.05l4.64,4.93a28.82,28.82,0,0,1,3.32,4c.35.59.13,1-.64,1.24q-14.93,3.78-24,9.63c-.54.34-1,.69-1.54,1Q520.13,157.95,524.06,153.56Zm17.28,10.92a46.3,46.3,0,0,1-9.85,6.86,49.81,49.81,0,0,1-10.57,3.93q-5,1.17-6.68-.41-1.57-2.94,4.26-7.26a57.29,57.29,0,0,1,13.8-7.35,92.48,92.48,0,0,1,11.75-3.86c1.12-.26,1.68,0,1.69.64Q545.61,160.54,541.34,164.48Z" transform="translate(-114.95 -33.61)"/><path class="cls-7" d="M170.29,261.54v7.89a9.47,9.47,0,0,0,1.59,5.58H154.66a9.69,9.69,0,0,0,1.56-5.58V243.08a9.55,9.55,0,0,0-1.56-5.52h30.62a22.08,22.08,0,0,1,4.8.38,6.25,6.25,0,0,1,2.78,1.45c1.53,1.31,2.31,3.29,2.37,5.92v8.51a7.55,7.55,0,0,1-2.37,5.88,6.05,6.05,0,0,1-2.78,1.45,22,22,0,0,1-4.8.39Zm0-6.16h7.17c1.61,0,2.63-.26,3.06-.77s.64-1.71.64-3.6v-2.93a7.31,7.31,0,0,0-.55-3.56c-.36-.54-1.17-.81-2.41-.81h-7.91Z" transform="translate(-114.95 -33.61)"/><path class="cls-7" d="M212.71,237.56H234.5a11,11,0,0,1,4.19.82,8.44,8.44,0,0,1,3.26,2.21c1.38,1.48,2.09,4,2.11,7.68v16c0,3.64-.73,6.2-2.11,7.68a8.57,8.57,0,0,1-3.26,2.22,11.24,11.24,0,0,1-4.19.82H212.71a11.21,11.21,0,0,1-4.19-.82,8.57,8.57,0,0,1-3.26-2.22q-2.08-2.22-2.11-7.68v-16q0-5.46,2.11-7.68a8.44,8.44,0,0,1,3.26-2.21A11,11,0,0,1,212.71,237.56Zm4.66,10.55v16.34a7.57,7.57,0,0,0,.47,3.27c.57.77,1.65,1.15,3.25,1.13h5c1.54,0,2.55-.28,3-.83s.7-1.74.7-3.57V248.11a7.57,7.57,0,0,0-.47-3.27c-.57-.77-1.65-1.14-3.25-1.13h-5.56a3,3,0,0,0-2.54.9A6.38,6.38,0,0,0,217.37,248.11Z" transform="translate(-114.95 -33.61)"/><path class="cls-7" d="M262.7,237.56h21.78a11,11,0,0,1,4.19.82,8.44,8.44,0,0,1,3.26,2.21q2.08,2.22,2.11,7.68v16q0,5.46-2.11,7.68a8.57,8.57,0,0,1-3.26,2.22,11.21,11.21,0,0,1-4.19.82H262.7a11.17,11.17,0,0,1-4.19-.82,8.49,8.49,0,0,1-3.26-2.22c-1.39-1.48-2.1-4-2.11-7.68v-16c0-3.64.72-6.2,2.11-7.68a8.36,8.36,0,0,1,3.26-2.21A11,11,0,0,1,262.7,237.56Zm4.65,10.55v16.34a7.57,7.57,0,0,0,.47,3.27c.57.77,1.65,1.15,3.25,1.13h5c1.54,0,2.54-.28,3-.83s.7-1.74.7-3.57V248.11a7.41,7.41,0,0,0-.47-3.27c-.56-.77-1.65-1.14-3.24-1.13h-5.56a3,3,0,0,0-2.55.9A6.48,6.48,0,0,0,267.35,248.11Z" transform="translate(-114.95 -33.61)"/><path class="cls-7" d="M336.48,267.45,335.27,275H302.56a9.59,9.59,0,0,0,1.56-5.53V243.1a9.57,9.57,0,0,0-1.56-5.54h17.35a9.41,9.41,0,0,0-1.57,5.54v25.75h13.39A7.71,7.71,0,0,0,336.48,267.45Z" transform="translate(-114.95 -33.61)"/><path class="cls-7" d="M394.83,237.56l1.32,7.62a7.43,7.43,0,0,0-4.38-1.52l-1.68.05H377.14a3.39,3.39,0,0,0-2,.43,1.82,1.82,0,0,0-.56,1.54V247c0,1,.17,1.6.53,1.88a4.63,4.63,0,0,0,2.44.41h9.23a28,28,0,0,1,5.16.34,5.57,5.57,0,0,1,2.64,1.36c1.42,1.28,2.14,3.3,2.18,6.06v10.23a7.73,7.73,0,0,1-2.48,5.91,7,7,0,0,1-2.77,1.47,21.89,21.89,0,0,1-4.73.37H362l-1.31-7.48a9.48,9.48,0,0,0,3,1.09,38.41,38.41,0,0,0,5.13.23h10.86a10.53,10.53,0,0,0,2.32-.14,1.17,1.17,0,0,0,.62-.57,3.78,3.78,0,0,0,.15-1.29v-1.18a3.38,3.38,0,0,0-.34-1.81,1.6,1.6,0,0,0-1.35-.47H370.52a28.38,28.38,0,0,1-5-.33,5.88,5.88,0,0,1-2.72-1.21c-1.4-1.18-2.13-3.26-2.16-6.22V245.32a7.72,7.72,0,0,1,2.47-5.93,6.46,6.46,0,0,1,2.75-1.48,22,22,0,0,1,4.71-.35Z" transform="translate(-114.95 -33.61)"/><path class="cls-7" d="M420.25,243.71v9.12h11.46A13.21,13.21,0,0,0,437,252v8c-.75-.62-2.16-1-4.25-1H420.25v9.87h13.87a16.5,16.5,0,0,0,5.32-1.29L438.2,275H404.47a9.59,9.59,0,0,0,1.56-5.53v-26.4a9.55,9.55,0,0,0-1.56-5.52h32.94l1.1,7a14.45,14.45,0,0,0-2.65-.7,38.87,38.87,0,0,0-4-.16Z" transform="translate(-114.95 -33.61)"/><path class="cls-7" d="M466.29,259H461.9v10.43a9.37,9.37,0,0,0,1.56,5.55H446.11a9.63,9.63,0,0,0,1.56-5.55V243.08a9.55,9.55,0,0,0-1.56-5.52h30.81a22.25,22.25,0,0,1,4.81.38,6.34,6.34,0,0,1,2.79,1.45,7.66,7.66,0,0,1,2.36,5.92v8.09a7.77,7.77,0,0,1-.66,3.69,4.14,4.14,0,0,1-3.87,2c-.24,0-.57,0-1-.05l5.12,10.87a31.54,31.54,0,0,0,2.89,5.11H472.92Zm-4.39-6.15h8a3.3,3.3,0,0,0,2.39-.61,4.28,4.28,0,0,0,.55-2.67v-1.87c0-1.85-.18-3-.52-3.4s-1.28-.62-2.81-.62H461.9Z" transform="translate(-114.95 -33.61)"/><path class="cls-7" d="M519.5,267.32l9-23.89a10.9,10.9,0,0,0,.82-3.87,7.64,7.64,0,0,0-.3-2h9.47a8.4,8.4,0,0,0-1.9,2.23,35.93,35.93,0,0,0-1.84,4.32L522.88,275H507.21l-11.33-31.8a24.78,24.78,0,0,0-2.74-5.65h17.47a6.47,6.47,0,0,0-.39,2,12.4,12.4,0,0,0,.83,4Z" transform="translate(-114.95 -33.61)"/><path class="cls-7" d="M560.33,275H543a9.63,9.63,0,0,0,1.56-5.55V243.09a9.56,9.56,0,0,0-1.56-5.53h17.35a9.26,9.26,0,0,0-1.56,5.53v26.37A9.31,9.31,0,0,0,560.33,275Z" transform="translate(-114.95 -33.61)"/><path class="cls-7" d="M600.81,237.56l1.31,7.69a7.3,7.3,0,0,0-2.67-1.26,23.59,23.59,0,0,0-4.33-.28h-7.84a11.07,11.07,0,0,0-2.36.17,2.08,2.08,0,0,0-1.1.68,2.74,2.74,0,0,0-.58,1.24,17.42,17.42,0,0,0-.13,2.67v15.9c0,1.76.32,2.95,1,3.56s2,.92,3.91.92h7.41a18.47,18.47,0,0,0,7.16-1.18L601.44,275h-23a9.25,9.25,0,0,1-7.26-3.05,8,8,0,0,1-1.81-3.09,16.68,16.68,0,0,1-.49-4.58v-16a16.56,16.56,0,0,1,.49-4.57,8,8,0,0,1,1.81-3.1,9.24,9.24,0,0,1,7.26-3Z" transform="translate(-114.95 -33.61)"/><path class="cls-7" d="M625.81,243.71v9.12h11.45a13.27,13.27,0,0,0,5.32-.86v8c-.75-.62-2.17-1-4.25-1H625.81v9.87h13.86a16.39,16.39,0,0,0,5.32-1.29L643.76,275H610a9.66,9.66,0,0,0,1.57-5.53v-26.4a9.63,9.63,0,0,0-1.57-5.52h33l1.09,7a14.45,14.45,0,0,0-2.65-.7,38.87,38.87,0,0,0-4-.16Z" transform="translate(-114.95 -33.61)"/><path class="cls-7" d="M166.37,257.61v7.89a9.35,9.35,0,0,0,1.59,5.58H150.73a9.76,9.76,0,0,0,1.57-5.58V239.16a9.64,9.64,0,0,0-1.57-5.53h30.62a22.68,22.68,0,0,1,4.8.38,6.34,6.34,0,0,1,2.79,1.45,7.62,7.62,0,0,1,2.36,5.92v8.51a7.58,7.58,0,0,1-2.36,5.89,6.34,6.34,0,0,1-2.79,1.45,22.68,22.68,0,0,1-4.8.38Zm0-6.16h7.17c1.6,0,2.62-.25,3.05-.76s.64-1.72.64-3.6v-2.94a7.26,7.26,0,0,0-.55-3.55q-.54-.81-2.4-.81h-7.91Z" transform="translate(-114.95 -33.61)"/><path class="cls-7" d="M208.79,233.63h21.78a11,11,0,0,1,4.19.82,8.57,8.57,0,0,1,3.26,2.22q2.08,2.22,2.11,7.68v16q0,5.46-2.11,7.68a8.57,8.57,0,0,1-3.26,2.22,11,11,0,0,1-4.19.82H208.79a11.06,11.06,0,0,1-4.2-.82,8.65,8.65,0,0,1-3.26-2.22c-1.38-1.48-2.09-4-2.11-7.68v-16c0-3.64.73-6.2,2.11-7.68a8.65,8.65,0,0,1,3.26-2.22A11.06,11.06,0,0,1,208.79,233.63Zm4.65,10.55v16.35a7.48,7.48,0,0,0,.47,3.26c.57.78,1.65,1.15,3.25,1.13h5c1.55,0,2.55-.27,3-.82s.7-1.74.7-3.57V244.18a7.57,7.57,0,0,0-.47-3.27c-.57-.77-1.65-1.14-3.25-1.12h-5.55a3,3,0,0,0-2.55.89A6.5,6.5,0,0,0,213.44,244.18Z" transform="translate(-114.95 -33.61)"/><path class="cls-7" d="M258.77,233.63h21.78a11.06,11.06,0,0,1,4.2.82,8.65,8.65,0,0,1,3.26,2.22c1.38,1.48,2.09,4,2.11,7.68v16c0,3.64-.73,6.2-2.11,7.68a8.65,8.65,0,0,1-3.26,2.22,11.06,11.06,0,0,1-4.2.82H258.77a11,11,0,0,1-4.19-.82,8.57,8.57,0,0,1-3.26-2.22q-2.08-2.22-2.11-7.68v-16q0-5.46,2.11-7.68a8.57,8.57,0,0,1,3.26-2.22A11,11,0,0,1,258.77,233.63Zm4.66,10.55v16.35a7.33,7.33,0,0,0,.47,3.26c.57.78,1.65,1.15,3.24,1.13h5c1.54,0,2.55-.27,3-.82s.71-1.74.71-3.57V244.18a7.57,7.57,0,0,0-.47-3.27c-.57-.77-1.65-1.14-3.25-1.12h-5.56a3,3,0,0,0-2.54.89A6.41,6.41,0,0,0,263.43,244.18Z" transform="translate(-114.95 -33.61)"/><path class="cls-7" d="M332.55,263.52l-1.2,7.56H298.63a9.64,9.64,0,0,0,1.57-5.53V239.17a9.67,9.67,0,0,0-1.57-5.54H316a9.34,9.34,0,0,0-1.56,5.54v25.75h13.39A7.62,7.62,0,0,0,332.55,263.52Z" transform="translate(-114.95 -33.61)"/><path class="cls-7" d="M390.9,233.63l1.33,7.62a7.47,7.47,0,0,0-4.38-1.51l-1.68,0H373.22a3.33,3.33,0,0,0-2,.43,1.81,1.81,0,0,0-.56,1.53v1.3c0,1,.18,1.61.53,1.88a4.55,4.55,0,0,0,2.45.42h9.23a27,27,0,0,1,5.15.34,5.47,5.47,0,0,1,2.65,1.36c1.41,1.28,2.13,3.29,2.17,6v10.23a7.75,7.75,0,0,1-2.48,5.92,6.7,6.7,0,0,1-2.77,1.46,21.16,21.16,0,0,1-4.72.37h-24.8l-1.32-7.47a9.79,9.79,0,0,0,3,1.08,36.73,36.73,0,0,0,5.13.23h10.87a10,10,0,0,0,2.32-.14,1.11,1.11,0,0,0,.61-.57,3.78,3.78,0,0,0,.15-1.29v-1.18a3.31,3.31,0,0,0-.34-1.81,1.6,1.6,0,0,0-1.35-.47H366.59a29.6,29.6,0,0,1-5-.32,6,6,0,0,1-2.71-1.21q-2.11-1.79-2.17-6.22V241.39a7.73,7.73,0,0,1,2.47-5.92,6.44,6.44,0,0,1,2.76-1.48,21.79,21.79,0,0,1,4.7-.36Z" transform="translate(-114.95 -33.61)"/><path class="cls-7" d="M416.33,239.79v9.11h11.45a13.29,13.29,0,0,0,5.32-.85v8c-.75-.62-2.17-1-4.25-1H416.33v9.86h13.86a16.45,16.45,0,0,0,5.32-1.29l-1.23,7.45H400.54a9.64,9.64,0,0,0,1.57-5.53V239.16a9.64,9.64,0,0,0-1.57-5.53h32.94l1.1,7a15.09,15.09,0,0,0-2.65-.7q-.94-.12-4-.15Z" transform="translate(-114.95 -33.61)"/><path class="cls-7" d="M462.37,255.11H458v10.43a9.51,9.51,0,0,0,1.56,5.54H442.18a9.7,9.7,0,0,0,1.57-5.54V239.16a9.64,9.64,0,0,0-1.57-5.53H473a22.74,22.74,0,0,1,4.8.38,6.18,6.18,0,0,1,2.8,1.46,7.58,7.58,0,0,1,2.36,5.91v8.09a7.72,7.72,0,0,1-.66,3.69,4.14,4.14,0,0,1-3.86,2c-.24,0-.57,0-1,0L482.57,266a31.84,31.84,0,0,0,2.88,5.1H469ZM458,249h8a3.32,3.32,0,0,0,2.39-.6,4.39,4.39,0,0,0,.55-2.67v-1.87c0-1.86-.17-3-.52-3.4s-1.29-.62-2.81-.62H458Z" transform="translate(-114.95 -33.61)"/><path class="cls-7" d="M515.58,263.4l9-23.9a10.9,10.9,0,0,0,.82-3.87,7.64,7.64,0,0,0-.3-2h9.47a8.82,8.82,0,0,0-1.9,2.24,34.9,34.9,0,0,0-1.83,4.32L519,271.08H503.28L492,239.28a25,25,0,0,0-2.74-5.65h17.48a6.53,6.53,0,0,0-.39,2,12.3,12.3,0,0,0,.82,4Z" transform="translate(-114.95 -33.61)"/><path class="cls-7" d="M556.4,271.08H539.05a9.7,9.7,0,0,0,1.57-5.54V239.17a9.67,9.67,0,0,0-1.57-5.54H556.4a9.41,9.41,0,0,0-1.57,5.54v26.37A9.41,9.41,0,0,0,556.4,271.08Z" transform="translate(-114.95 -33.61)"/><path class="cls-7" d="M596.88,233.63l1.32,7.7a7.63,7.63,0,0,0-2.68-1.27,23.7,23.7,0,0,0-4.32-.27h-7.85A11.4,11.4,0,0,0,581,240a2.08,2.08,0,0,0-1.1.69,2.67,2.67,0,0,0-.57,1.24,16.79,16.79,0,0,0-.14,2.66v15.91c0,1.75.33,2.94,1,3.55s2,.92,3.91.92h7.41a18.29,18.29,0,0,0,7.16-1.18l-1.15,7.34h-23a9.3,9.3,0,0,1-7.26-3,8,8,0,0,1-1.81-3.1,17,17,0,0,1-.49-4.58v-16a17,17,0,0,1,.49-4.58,8,8,0,0,1,1.81-3.1,9.3,9.3,0,0,1,7.26-3Z" transform="translate(-114.95 -33.61)"/><path class="cls-7" d="M621.88,239.79v9.11h11.45a13.26,13.26,0,0,0,5.32-.85v8c-.75-.62-2.16-1-4.25-1H621.88v9.86h13.87a16.5,16.5,0,0,0,5.32-1.29l-1.24,7.45H606.1a9.56,9.56,0,0,0,1.56-5.53V239.16a9.56,9.56,0,0,0-1.56-5.53H639l1.1,7a15,15,0,0,0-2.64-.7q-.94-.12-4-.15Z" transform="translate(-114.95 -33.61)"/><path class="cls-8" d="M166.37,257.61v7.89a9.35,9.35,0,0,0,1.59,5.58H150.73a9.76,9.76,0,0,0,1.57-5.58V239.16a9.64,9.64,0,0,0-1.57-5.53h30.62a22.68,22.68,0,0,1,4.8.38,6.34,6.34,0,0,1,2.79,1.45,7.62,7.62,0,0,1,2.36,5.92v8.51a7.58,7.58,0,0,1-2.36,5.89,6.34,6.34,0,0,1-2.79,1.45,22.68,22.68,0,0,1-4.8.38Zm0-6.16h7.17c1.6,0,2.62-.25,3.05-.76s.64-1.72.64-3.6v-2.94a7.26,7.26,0,0,0-.55-3.55q-.54-.81-2.4-.81h-7.91Z" transform="translate(-114.95 -33.61)"/><path class="cls-8" d="M208.79,233.63h21.78a11,11,0,0,1,4.19.82,8.57,8.57,0,0,1,3.26,2.22q2.08,2.22,2.11,7.68v16q0,5.46-2.11,7.68a8.57,8.57,0,0,1-3.26,2.22,11,11,0,0,1-4.19.82H208.79a11.06,11.06,0,0,1-4.2-.82,8.65,8.65,0,0,1-3.26-2.22c-1.38-1.48-2.09-4-2.11-7.68v-16c0-3.64.73-6.2,2.11-7.68a8.65,8.65,0,0,1,3.26-2.22A11.06,11.06,0,0,1,208.79,233.63Zm4.65,10.55v16.35a7.48,7.48,0,0,0,.47,3.26c.57.78,1.65,1.15,3.25,1.13h5c1.55,0,2.55-.27,3-.82s.7-1.74.7-3.57V244.18a7.57,7.57,0,0,0-.47-3.27c-.57-.77-1.65-1.14-3.25-1.12h-5.55a3,3,0,0,0-2.55.89A6.5,6.5,0,0,0,213.44,244.18Z" transform="translate(-114.95 -33.61)"/><path class="cls-8" d="M258.77,233.63h21.78a11.06,11.06,0,0,1,4.2.82,8.65,8.65,0,0,1,3.26,2.22c1.38,1.48,2.09,4,2.11,7.68v16c0,3.64-.73,6.2-2.11,7.68a8.65,8.65,0,0,1-3.26,2.22,11.06,11.06,0,0,1-4.2.82H258.77a11,11,0,0,1-4.19-.82,8.57,8.57,0,0,1-3.26-2.22q-2.08-2.22-2.11-7.68v-16q0-5.46,2.11-7.68a8.57,8.57,0,0,1,3.26-2.22A11,11,0,0,1,258.77,233.63Zm4.66,10.55v16.35a7.33,7.33,0,0,0,.47,3.26c.57.78,1.65,1.15,3.24,1.13h5c1.54,0,2.55-.27,3-.82s.71-1.74.71-3.57V244.18a7.57,7.57,0,0,0-.47-3.27c-.57-.77-1.65-1.14-3.25-1.12h-5.56a3,3,0,0,0-2.54.89A6.41,6.41,0,0,0,263.43,244.18Z" transform="translate(-114.95 -33.61)"/><path class="cls-8" d="M332.55,263.52l-1.2,7.56H298.63a9.64,9.64,0,0,0,1.57-5.53V239.17a9.67,9.67,0,0,0-1.57-5.54H316a9.34,9.34,0,0,0-1.56,5.54v25.75h13.39A7.62,7.62,0,0,0,332.55,263.52Z" transform="translate(-114.95 -33.61)"/><path class="cls-8" d="M390.9,233.63l1.33,7.62a7.47,7.47,0,0,0-4.38-1.51l-1.68,0H373.22a3.33,3.33,0,0,0-2,.43,1.81,1.81,0,0,0-.56,1.53v1.3c0,1,.18,1.61.53,1.88a4.55,4.55,0,0,0,2.45.42h9.23a27,27,0,0,1,5.15.34,5.47,5.47,0,0,1,2.65,1.36c1.41,1.28,2.13,3.29,2.17,6v10.23a7.75,7.75,0,0,1-2.48,5.92,6.7,6.7,0,0,1-2.77,1.46,21.16,21.16,0,0,1-4.72.37h-24.8l-1.32-7.47a9.79,9.79,0,0,0,3,1.08,36.73,36.73,0,0,0,5.13.23h10.87a10,10,0,0,0,2.32-.14,1.11,1.11,0,0,0,.61-.57,3.78,3.78,0,0,0,.15-1.29v-1.18a3.31,3.31,0,0,0-.34-1.81,1.6,1.6,0,0,0-1.35-.47H366.59a29.6,29.6,0,0,1-5-.32,6,6,0,0,1-2.71-1.21q-2.11-1.79-2.17-6.22V241.39a7.73,7.73,0,0,1,2.47-5.92,6.44,6.44,0,0,1,2.76-1.48,21.79,21.79,0,0,1,4.7-.36Z" transform="translate(-114.95 -33.61)"/><path class="cls-8" d="M416.33,239.79v9.11h11.45a13.29,13.29,0,0,0,5.32-.85v8c-.75-.62-2.17-1-4.25-1H416.33v9.86h13.86a16.45,16.45,0,0,0,5.32-1.29l-1.23,7.45H400.54a9.64,9.64,0,0,0,1.57-5.53V239.16a9.64,9.64,0,0,0-1.57-5.53h32.94l1.1,7a15.09,15.09,0,0,0-2.65-.7q-.94-.12-4-.15Z" transform="translate(-114.95 -33.61)"/><path class="cls-8" d="M462.37,255.11H458v10.43a9.51,9.51,0,0,0,1.56,5.54H442.18a9.7,9.7,0,0,0,1.57-5.54V239.16a9.64,9.64,0,0,0-1.57-5.53H473a22.74,22.74,0,0,1,4.8.38,6.18,6.18,0,0,1,2.8,1.46,7.58,7.58,0,0,1,2.36,5.91v8.09a7.72,7.72,0,0,1-.66,3.69,4.14,4.14,0,0,1-3.86,2c-.24,0-.57,0-1,0L482.57,266a31.84,31.84,0,0,0,2.88,5.1H469ZM458,249h8a3.32,3.32,0,0,0,2.39-.6,4.39,4.39,0,0,0,.55-2.67v-1.87c0-1.86-.17-3-.52-3.4s-1.29-.62-2.81-.62H458Z" transform="translate(-114.95 -33.61)"/><path class="cls-8" d="M515.58,263.4l9-23.9a10.9,10.9,0,0,0,.82-3.87,7.64,7.64,0,0,0-.3-2h9.47a8.82,8.82,0,0,0-1.9,2.24,34.9,34.9,0,0,0-1.83,4.32L519,271.08H503.28L492,239.28a25,25,0,0,0-2.74-5.65h17.48a6.53,6.53,0,0,0-.39,2,12.3,12.3,0,0,0,.82,4Z" transform="translate(-114.95 -33.61)"/><path class="cls-8" d="M556.4,271.08H539.05a9.7,9.7,0,0,0,1.57-5.54V239.17a9.67,9.67,0,0,0-1.57-5.54H556.4a9.41,9.41,0,0,0-1.57,5.54v26.37A9.41,9.41,0,0,0,556.4,271.08Z" transform="translate(-114.95 -33.61)"/><path class="cls-8" d="M596.88,233.63l1.32,7.7a7.63,7.63,0,0,0-2.68-1.27,23.7,23.7,0,0,0-4.32-.27h-7.85A11.4,11.4,0,0,0,581,240a2.08,2.08,0,0,0-1.1.69,2.67,2.67,0,0,0-.57,1.24,16.79,16.79,0,0,0-.14,2.66v15.91c0,1.75.33,2.94,1,3.55s2,.92,3.91.92h7.41a18.29,18.29,0,0,0,7.16-1.18l-1.15,7.34h-23a9.3,9.3,0,0,1-7.26-3,8,8,0,0,1-1.81-3.1,17,17,0,0,1-.49-4.58v-16a17,17,0,0,1,.49-4.58,8,8,0,0,1,1.81-3.1,9.3,9.3,0,0,1,7.26-3Z" transform="translate(-114.95 -33.61)"/><path class="cls-8" d="M621.88,239.79v9.11h11.45a13.26,13.26,0,0,0,5.32-.85v8c-.75-.62-2.16-1-4.25-1H621.88v9.86h13.87a16.5,16.5,0,0,0,5.32-1.29l-1.24,7.45H606.1a9.56,9.56,0,0,0,1.56-5.53V239.16a9.56,9.56,0,0,0-1.56-5.53H639l1.1,7a15,15,0,0,0-2.64-.7q-.94-.12-4-.15Z" transform="translate(-114.95 -33.61)"/><path class="cls-9" d="M231.62,287q2-3,4.27,1.13t.31,10.48q-1,3.27-2,7.68t-1.92,9.21c-.55,2.64-1.05,5.29-1.51,7.93s-.88,5.15-1.3,7.5c-.08.56,0,.84.25.84s.5-.24.74-.73q3.44-6.4,7.39-14c1.48-2.83,3-5.64,4.41-8.42l4.17-7.92q2.93-5.61,4.87-9.85a56.28,56.28,0,0,1,3.18-6.2c.74-1.19,1.5-1.62,2.29-1.28a4.81,4.81,0,0,1,2.08,2,12.63,12.63,0,0,1,1.38,3.33,5.69,5.69,0,0,1,.27,2.59q-1.72,5.61-3.53,12.43t-3.07,14.18A133.74,133.74,0,0,0,252,332.8a93.65,93.65,0,0,0-.29,11.5,25.79,25.79,0,0,0,1,6.1c.53,1.59.4,2.37-.37,2.36s-1.72-.76-2.85-2.24a44.17,44.17,0,0,1-3.54-5.55c-1.21-2.19-1.74-4-1.57-5.37q.74-6.69,2-13.08t2.85-12.4q1.53-6,2.87-10.57t2.9-9.81c.25-.85.22-1.35-.08-1.5s-.63.14-1,.84q-1.69,3.29-4.66,8.68t-6.56,12.73q-4.41,8.88-8.91,18.43t-7.47,17.42A1.29,1.29,0,0,1,225,351a2.12,2.12,0,0,1-1.63-1,7.32,7.32,0,0,1-1.92-2.89,12.42,12.42,0,0,1-.76-2.28,29.6,29.6,0,0,1,.88-6.71q1.05-5.26,3-13,2.73-10.69,4.25-16.82t2.85-11.68c.19-.92-.12-1.27-1-1.06q-4.2,8.85-8.31,18.15a173.94,173.94,0,0,1-8.6,17,62.87,62.87,0,0,1-9.7,12.88,18.07,18.07,0,0,1-11.47,5.65,11,11,0,0,1-5.36-.71,9.33,9.33,0,0,1-3.26-2.24,4.37,4.37,0,0,1-1.22-2.35c-.07-.72.14-1.06.64-1a25.34,25.34,0,0,0,18.28-6.44,69.63,69.63,0,0,0,13.41-16.2,141.35,141.35,0,0,0,9.55-18.84A108.76,108.76,0,0,1,231.62,287Z" transform="translate(-114.95 -33.61)"/><path class="cls-9" d="M263.22,328.9a6.31,6.31,0,0,0,.83,4q2,3,5.94.58a42.65,42.65,0,0,0,5.41-4.88,59.23,59.23,0,0,0,4-4.59q2-2.55,3.44-4.69c.39-.49.69-.51.91-.08s-.1,1.3-.78,2.37c-1.05,1.58-2.27,3.32-3.68,5.23s-3.24,4.11-5.52,6.64q-6,6.33-11.47,5.64a5.45,5.45,0,0,1-4.07-2.58c-1-1.53-1.37-3.86-1.09-7a21.17,21.17,0,0,1,2.47-8.25,38.73,38.73,0,0,1,4.62-7.08q5.91-6.94,11.35-6.41,4.05.48,3.67,4.48a16.5,16.5,0,0,1-1.57,4.26,27.64,27.64,0,0,1-6.43,8,15.32,15.32,0,0,1-7.3,3.68C263.46,328.29,263.22,328.51,263.22,328.9Zm1.9-8.33a24.86,24.86,0,0,0-1.53,4.55c-.24,1,.16,1.19,1.2.5a37.3,37.3,0,0,0,6.65-6.11,43.08,43.08,0,0,0,3-4,12.12,12.12,0,0,0,1.75-3.57c.33-1.43.12-2.19-.64-2.27a4.7,4.7,0,0,0-3,1.22,23.83,23.83,0,0,0-4,3.93A23,23,0,0,0,265.12,320.57Z" transform="translate(-114.95 -33.61)"/><path class="cls-9" d="M310.26,287.11q.71-.62,2.25.48c1,.72,1.42,1.44,1.17,2.14-.13.25-1.23,3-3.28,8.27s-4.17,10.89-6.37,16.89-4.2,11.57-6,16.65-2.75,7.85-2.83,8.28c-.14.85-.9.71-2.27-.44-1.37-1-2.09-2-2.14-2.91a12.42,12.42,0,0,1,.72-3.38c.51-1.68,1.19-3.7,2-6.08a.56.56,0,0,0-.08-.66c-.17-.14-.37,0-.62.33l-2.79,4c-.94,1.37-1.87,2.62-2.78,3.73q-3.13,3.94-4.91,4.33a3.25,3.25,0,0,1-3.3-.9,9.25,9.25,0,0,1-2.05-3.17,8.74,8.74,0,0,1-.67-3A16.93,16.93,0,0,1,277.6,324a22,22,0,0,1,4-6.32q5.09-5.69,11-6.12,3.3-.21,5.74-.14a1.8,1.8,0,0,0,1.85-1.28c1.18-2.91,2.35-5.72,3.49-8.44s2.19-5.15,3.16-7.28Q309.84,287.49,310.26,287.11ZM298.34,314.7c.35-.82.08-1.31-.83-1.45a12,12,0,0,0-2.06,0,9.09,9.09,0,0,0-2.31.62,12.43,12.43,0,0,0-4.31,3.62,32,32,0,0,0-3.95,6,24.86,24.86,0,0,0-2.39,6.37q-.66,3.09.58,4.66c.22.29,1.11-.48,2.68-2.31s3.22-3.89,4.95-6.17q2.24-2.92,4.05-5.41l2.22-3a8.32,8.32,0,0,0,.75-1.42C298,315.58,298.17,315.09,298.34,314.7Z" transform="translate(-114.95 -33.61)"/><path class="cls-9" d="M321.73,287.08a5.3,5.3,0,0,1,2.5.91,6.69,6.69,0,0,1,2.16,2.69,11.84,11.84,0,0,1,.7,6,28.54,28.54,0,0,1-1.85,7.17,40.42,40.42,0,0,1-3.51,7,30.94,30.94,0,0,1-4.46,5.68c-.49.46-.34.69.46.69l2.7.14,2.83.15c2,.15,3.36.68,4.16,1.6s.57,1.36-.7,1.31q-.37,0-2.31.15l-4.5.33q-5.45.46-9.57.72a1.12,1.12,0,0,0-1,.69q-2.47,7-4.87,14.46-2.35,7.2-4,13.39t-2.52,10.58c-.55,3-.68,5-.41,6,.25.87,0,1.26-.76,1.16a8,8,0,0,1-2.66-1,21.28,21.28,0,0,1-2.83-2c-.89-.76-1.34-1.34-1.34-1.75a23.64,23.64,0,0,1,1.24-5.37q1.23-4.07,3.3-9.77c.55-1.49,1.12-3,1.71-4.59s1.2-3.22,1.84-4.92q1.51-4,3.23-8.35t3.53-8.57a.78.78,0,0,0-.29-1c-1-.78-1.23-1.34-.58-1.68a14.06,14.06,0,0,1,1.74-.65c.36-.1.68-.47,1-1.13q2.55-6,5-11.5t4.5-9.65q2-4.11,3.51-6.53C320.62,287.88,321.32,287.08,321.73,287.08ZM322,292a70.75,70.75,0,0,0-4.5,9.17Q314.8,307.36,312,315c-.3.85-.11,1,.58.43a29.34,29.34,0,0,0,4.66-5.24,55.36,55.36,0,0,0,4.54-7.32,34.15,34.15,0,0,0,2.87-7.06q.89-3.31-.35-4.69c-.53-.56-1-.65-1.38-.26A4.71,4.71,0,0,0,322,292Z" transform="translate(-114.95 -33.61)"/><path class="cls-9" d="M344.83,317.94c-.08.37.06.45.42.26,2-.95,4-1.95,5.94-3,.69-.37,1.06-.17,1.11.58,0,.41-.73,1.16-2.19,2.26a32.09,32.09,0,0,1-5.36,3.38,1.17,1.17,0,0,0-.66.73,36.18,36.18,0,0,1-1.94,5.32,25.33,25.33,0,0,1-3.42,5.6,20.36,20.36,0,0,1-5,4.51,12.39,12.39,0,0,1-6.5,2,6.76,6.76,0,0,1-5.57-2.27,10.71,10.71,0,0,1-2.48-6.21,21.07,21.07,0,0,1,1.18-8.55,28,28,0,0,1,5.42-9.32q4.63-5.43,9.74-6.67c3.41-.8,5.52.17,6.31,2.92.14.65.29,1,.46,1a2.43,2.43,0,0,1,.91.33,4.48,4.48,0,0,1,1.48,2.65A14,14,0,0,1,344.83,317.94Zm-18,2.08q-2.43,6.81-1.44,11.1.92,3.75,4,4.22t6.15-2.54a19.17,19.17,0,0,0,5-9.18c.11-.43,0-.62-.37-.54a10.08,10.08,0,0,1-4.12.14,5.44,5.44,0,0,1-3.22-2c-1.43-1.77-1.35-3.78.24-6a12.93,12.93,0,0,1,5.82-4.29.75.75,0,0,0,.58-.77c.08-1.41-.37-2.12-1.36-2.15a6.14,6.14,0,0,0-3.55,1.5,22.93,22.93,0,0,0-4.29,4.27A21.55,21.55,0,0,0,326.8,320Zm14.61-1.57a8.55,8.55,0,0,0-.29-3.42c-.36-.8-.87-1-1.53-.73-2.88,1.41-4.48,3.07-4.78,5s1.7,2.22,6.11.69c.21-.07.35-.3.41-.67A7.32,7.32,0,0,0,341.41,318.45Z" transform="translate(-114.95 -33.61)"/><path class="cls-9" d="M360.22,315.43c.5-.7.33-1.05-.49-1.05-.52,0-1,0-1.55,0s-1.05,0-1.63,0a1.76,1.76,0,0,0-1.2.69,37,37,0,0,0-3,5.19c-1.17,2.32-2.34,4.81-3.53,7.48s-2.24,5.05-3.09,7.15-1.32,3.3-1.4,3.59c-.33.73-.66.6-1-.37a11.16,11.16,0,0,1-.54-2.87,6.11,6.11,0,0,1,.54-3.31q1.19-2.6,2.39-5t2.35-4.68c1.24-2.45,2.5-4.89,3.8-7.31s2.54-4.88,3.75-7.36a42.88,42.88,0,0,0,2-4.88c.33-1,1.11-1,2.34-.05s1.53,1.81.92,2.57a23.42,23.42,0,0,0-1.79,2.73,17.55,17.55,0,0,0-1.75,3.49c-.2.61-.12.91.24.91s1,0,1.88-.11,1.77-.12,2.7-.14a19.89,19.89,0,0,1,3.51.2c1,.15,1.32.54.91,1.14a27.2,27.2,0,0,0-3.1,5.92,57.21,57.21,0,0,0-2.14,6.68,25.06,25.06,0,0,0-.93,5.29c0,1.33.28,1.76,1,1.3a38.72,38.72,0,0,0,5.05-6.05q3-4.18,5.68-7.86c.38-.51.71-.64,1-.4.13.15.16.47.08,1a4.25,4.25,0,0,1-.58,1.11c-.27.4-.45.68-.53.82l-3.2,4.86-3.53,5.37a45.49,45.49,0,0,1-3.09,4.06,14.67,14.67,0,0,1-3.1,2.82q-3.3,2-4.58.13c-.85-1.23-1.16-3.13-.91-5.7a34.47,34.47,0,0,1,2-8.5A38.53,38.53,0,0,1,360.22,315.43Z" transform="translate(-114.95 -33.61)"/><path class="cls-9" d="M399.34,287.11q.71-.62,2.25.48c1,.72,1.42,1.44,1.17,2.14-.13.25-1.23,3-3.28,8.27s-4.17,10.89-6.37,16.89-4.2,11.57-6,16.65-2.74,7.85-2.82,8.28c-.14.85-.9.71-2.27-.44-1.38-1-2.09-2-2.15-2.91a13,13,0,0,1,.73-3.38c.5-1.68,1.19-3.7,2-6.08a.56.56,0,0,0-.08-.66c-.17-.14-.37,0-.62.33l-2.79,4c-.95,1.37-1.88,2.62-2.78,3.73q-3.14,3.94-4.91,4.33a3.26,3.26,0,0,1-3.31-.9,9.37,9.37,0,0,1-2-3.17,8.79,8.79,0,0,1-.68-3,17.07,17.07,0,0,1,1.26-7.69,21.8,21.8,0,0,1,4-6.32q5.08-5.69,11-6.12,3.3-.21,5.73-.14a1.81,1.81,0,0,0,1.86-1.28c1.18-2.91,2.35-5.72,3.49-8.44s2.19-5.15,3.15-7.28Q398.93,287.49,399.34,287.11ZM387.41,314.7c.36-.82.09-1.31-.82-1.45a12,12,0,0,0-2.06,0,9.09,9.09,0,0,0-2.31.62,12.53,12.53,0,0,0-4.32,3.62,32,32,0,0,0-3.94,6,24.86,24.86,0,0,0-2.39,6.37q-.66,3.09.58,4.66c.22.29,1.11-.48,2.68-2.31s3.22-3.89,4.95-6.17q2.22-2.92,4-5.41l2.23-3a7.69,7.69,0,0,0,.74-1.42C387,315.58,387.25,315.09,387.41,314.7Z" transform="translate(-114.95 -33.61)"/><path class="cls-9" d="M400.78,331.12a2.33,2.33,0,0,1,2,1.93,5.8,5.8,0,0,1-.78,3.24,11,11,0,0,1-2.27,3.09q-.66.66-4.06,4t-3.9,3.37c-.77,0-1.31-.49-1.61-1.53q-.21-.76,2.54-4.68c1.83-2.61,2.79-4.28,2.91-5a5.71,5.71,0,0,1,1.6-3.5A3.83,3.83,0,0,1,400.78,331.12Z" transform="translate(-114.95 -33.61)"/><path class="cls-9" d="M430,349.94q-5.44-2.19-7.07-9.05a33.77,33.77,0,0,1-.23-14.28,64.37,64.37,0,0,1,4.72-14.69,69.2,69.2,0,0,1,7-12.29,41.75,41.75,0,0,1,9.57-9.57,26.58,26.58,0,0,1,10-4.62,10.18,10.18,0,0,1,7.91,1.34q3.24,2.24,3.4,8.23a3.3,3.3,0,0,1-.29,1.24,4.13,4.13,0,0,0,.58,2.18q2.67,6.12.62,15.22a69.41,69.41,0,0,1-6.27,17.07c-1,1.8-2.38,4.08-4.23,6.86a39.78,39.78,0,0,1-6.69,7.63,26.65,26.65,0,0,1-8.73,5.19A14.07,14.07,0,0,1,430,349.94Zm2.56-35.78q-5.61,15.06-2.95,22.42c1.78,4.9,4.68,7.42,8.73,7.54s8.56-2.68,13.22-8.25a51.17,51.17,0,0,0,10.09-20.55q1.72-8.88,0-11.88a4.5,4.5,0,0,0-4.81-2.57q-4,.61-7.78,5.17a29.4,29.4,0,0,0-4.88,7.65q-.54,1.41-1.08,1.11a1.38,1.38,0,0,1-.54-1.3,19.14,19.14,0,0,1,1.74-8.61,18.17,18.17,0,0,1,5.41-7.15,14.73,14.73,0,0,1,10-3.38c.71.07,1.1-.22,1.16-.88q.24-5-3-5.13c-2.16-.12-4.76.86-7.78,2.95a48.62,48.62,0,0,0-9.84,9.44A47.1,47.1,0,0,0,432.51,314.16Z" transform="translate(-114.95 -33.61)"/><path class="cls-9" d="M480.66,315.43c.49-.7.33-1.05-.49-1.05-.53,0-1.05,0-1.55,0s-1.05,0-1.63,0a1.74,1.74,0,0,0-1.2.69,37,37,0,0,0-3,5.19q-1.75,3.48-3.53,7.48t-3.1,7.15c-.85,2.1-1.31,3.3-1.4,3.59-.33.73-.66.6-1-.37a12.1,12.1,0,0,1-.54-2.87,6.21,6.21,0,0,1,.54-3.31q1.2-2.6,2.39-5t2.36-4.68q1.86-3.68,3.79-7.31t3.75-7.36a43.31,43.31,0,0,0,2-4.88c.33-1,1.11-1,2.33-.05s1.54,1.81.93,2.57a22.91,22.91,0,0,0-1.8,2.73,18.13,18.13,0,0,0-1.75,3.49c-.19.61-.11.91.25.91s1,0,1.88-.11,1.76-.12,2.7-.14a19.71,19.71,0,0,1,3.5.2c1,.15,1.32.54.91,1.14a27.63,27.63,0,0,0-3.09,5.92,59.28,59.28,0,0,0-2.15,6.68,24.3,24.3,0,0,0-.92,5.29c-.05,1.33.28,1.76,1,1.3a38.72,38.72,0,0,0,5.05-6.05q3-4.18,5.67-7.86c.39-.51.72-.64,1-.4s.17.47.08,1a4.25,4.25,0,0,1-.58,1.11c-.27.4-.45.68-.53.82l-3.2,4.86-3.52,5.37a45.55,45.55,0,0,1-3.1,4.06,14.41,14.41,0,0,1-3.09,2.82q-3.3,2-4.58.13t-.91-5.7a34.47,34.47,0,0,1,2-8.5A38.53,38.53,0,0,1,480.66,315.43Z" transform="translate(-114.95 -33.61)"/><path class="cls-9" d="M493.53,328.9a6.31,6.31,0,0,0,.83,4q2,3,5.94.58a42.54,42.54,0,0,0,5.4-4.88,57.15,57.15,0,0,0,4-4.59q2-2.55,3.45-4.69c.38-.49.69-.51.91-.08s-.1,1.3-.78,2.37q-1.57,2.37-3.68,5.23t-5.53,6.64q-6,6.33-11.47,5.64a5.43,5.43,0,0,1-4.06-2.58c-1-1.53-1.37-3.86-1.1-7a21.19,21.19,0,0,1,2.48-8.25,38.73,38.73,0,0,1,4.62-7.08q5.91-6.94,11.35-6.41c2.69.32,3.92,1.81,3.67,4.48a16.88,16.88,0,0,1-1.57,4.26,27.8,27.8,0,0,1-6.43,8,15.35,15.35,0,0,1-7.31,3.68C493.77,328.29,493.53,328.51,493.53,328.9Zm1.9-8.33a24.13,24.13,0,0,0-1.53,4.55c-.24,1,.15,1.19,1.2.5a37,37,0,0,0,6.64-6.11,39.81,39.81,0,0,0,3-4,12.18,12.18,0,0,0,1.76-3.57c.33-1.43.11-2.19-.64-2.27a4.69,4.69,0,0,0-3,1.22,23.83,23.83,0,0,0-4,3.93A23,23,0,0,0,495.43,320.57Z" transform="translate(-114.95 -33.61)"/><path class="cls-9" d="M534.38,312.19q-1.36,3.46-2.58,7.63c-.82,2.78-1.63,5.66-2.45,8.64s-1.82,6-2.79,9a79.13,79.13,0,0,1-3.32,8.55,51.87,51.87,0,0,1-4.19,7.46,24.22,24.22,0,0,1-5.34,5.72q-6.56,4.8-15.56,3.05a31.72,31.72,0,0,1-6.35-2.4c-2.8-1.31-4.36-2.27-4.66-2.87q-1.15-2.52,2-.88a19.74,19.74,0,0,0,7.29,2,20,20,0,0,0,8.52-1.15,24.94,24.94,0,0,0,8.48-5.5,32.1,32.1,0,0,0,7.08-10.88c.82-2,1.66-4.14,2.51-6.53s1.69-4.79,2.52-7.19a.66.66,0,0,0-.06-.53c-.1-.13-.29,0-.56.34q-1.95,2.52-5.2,7.3t-5.49,4.82q-2.06.08-4.35-2.14a7.37,7.37,0,0,1-2.33-5.39,25.23,25.23,0,0,1,3-12.89,21.48,21.48,0,0,1,7.22-8.19q4.2-2.83,7.76-2.18a5.52,5.52,0,0,1,4.33,3.89c.22.81.47.79.74,0a7.65,7.65,0,0,1,.87-1.82c.27-.34.9-.21,1.87.38S534.63,311.59,534.38,312.19Zm-14.24.33a28.67,28.67,0,0,0-4.64,8.17,38.12,38.12,0,0,0-2.08,8,12.52,12.52,0,0,0,.18,5.37c.43,1.2,1.17,1.25,2.21.16a54.46,54.46,0,0,0,5.24-6.3,72.82,72.82,0,0,0,4.13-6,15.57,15.57,0,0,0,2.35-6.39,7.4,7.4,0,0,0-.66-4.39,2.78,2.78,0,0,0-2.83-1.33C522.82,309.91,521.52,310.82,520.14,312.52Z" transform="translate(-114.95 -33.61)"/><path class="cls-9" d="M557.53,317.94c-.09.37.05.45.41.26,2-.95,4-1.95,5.94-3,.69-.37,1.06-.17,1.11.58,0,.41-.73,1.16-2.19,2.26a32.09,32.09,0,0,1-5.36,3.38,1.17,1.17,0,0,0-.66.73,36.18,36.18,0,0,1-1.94,5.32,25.33,25.33,0,0,1-3.42,5.6,20.22,20.22,0,0,1-5,4.51,12.33,12.33,0,0,1-6.49,2,6.75,6.75,0,0,1-5.57-2.27,10.64,10.64,0,0,1-2.48-6.21,21.07,21.07,0,0,1,1.18-8.55,27.84,27.84,0,0,1,5.43-9.32q4.62-5.43,9.73-6.67t6.32,2.92c.13.65.28,1,.45,1a2.43,2.43,0,0,1,.91.33,4.48,4.48,0,0,1,1.48,2.65A14.56,14.56,0,0,1,557.53,317.94Zm-18,2.08q-2.44,6.81-1.45,11.1c.6,2.5,1.94,3.91,4,4.22s4.12-.55,6.15-2.54a19.17,19.17,0,0,0,5-9.18c.11-.43,0-.62-.37-.54a10.08,10.08,0,0,1-4.12.14,5.44,5.44,0,0,1-3.22-2c-1.43-1.77-1.35-3.78.25-6a12.85,12.85,0,0,1,5.81-4.29.75.75,0,0,0,.58-.77c.08-1.41-.37-2.12-1.37-2.15a6.16,6.16,0,0,0-3.54,1.5,22.64,22.64,0,0,0-4.29,4.27A21.29,21.29,0,0,0,539.5,320Zm14.6-1.57a8.55,8.55,0,0,0-.29-3.42c-.35-.8-.87-1-1.52-.73q-4.34,2.11-4.79,5t6.1.69c.23-.07.36-.3.42-.67A7.32,7.32,0,0,0,554.1,318.45Z" transform="translate(-114.95 -33.61)"/><path class="cls-9" d="M560.25,338.58c-.42.71-1.21.5-2.4-.62a3.89,3.89,0,0,1-1.65-3.49,20,20,0,0,1,1.31-4.59c.78-2.08,1.71-4.33,2.78-6.73s2.12-4.78,3.22-7.14,2-4.29,2.76-5.82c.3-.65,1-.36,2,.89s1.32,2.39.85,3.41c-.33.68-.68,1.46-1,2.34s-.73,1.83-1.12,2.83c-.28.75-.55,1.52-.84,2.33s-.58,1.6-.85,2.4q-.12.33.06.42c.13.06.25,0,.39-.17q1.65-2.4,3.41-4.64c1.17-1.49,2.28-2.86,3.32-4.09,2.69-3.14,4.28-4.74,4.75-4.81,1.15-.24,2.15.42,3,2s1.15,2.61.9,3.14a86.3,86.3,0,0,0-3.91,10.85,51.12,51.12,0,0,0-1.39,6.39,26.54,26.54,0,0,0-.22,6.13c.08,1.46-.05,2.13-.38,2a7.14,7.14,0,0,1-1.52-1,21.63,21.63,0,0,1-2.23-2.11,4.8,4.8,0,0,1-1.28-2c-.63-2.28-.06-5.81,1.74-10.59q1.52-4,4.45-10c.14-.31.15-.51,0-.58s-.28.07-.58.36c-2.08,2.21-4.29,4.77-6.6,7.68q-2.1,2.67-4.08,5.37a31.4,31.4,0,0,0-3.1,5.08,11.84,11.84,0,0,0-.64,1.6c-.15.51-.29,1-.43,1.39C560.58,337.86,560.33,338.44,560.25,338.58Z" transform="translate(-114.95 -33.61)"/><path class="cls-10" d="M230.82,284.56c1.32-2,2.74-1.59,4.27,1.13s1.63,6.21.31,10.49q-1,3.27-2,7.68t-1.92,9.21c-.55,2.64-1.05,5.29-1.51,7.93s-.88,5.15-1.3,7.5c-.08.56,0,.84.25.84s.49-.25.74-.73q3.42-6.41,7.39-14,2.22-4.26,4.41-8.43l4.17-7.91q2.92-5.61,4.87-9.85a57.84,57.84,0,0,1,3.17-6.21c.75-1.19,1.51-1.61,2.3-1.27a4.75,4.75,0,0,1,2.08,2,13,13,0,0,1,1.38,3.33,5.65,5.65,0,0,1,.27,2.58q-1.74,5.61-3.53,12.44t-3.07,14.17a134.34,134.34,0,0,0-1.9,14.89,93.84,93.84,0,0,0-.29,11.51,25.7,25.7,0,0,0,1,6.09c.53,1.59.4,2.38-.37,2.37s-1.72-.76-2.85-2.24a44.91,44.91,0,0,1-3.54-5.55c-1.21-2.2-1.74-4-1.57-5.37q.74-6.69,2-13.09t2.85-12.39q1.51-6,2.86-10.58l2.91-9.81c.25-.85.22-1.34-.08-1.49s-.63.13-1,.84q-1.69,3.27-4.66,8.68t-6.56,12.72Q237.5,321,233,330.52t-7.47,17.42a1.29,1.29,0,0,1-1.34.67,2.13,2.13,0,0,1-1.63-1,7.36,7.36,0,0,1-1.92-2.9,12.18,12.18,0,0,1-.76-2.27,29.12,29.12,0,0,1,.88-6.72q1-5.25,2.95-13Q226.45,312,228,305.93t2.85-11.68c.19-.93-.12-1.28-.95-1.06q-4.2,8.85-8.31,18.15a170.43,170.43,0,0,1-8.61,17,62.57,62.57,0,0,1-9.69,12.89,18.1,18.1,0,0,1-11.47,5.64,10.88,10.88,0,0,1-5.37-.71,9.24,9.24,0,0,1-3.25-2.24,4.32,4.32,0,0,1-1.22-2.34c-.07-.72.14-1.07.64-1a25.38,25.38,0,0,0,18.28-6.44,69.63,69.63,0,0,0,13.41-16.2,143.18,143.18,0,0,0,9.55-18.84A107.76,107.76,0,0,1,230.82,284.56Z" transform="translate(-114.95 -33.61)"/><path class="cls-10" d="M262.42,326.5a6.2,6.2,0,0,0,.83,4q2,3,5.94.58a41.75,41.75,0,0,0,5.4-4.87,57.19,57.19,0,0,0,4-4.59c1.33-1.7,2.48-3.26,3.44-4.7.39-.48.69-.51.91-.07s-.1,1.3-.78,2.37c-1,1.57-2.27,3.32-3.68,5.22a84.17,84.17,0,0,1-5.53,6.64q-6,6.35-11.47,5.65a5.44,5.44,0,0,1-4.06-2.59c-1-1.53-1.37-3.86-1.09-7a21,21,0,0,1,2.47-8.24,38.73,38.73,0,0,1,4.62-7.08q5.91-7,11.35-6.41,4,.48,3.67,4.48a16.88,16.88,0,0,1-1.57,4.26,27.64,27.64,0,0,1-6.43,8,15.32,15.32,0,0,1-7.31,3.67C262.66,325.89,262.42,326.11,262.42,326.5Zm1.9-8.34a24.37,24.37,0,0,0-1.53,4.55q-.36,1.53,1.2.51a37.34,37.34,0,0,0,6.64-6.11,42.81,42.81,0,0,0,3-4,12.62,12.62,0,0,0,1.75-3.57c.33-1.43.12-2.19-.64-2.27a4.7,4.7,0,0,0-3,1.22,23.83,23.83,0,0,0-4,3.93A23.12,23.12,0,0,0,264.32,318.16Z" transform="translate(-114.95 -33.61)"/><path class="cls-10" d="M309.46,284.71c.47-.41,1.22-.26,2.25.47s1.42,1.45,1.17,2.15c-.13.24-1.23,3-3.28,8.26s-4.17,10.9-6.37,16.89-4.2,11.57-6,16.66-2.75,7.84-2.83,8.28c-.14.85-.9.7-2.27-.44s-2.09-2-2.15-2.91a13.13,13.13,0,0,1,.73-3.39q.77-2.51,2-6.08a.55.55,0,0,0-.08-.65c-.17-.15-.38,0-.62.33l-2.79,4c-.95,1.37-1.88,2.62-2.78,3.73-2.09,2.62-3.73,4.07-4.91,4.33a3.25,3.25,0,0,1-3.3-.91,9.06,9.06,0,0,1-2-3.17,8.74,8.74,0,0,1-.68-3,17.11,17.11,0,0,1,1.26-7.7,22.1,22.1,0,0,1,4-6.31q5.09-5.69,11-6.12,3.3-.21,5.73-.14a1.82,1.82,0,0,0,1.86-1.28c1.18-2.91,2.35-5.73,3.49-8.44s2.19-5.15,3.15-7.28Q309,285.07,309.46,284.71ZM297.53,312.3c.36-.82.09-1.31-.82-1.46a12,12,0,0,0-2.06,0,8.69,8.69,0,0,0-2.31.62,12.43,12.43,0,0,0-4.31,3.62,31.44,31.44,0,0,0-3.95,6,25,25,0,0,0-2.39,6.37q-.66,3.1.58,4.66c.22.3,1.11-.48,2.68-2.31s3.22-3.89,4.95-6.17c1.49-1.94,2.83-3.74,4-5.4s2-2.68,2.23-3a8.72,8.72,0,0,0,.75-1.42Z" transform="translate(-114.95 -33.61)"/><path class="cls-10" d="M320.93,284.67a5.44,5.44,0,0,1,2.49.91,6.74,6.74,0,0,1,2.17,2.7,11.93,11.93,0,0,1,.7,6,28.76,28.76,0,0,1-1.85,7.17,42.27,42.27,0,0,1-3.51,7,30.51,30.51,0,0,1-4.46,5.67c-.49.47-.34.7.46.7l2.7.14,2.83.15a5.86,5.86,0,0,1,4.16,1.6c.8.92.56,1.36-.7,1.31q-.37,0-2.31.15l-4.5.32q-5.44.48-9.57.73a1.12,1.12,0,0,0-1,.69q-2.47,7-4.87,14.45-2.36,7.21-4,13.4t-2.52,10.57c-.55,3-.69,5-.41,6s0,1.26-.76,1.17a7.79,7.79,0,0,1-2.66-1,19.82,19.82,0,0,1-2.83-2c-.89-.75-1.34-1.33-1.34-1.74a23.64,23.64,0,0,1,1.24-5.37q1.23-4.06,3.3-9.78l1.71-4.59q.88-2.35,1.83-4.91c1-2.69,2.1-5.48,3.24-8.35s2.32-5.74,3.53-8.58a.79.79,0,0,0-.29-1c-1-.77-1.23-1.33-.58-1.67a13.48,13.48,0,0,1,1.74-.65c.35-.1.68-.48,1-1.13q2.55-6,5-11.51t4.5-9.64q2-4.11,3.5-6.54C319.81,285.48,320.51,284.67,320.93,284.67Zm.29,4.92a69.46,69.46,0,0,0-4.5,9.17Q314,305,311.19,312.59c-.3.85-.11,1,.58.44a29.7,29.7,0,0,0,4.66-5.24,55.36,55.36,0,0,0,4.54-7.32,34.15,34.15,0,0,0,2.87-7.06c.59-2.21.47-3.77-.35-4.7-.53-.56-1-.64-1.39-.25A4.7,4.7,0,0,0,321.22,289.59Z" transform="translate(-114.95 -33.61)"/><path class="cls-10" d="M344,315.54c-.08.37.06.45.42.26q3-1.43,5.94-3c.68-.36,1.06-.17,1.11.59q0,.61-2.19,2.25A31.49,31.49,0,0,1,344,319a1.14,1.14,0,0,0-.66.73,36.52,36.52,0,0,1-1.94,5.31,25.4,25.4,0,0,1-3.42,5.61,20.75,20.75,0,0,1-5,4.51,12.48,12.48,0,0,1-6.5,2,6.77,6.77,0,0,1-5.57-2.28,10.61,10.61,0,0,1-2.48-6.2,21.14,21.14,0,0,1,1.18-8.56,28.17,28.17,0,0,1,5.42-9.32q4.62-5.41,9.74-6.66t6.31,2.91c.14.66.29,1,.46,1a2.32,2.32,0,0,1,.9.33,4.52,4.52,0,0,1,1.49,2.66A14.28,14.28,0,0,1,344,315.54Zm-18,2.07q-2.43,6.81-1.44,11.11c.6,2.5,1.94,3.91,4,4.22s4.11-.56,6.15-2.55a19.17,19.17,0,0,0,5-9.17c.11-.44,0-.62-.37-.55a10.15,10.15,0,0,1-4.13.15,5.46,5.46,0,0,1-3.21-2q-2.14-2.66.24-6a13,13,0,0,1,5.82-4.3.73.73,0,0,0,.58-.76c.08-1.41-.37-2.13-1.36-2.15a6.11,6.11,0,0,0-3.55,1.49,22.43,22.43,0,0,0-4.29,4.28A21.63,21.63,0,0,0,326,317.61Zm14.61-1.56a8.55,8.55,0,0,0-.29-3.42c-.36-.8-.87-1-1.53-.73q-4.34,2.12-4.78,5t6.1.69c.22-.07.36-.3.42-.67A7.32,7.32,0,0,0,340.61,316.05Z" transform="translate(-114.95 -33.61)"/><path class="cls-10" d="M359.42,313c.5-.71.33-1.06-.49-1.06-.53,0-1,0-1.55,0s-1.05,0-1.63,0a1.67,1.67,0,0,0-1.2.69,37,37,0,0,0-3,5.19c-1.17,2.31-2.34,4.81-3.52,7.48s-2.25,5-3.1,7.15-1.32,3.29-1.4,3.58q-.5,1.1-1-.36a11.16,11.16,0,0,1-.54-2.88,6.13,6.13,0,0,1,.54-3.31q1.19-2.58,2.39-5t2.35-4.68c1.24-2.45,2.5-4.89,3.8-7.32s2.54-4.88,3.75-7.35a44.84,44.84,0,0,0,2-4.88c.33-1,1.11-1,2.33-.05s1.54,1.81.93,2.56a24.43,24.43,0,0,0-1.79,2.73,18.33,18.33,0,0,0-1.76,3.5c-.19.6-.11.91.25.91s1,0,1.88-.11,1.77-.12,2.7-.15a20.9,20.9,0,0,1,3.51.2c1,.16,1.32.54.91,1.15a27,27,0,0,0-3.1,5.92,56.48,56.48,0,0,0-2.14,6.67,25.14,25.14,0,0,0-.93,5.3c0,1.32.28,1.76,1,1.29a38.55,38.55,0,0,0,5.05-6q3-4.19,5.68-7.86c.38-.51.71-.65,1-.4s.17.47.09,1a4.25,4.25,0,0,1-.58,1.11c-.27.4-.45.67-.54.82l-3.19,4.86-3.53,5.37a43.74,43.74,0,0,1-3.1,4.06,14.41,14.41,0,0,1-3.09,2.82q-3.3,2-4.58.13c-.85-1.23-1.16-3.13-.91-5.7a34.37,34.37,0,0,1,2-8.5A38.53,38.53,0,0,1,359.42,313Z" transform="translate(-114.95 -33.61)"/><path class="cls-10" d="M398.53,284.71c.47-.41,1.22-.26,2.25.47s1.43,1.45,1.18,2.15c-.14.24-1.23,3-3.28,8.26s-4.17,10.9-6.37,16.89-4.21,11.57-6,16.66-2.74,7.84-2.82,8.28c-.14.85-.9.7-2.27-.44s-2.09-2-2.15-2.91a12.29,12.29,0,0,1,.73-3.39q.75-2.51,2-6.08a.53.53,0,0,0-.09-.65c-.16-.15-.37,0-.61.33l-2.79,4c-.95,1.37-1.88,2.62-2.78,3.73-2.09,2.62-3.73,4.07-4.91,4.33a3.24,3.24,0,0,1-3.3-.91,9.06,9.06,0,0,1-2.05-3.17,8.74,8.74,0,0,1-.68-3,17.11,17.11,0,0,1,1.26-7.7,21.88,21.88,0,0,1,4-6.31q5.07-5.69,11-6.12,3.3-.21,5.73-.14a1.82,1.82,0,0,0,1.86-1.28c1.18-2.91,2.34-5.73,3.49-8.44s2.19-5.15,3.15-7.28Q398.13,285.07,398.53,284.71ZM386.61,312.3c.36-.82.09-1.31-.82-1.46a12.07,12.07,0,0,0-2.07,0,8.89,8.89,0,0,0-2.31.62,12.61,12.61,0,0,0-4.31,3.62,31.87,31.87,0,0,0-3.94,6,25,25,0,0,0-2.39,6.37q-.66,3.1.58,4.66c.22.3,1.11-.48,2.68-2.31s3.22-3.89,5-6.17q2.22-2.91,4-5.4c1.21-1.67,2-2.68,2.23-3a8,8,0,0,0,.74-1.42C386.24,313.18,386.45,312.69,386.61,312.3Z" transform="translate(-114.95 -33.61)"/><path class="cls-10" d="M400,328.72a2.32,2.32,0,0,1,2,1.93,5.8,5.8,0,0,1-.78,3.24A11.32,11.32,0,0,1,399,337l-4.07,4q-3.39,3.33-3.89,3.36c-.78,0-1.31-.48-1.61-1.52q-.21-.76,2.53-4.68t2.91-5a5.77,5.77,0,0,1,1.61-3.49A3.81,3.81,0,0,1,400,328.72Z" transform="translate(-114.95 -33.61)"/><path class="cls-10" d="M429.15,347.54q-5.44-2.19-7.07-9.05a33.81,33.81,0,0,1-.23-14.29,64.29,64.29,0,0,1,4.72-14.68,69.83,69.83,0,0,1,7-12.29,41.59,41.59,0,0,1,9.58-9.57,26.27,26.27,0,0,1,10-4.62,10.11,10.11,0,0,1,7.9,1.34q3.24,2.22,3.41,8.23a3.38,3.38,0,0,1-.29,1.24,4,4,0,0,0,.58,2.18q2.67,6.12.61,15.22a68.9,68.9,0,0,1-6.27,17.07q-1.44,2.69-4.23,6.86a39.39,39.39,0,0,1-6.68,7.63,26.56,26.56,0,0,1-8.73,5.18A14.07,14.07,0,0,1,429.15,347.54Zm2.56-35.78q-5.61,15.06-2.95,22.42t8.72,7.53q6.24.12,13.23-8.24a51,51,0,0,0,10.08-20.55q1.74-8.88,0-11.89a4.48,4.48,0,0,0-4.81-2.56c-2.69.41-5.29,2.14-7.77,5.17a29.55,29.55,0,0,0-4.9,7.64c-.35,1-.71,1.32-1.07,1.11a1.35,1.35,0,0,1-.54-1.29,19,19,0,0,1,1.74-8.61,18.1,18.1,0,0,1,5.41-7.15,14.74,14.74,0,0,1,10-3.39c.71.08,1.1-.21,1.15-.87q.26-4.95-3-5.13t-7.77,2.94a49,49,0,0,0-9.85,9.45A47.31,47.31,0,0,0,431.71,311.76Z" transform="translate(-114.95 -33.61)"/><path class="cls-10" d="M479.86,313c.49-.71.33-1.06-.5-1.06-.52,0-1,0-1.55,0s-1,0-1.62,0a1.67,1.67,0,0,0-1.2.69,37,37,0,0,0-3,5.19c-1.17,2.31-2.35,4.81-3.53,7.48s-2.24,5-3.1,7.15-1.32,3.29-1.4,3.58q-.49,1.1-1-.36a11.16,11.16,0,0,1-.54-2.88,6.22,6.22,0,0,1,.54-3.31q1.2-2.58,2.39-5t2.36-4.68c1.23-2.45,2.5-4.89,3.79-7.32s2.55-4.88,3.76-7.35a47,47,0,0,0,2-4.88c.33-1,1.11-1,2.33-.05s1.53,1.81.92,2.56a24.43,24.43,0,0,0-1.79,2.73,18.14,18.14,0,0,0-1.75,3.5c-.19.6-.11.91.25.91s1,0,1.87-.11,1.77-.12,2.71-.15a20.71,20.71,0,0,1,3.5.2c1,.16,1.33.54.91,1.15a27.4,27.4,0,0,0-3.09,5.92,56.57,56.57,0,0,0-2.15,6.67A25.14,25.14,0,0,0,480,329c0,1.32.29,1.76,1,1.29a38.5,38.5,0,0,0,5.06-6q3-4.19,5.67-7.86c.39-.51.71-.65,1-.4s.16.47.09,1a4.58,4.58,0,0,1-.58,1.11c-.28.4-.46.67-.54.82q-.87,1.31-3.2,4.86T485,329.12a45.49,45.49,0,0,1-3.09,4.06,14.43,14.43,0,0,1-3.1,2.82c-2.19,1.31-3.72,1.35-4.57.13s-1.16-3.13-.91-5.7a34.37,34.37,0,0,1,2-8.5A38.15,38.15,0,0,1,479.86,313Z" transform="translate(-114.95 -33.61)"/><path class="cls-10" d="M492.73,326.5a6.13,6.13,0,0,0,.83,4c1.31,2,3.3,2.21,5.94.58a42.54,42.54,0,0,0,5.41-4.87q2-2,4-4.59c1.33-1.7,2.48-3.26,3.44-4.7.39-.48.69-.51.91-.07s-.1,1.3-.79,2.37c-1,1.57-2.27,3.32-3.67,5.22a84.17,84.17,0,0,1-5.53,6.64q-6,6.35-11.47,5.65a5.49,5.49,0,0,1-4.07-2.59q-1.5-2.29-1.08-7a21,21,0,0,1,2.47-8.24,38.73,38.73,0,0,1,4.62-7.08q5.91-7,11.35-6.41,4.05.48,3.67,4.48a17.27,17.27,0,0,1-1.57,4.26,27.64,27.64,0,0,1-6.43,8,15.32,15.32,0,0,1-7.31,3.67C493,325.89,492.73,326.11,492.73,326.5Zm1.9-8.34a24.37,24.37,0,0,0-1.53,4.55q-.37,1.53,1.2.51a38,38,0,0,0,6.65-6.11,42.52,42.52,0,0,0,3-4,12.42,12.42,0,0,0,1.76-3.57c.33-1.43.11-2.19-.64-2.27a4.7,4.7,0,0,0-3,1.22,24.23,24.23,0,0,0-4,3.93A23.39,23.39,0,0,0,494.63,318.16Z" transform="translate(-114.95 -33.61)"/><path class="cls-10" d="M533.58,309.79q-1.37,3.46-2.58,7.63c-.81,2.77-1.63,5.66-2.46,8.64s-1.81,6-2.78,9a79.31,79.31,0,0,1-3.32,8.56,50.94,50.94,0,0,1-4.19,7.46,24.2,24.2,0,0,1-5.35,5.71q-6.56,4.82-15.55,3.06a31.94,31.94,0,0,1-6.35-2.4c-2.81-1.31-4.36-2.27-4.67-2.88-.77-1.67-.1-2,2-.87a19.55,19.55,0,0,0,7.29,2,19.84,19.84,0,0,0,8.52-1.14,24.81,24.81,0,0,0,8.47-5.5,32.05,32.05,0,0,0,7.08-10.88q1.25-3,2.52-6.54c.85-2.39,1.69-4.78,2.52-7.19a.6.6,0,0,0-.07-.52c-.09-.14-.28,0-.56.34q-1.94,2.52-5.19,7.3c-2.18,3.19-4,4.8-5.49,4.82s-2.82-.66-4.35-2.15a7.29,7.29,0,0,1-2.33-5.38,25.21,25.21,0,0,1,3-12.89,21.33,21.33,0,0,1,7.22-8.19c2.81-1.89,5.39-2.62,7.76-2.18a5.5,5.5,0,0,1,4.33,3.89c.22.8.46.79.74,0a8,8,0,0,1,.86-1.82c.28-.34.91-.22,1.88.38S533.82,309.18,533.58,309.79Zm-14.24.33a28.07,28.07,0,0,0-4.64,8.17,37.89,37.89,0,0,0-2.08,7.95,12.15,12.15,0,0,0,.19,5.37c.42,1.2,1.16,1.26,2.2.17a54.46,54.46,0,0,0,5.24-6.3c1.67-2.23,3-4.24,4.13-6a15.62,15.62,0,0,0,2.35-6.39,7.37,7.37,0,0,0-.67-4.38,2.76,2.76,0,0,0-2.82-1.33C522,307.5,520.72,308.42,519.34,310.12Z" transform="translate(-114.95 -33.61)"/><path class="cls-10" d="M556.72,315.54c-.08.37.06.45.42.26q3-1.43,5.94-3c.68-.36,1.06-.17,1.11.59,0,.41-.73,1.16-2.18,2.25a32.4,32.4,0,0,1-5.37,3.39,1.14,1.14,0,0,0-.66.73A36.52,36.52,0,0,1,554,325a25.4,25.4,0,0,1-3.42,5.61,20.56,20.56,0,0,1-5,4.51,12.48,12.48,0,0,1-6.5,2,6.77,6.77,0,0,1-5.57-2.28,10.61,10.61,0,0,1-2.48-6.2,21.31,21.31,0,0,1,1.18-8.56,28.17,28.17,0,0,1,5.42-9.32q4.62-5.41,9.74-6.66c3.41-.8,5.52.17,6.31,2.91.14.66.29,1,.46,1a2.43,2.43,0,0,1,.91.33A4.56,4.56,0,0,1,556.6,311,14,14,0,0,1,556.72,315.54Zm-18,2.07q-2.44,6.81-1.45,11.11.91,3.75,4,4.22t6.15-2.55a19.17,19.17,0,0,0,5-9.17c.11-.44,0-.62-.37-.55a10.15,10.15,0,0,1-4.13.15,5.42,5.42,0,0,1-3.21-2c-1.44-1.77-1.35-3.77.25-6a12.93,12.93,0,0,1,5.81-4.3.73.73,0,0,0,.58-.76c.08-1.41-.37-2.13-1.36-2.15a6.11,6.11,0,0,0-3.55,1.49,23.35,23.35,0,0,0-4.3,4.28A21.58,21.58,0,0,0,538.7,317.61Zm14.6-1.56a8.55,8.55,0,0,0-.29-3.42c-.36-.8-.87-1-1.53-.73q-4.34,2.12-4.78,5t6.1.69c.23-.07.36-.3.42-.67A7.32,7.32,0,0,0,553.3,316.05Z" transform="translate(-114.95 -33.61)"/><path class="cls-10" d="M559.44,336.18c-.41.7-1.21.5-2.38-.62a3.87,3.87,0,0,1-1.65-3.49,19.2,19.2,0,0,1,1.29-4.59q1.17-3.14,2.79-6.73c1-2.41,2.11-4.78,3.22-7.14s2-4.29,2.76-5.82c.3-.66,1-.36,2,.89s1.31,2.38.85,3.4c-.33.68-.68,1.46-1,2.35s-.74,1.83-1.12,2.82c-.27.75-.56,1.53-.84,2.33s-.58,1.6-.85,2.4c-.09.22-.06.36.06.42s.25,0,.39-.16c1.11-1.6,2.24-3.15,3.41-4.64s2.27-2.86,3.32-4.1q4.05-4.69,4.74-4.8c1.16-.24,2.16.42,3,2s1.15,2.62.9,3.15a85.89,85.89,0,0,0-3.92,10.85,50.31,50.31,0,0,0-1.38,6.39,26.54,26.54,0,0,0-.23,6.13c.09,1.46,0,2.12-.36,2a6.53,6.53,0,0,1-1.53-1,22.77,22.77,0,0,1-2.23-2.11,4.8,4.8,0,0,1-1.28-2q-.95-3.44,1.73-10.6,1.53-4,4.46-10c.13-.32.15-.51,0-.58s-.28.07-.58.36q-3.13,3.31-6.6,7.68-2.1,2.65-4.08,5.37a32.13,32.13,0,0,0-3.1,5.08,10.66,10.66,0,0,0-.64,1.6c-.15.51-.29,1-.43,1.38C559.78,335.45,559.53,336,559.44,336.18Z" transform="translate(-114.95 -33.61)"/><path class="cls-11" d="M259.39,286.31A13,13,0,0,0,258,283a4.75,4.75,0,0,0-2.08-2c-.79-.34-1.55.08-2.3,1.27a57.84,57.84,0,0,0-3.17,6.21q-1.94,4.24-4.87,9.85l-4.17,7.92q-2.19,4.16-4.41,8.42-4,7.58-7.39,14c-.25.49-.49.73-.74.73s-.33-.28-.25-.84q.63-3.53,1.3-7.5c.46-2.64,1-5.29,1.51-7.93q.9-4.81,1.92-9.21t2-7.68q2-6.42-.31-10.49c-1.53-2.72-3-3.09-4.27-1.13a107.76,107.76,0,0,0-7,14.51,142.56,142.56,0,0,1-9.55,18.84,69.63,69.63,0,0,1-13.41,16.2,25.34,25.34,0,0,1-18.28,6.44c-.5,0-.71.32-.64,1a4.32,4.32,0,0,0,1.22,2.34,9.24,9.24,0,0,0,3.25,2.24,10.88,10.88,0,0,0,5.37.71,18.1,18.1,0,0,0,11.47-5.64A62.3,62.3,0,0,0,213,328.35a170.43,170.43,0,0,0,8.61-17q4.09-9.3,8.31-18.15c.83-.22,1.14.13.95,1.06q-1.32,5.56-2.85,11.68t-4.25,16.82q-1.89,7.75-2.95,13a29.72,29.72,0,0,0-.88,6.72,12.18,12.18,0,0,0,.76,2.27,7.36,7.36,0,0,0,1.92,2.9,2.1,2.1,0,0,0,1.63,1,1.29,1.29,0,0,0,1.34-.67q3-7.86,7.47-17.42t8.91-18.44q3.59-7.31,6.56-12.72t4.66-8.68c.36-.71.69-1,1-.84s.33.64.08,1.5q-1.56,5.24-2.91,9.8t-2.86,10.58q-1.58,6-2.85,12.39t-2,13.09c-.17,1.38.36,3.17,1.57,5.37a44.91,44.91,0,0,0,3.54,5.55c1.13,1.48,2.08,2.23,2.85,2.24s.9-.78.37-2.37a25.7,25.7,0,0,1-1-6.09,93.84,93.84,0,0,1,.29-11.51,133.86,133.86,0,0,1,1.9-14.88q1.27-7.36,3.07-14.18t3.53-12.44A5.65,5.65,0,0,0,259.39,286.31Zm32.66,38c.25-.37.45-.48.62-.33a.55.55,0,0,1,.08.65q-1.28,3.57-2,6.09a13,13,0,0,0-.73,3.38c.06.95.77,1.92,2.15,2.91s2.13,1.29,2.27.44q.12-.66,2.83-8.28t6-16.66q3.3-9,6.37-16.89c2-5.26,3.15-8,3.28-8.26.25-.7-.14-1.42-1.17-2.15s-1.78-.88-2.25-.47q-.42.36-3.43,7.32-1.44,3.2-3.15,7.28c-1.14,2.71-2.31,5.53-3.49,8.44a1.82,1.82,0,0,1-1.86,1.28q-2.43-.07-5.73.14-5.94.43-11,6.12a22.1,22.1,0,0,0-4,6.31,16.67,16.67,0,0,0-1,3.3l-1.22,1.31a42.54,42.54,0,0,1-5.41,4.87q-4,2.44-5.94-.58a6.2,6.2,0,0,1-.83-4c0-.39.24-.61.7-.66a15.32,15.32,0,0,0,7.31-3.67,27.64,27.64,0,0,0,6.43-8,16.5,16.5,0,0,0,1.57-4.26q.38-4-3.67-4.48-5.44-.54-11.35,6.41a38.73,38.73,0,0,0-4.62,7.08,21,21,0,0,0-2.47,8.24c-.28,3.13.09,5.46,1.09,7a5.44,5.44,0,0,0,4.06,2.59q5.49.69,11.48-5.65c.93-1,1.77-2,2.56-2.93,0,.38,0,.76,0,1.15a8.79,8.79,0,0,0,.67,3,9.12,9.12,0,0,0,2,3.16,3.25,3.25,0,0,0,3.3.91c1.18-.26,2.82-1.71,4.91-4.33.91-1.11,1.83-2.36,2.78-3.73Zm-29.26-1.57a24.37,24.37,0,0,1,1.53-4.55,23.12,23.12,0,0,1,3.49-5.71,23.83,23.83,0,0,1,4-3.93,4.7,4.7,0,0,1,3-1.22c.76.08,1,.84.64,2.27a12.36,12.36,0,0,1-1.75,3.57,42.81,42.81,0,0,1-3,4,37,37,0,0,1-6.64,6.11Q262.43,324.24,262.79,322.71ZM285,329.79c-1.57,1.83-2.46,2.61-2.68,2.31q-1.25-1.56-.58-4.66a25,25,0,0,1,2.39-6.37,31.44,31.44,0,0,1,3.95-6,12.43,12.43,0,0,1,4.31-3.62,8.69,8.69,0,0,1,2.31-.62,12,12,0,0,1,2.06,0c.91.15,1.18.64.82,1.46l-.61,1.46a8.72,8.72,0,0,1-.75,1.42c-.27.36-1,1.37-2.22,3s-2.56,3.46-4.05,5.4Q287.31,327,285,329.79Zm115.83-44.61c-1-.73-1.78-.88-2.25-.47q-.4.36-3.42,7.32-1.44,3.2-3.15,7.28c-1.15,2.71-2.31,5.53-3.49,8.44a1.82,1.82,0,0,1-1.86,1.28q-2.43-.07-5.73.14-5.94.43-11,6.12a21.88,21.88,0,0,0-4,6.31,16,16,0,0,0-1.07,3.78,34.64,34.64,0,0,1-4.23,4.9c-.69.47-1,0-1-1.29a25,25,0,0,1,.93-5.29,56.62,56.62,0,0,1,2.14-6.68,27,27,0,0,1,3.1-5.92c.41-.61.11-1-.91-1.15a22,22,0,0,0-3.51-.2c-.93,0-1.84.08-2.7.15s-1.49.11-1.88.11-.44-.3-.24-.91a17.29,17.29,0,0,1,1.75-3.49,24,24,0,0,1,1.79-2.74c.61-.75.3-1.6-.93-2.56s-2-.94-2.33.05a42.88,42.88,0,0,1-2,4.88c-1.21,2.47-2.46,4.93-3.75,7.35h0a1.14,1.14,0,0,0-.65.17q-2.94,1.61-5.94,3c-.36.19-.5.11-.42-.26a14,14,0,0,0-.12-4.55,4.52,4.52,0,0,0-1.49-2.66,2.32,2.32,0,0,0-.9-.33c-.17,0-.32-.32-.46-1q-1.2-4.11-6.31-2.91T325,310.77a33.65,33.65,0,0,0-3.14,4.38l-2.24-.12-2.7-.14c-.8,0-.95-.23-.46-.7a30.51,30.51,0,0,0,4.46-5.67,41.51,41.51,0,0,0,3.51-7,28.76,28.76,0,0,0,1.85-7.17,11.82,11.82,0,0,0-.7-6,6.66,6.66,0,0,0-2.17-2.7,5.44,5.44,0,0,0-2.49-.91c-.41,0-1.11.81-2.11,2.42s-2.16,3.8-3.5,6.54-2.88,6-4.5,9.65-3.29,7.49-5,11.5c-.31.65-.64,1-1,1.13a12.79,12.79,0,0,0-1.73.65c-.66.34-.47.9.57,1.67a.79.79,0,0,1,.29,1q-1.82,4.26-3.53,8.58c-1.14,2.87-2.22,5.66-3.24,8.35l-1.83,4.92q-.89,2.36-1.71,4.58-2.07,5.71-3.3,9.78a23.64,23.64,0,0,0-1.24,5.37c0,.41.45,1,1.34,1.74a19.82,19.82,0,0,0,2.83,2,7.79,7.79,0,0,0,2.66,1c.75.09,1-.29.76-1.17s-.14-3,.41-6,1.39-6.49,2.52-10.57,2.43-8.59,4-13.4,3.22-9.76,4.87-14.45a1.12,1.12,0,0,1,1-.69q4.13-.26,9.57-.73l1.08-.07c-.22.53-.43,1.06-.6,1.6a21.14,21.14,0,0,0-1.18,8.56,10.61,10.61,0,0,0,2.48,6.2,6.77,6.77,0,0,0,5.57,2.28,12.39,12.39,0,0,0,6.5-2,20.75,20.75,0,0,0,5-4.51,25.4,25.4,0,0,0,3.42-5.61,36.52,36.52,0,0,0,1.94-5.31A1.17,1.17,0,0,1,344,319a31.49,31.49,0,0,0,5.36-3.39l.28-.21c-.78,1.5-1.58,3-2.34,4.51s-1.55,3.06-2.35,4.68-1.6,3.28-2.39,5a6.15,6.15,0,0,0-.54,3.32,11.16,11.16,0,0,0,.54,2.87q.5,1.46,1,.36c.08-.29.55-1.48,1.4-3.58s1.88-4.48,3.1-7.15,2.35-5.17,3.52-7.48a37,37,0,0,1,3-5.19,1.71,1.71,0,0,1,1.2-.69c.58,0,1.12,0,1.63,0s1,0,1.55,0c.82,0,1,.36.49,1.06a38.53,38.53,0,0,0-4.58,8.9,34.37,34.37,0,0,0-2,8.5c-.25,2.57.06,4.47.91,5.7s2.38,1.18,4.58-.13a14.67,14.67,0,0,0,3.1-2.82,45.49,45.49,0,0,0,3.09-4.06l.07-.11a2.81,2.81,0,0,1,0,.29,8.84,8.84,0,0,0,.68,3,9.12,9.12,0,0,0,2.05,3.16,3.24,3.24,0,0,0,3.3.91c1.18-.26,2.82-1.71,4.91-4.33.9-1.11,1.83-2.36,2.78-3.73l2.79-4c.24-.37.45-.48.61-.33a.53.53,0,0,1,.09.65q-1.29,3.57-2,6.09a12.18,12.18,0,0,0-.73,3.38c.06.95.77,1.92,2.15,2.91s2.13,1.29,2.27.44q.12-.66,2.82-8.28t6-16.66q3.3-9,6.37-16.89c2.05-5.26,3.14-8,3.28-8.26C402.21,286.63,401.81,285.91,400.78,285.18Zm-89,27.85c-.69.56-.88.41-.58-.44q2.81-7.63,5.53-13.83a69.46,69.46,0,0,1,4.5-9.17,4.7,4.7,0,0,1,.88-1.13c.4-.39.86-.31,1.39.25.82.93.94,2.49.35,4.7a34.15,34.15,0,0,1-2.87,7.06,55.36,55.36,0,0,1-4.54,7.32A29.7,29.7,0,0,1,311.77,313Zm27.93,8.19a19.17,19.17,0,0,1-5,9.17q-3.06,3-6.15,2.55c-2.06-.31-3.4-1.72-4-4.22-.64-2.76-.2-6.31,1.29-10.63h.07c1.26.05,1.5-.39.7-1.31l-.2-.2a21.09,21.09,0,0,1,3-5.17,23,23,0,0,1,4.29-4.28,6.11,6.11,0,0,1,3.55-1.49c1,0,1.44.74,1.36,2.15a.73.73,0,0,1-.58.76,13,13,0,0,0-5.82,4.3q-2.39,3.34-.24,6a5.46,5.46,0,0,0,3.21,2,10.15,10.15,0,0,0,4.13-.15C339.69,320.6,339.81,320.78,339.7,321.22Zm.91-5.17a7.32,7.32,0,0,1-.08.86c-.06.37-.2.6-.42.67q-6.6,2.3-6.1-.69c.3-1.92,1.9-3.58,4.78-5,.66-.31,1.17-.07,1.53.73A8.55,8.55,0,0,1,340.61,316.05Zm46-3.75c-.16.39-.37.88-.62,1.46a8,8,0,0,1-.74,1.42c-.27.36-1,1.37-2.23,3s-2.55,3.46-4,5.4q-2.6,3.42-5,6.17c-1.57,1.83-2.46,2.61-2.68,2.31q-1.25-1.56-.58-4.66a25,25,0,0,1,2.39-6.37,31.87,31.87,0,0,1,3.94-6,12.61,12.61,0,0,1,4.31-3.62,8.85,8.85,0,0,1,2.32-.62,12,12,0,0,1,2.06,0C386.7,311,387,311.48,386.61,312.3ZM400,328.72a3.81,3.81,0,0,0-3.55.91,5.77,5.77,0,0,0-1.61,3.49q-.17,1.1-2.91,5t-2.53,4.68c.3,1,.83,1.55,1.61,1.52.33,0,1.62-1.14,3.89-3.36l4.07-4a11.32,11.32,0,0,0,2.27-3.09,5.8,5.8,0,0,0,.78-3.24A2.32,2.32,0,0,0,400,328.72ZM464.72,296a4,4,0,0,1-.58-2.18,3.38,3.38,0,0,0,.29-1.24q-.17-6-3.41-8.23a10.11,10.11,0,0,0-7.9-1.34,26.27,26.27,0,0,0-10,4.62,41.59,41.59,0,0,0-9.58,9.57,69.83,69.83,0,0,0-7,12.29,64.29,64.29,0,0,0-4.72,14.68,33.81,33.81,0,0,0,.23,14.29q1.62,6.87,7.07,9.05a14.07,14.07,0,0,0,10.27.45,26.56,26.56,0,0,0,8.73-5.18,39.39,39.39,0,0,0,6.68-7.63q2.79-4.17,4.23-6.86a68.9,68.9,0,0,0,6.27-17.07Q467.4,302.15,464.72,296Zm-3.93,16.89a51,51,0,0,1-10.08,20.55q-7,8.36-13.23,8.24-6.06-.18-8.72-7.53t2.95-22.42a47.07,47.07,0,0,1,7.73-13.42,49,49,0,0,1,9.85-9.45q4.53-3.12,7.77-2.94t3,5.13c-.05.66-.44.95-1.15.87a14.74,14.74,0,0,0-10,3.39,18.1,18.1,0,0,0-5.41,7.15,18.86,18.86,0,0,0-1.73,8.61c0,.66.17,1.09.53,1.29s.72-.16,1.07-1.11a29,29,0,0,1,4.9-7.64c2.48-3,5.08-4.76,7.77-5.17a4.5,4.5,0,0,1,4.81,2.56Q462.53,304,460.79,312.92ZM532.48,308c-1-.6-1.6-.72-1.88-.38a8,8,0,0,0-.86,1.82c-.28.82-.52.83-.74,0a5.52,5.52,0,0,0-4.33-3.89c-2.37-.44-4.95.29-7.76,2.18a21.33,21.33,0,0,0-7.22,8.19,24.84,24.84,0,0,0-2.67,7.94c-.71.82-1.41,1.6-2.11,2.33a42.54,42.54,0,0,1-5.41,4.87q-4,2.44-5.94-.58a6.13,6.13,0,0,1-.83-4c0-.39.23-.61.7-.66a15.32,15.32,0,0,0,7.31-3.67,27.64,27.64,0,0,0,6.43-8,17.27,17.27,0,0,0,1.57-4.26q.38-4-3.67-4.48-5.44-.54-11.35,6.41a38.73,38.73,0,0,0-4.62,7.08,25,25,0,0,0-1.28,2.89l-1.75,2.44a38.5,38.5,0,0,1-5.06,6c-.68.47-1,0-1-1.29a25,25,0,0,1,.93-5.29,56.71,56.71,0,0,1,2.15-6.68,27.4,27.4,0,0,1,3.09-5.92c.42-.61.11-1-.91-1.15a21.86,21.86,0,0,0-3.51-.2q-1.4,0-2.7.15c-.86.07-1.49.11-1.87.11s-.44-.3-.25-.91a17.85,17.85,0,0,1,1.75-3.49,24,24,0,0,1,1.79-2.74c.61-.75.3-1.6-.92-2.56s-2-.94-2.33.05a47,47,0,0,1-2,4.88c-1.21,2.47-2.47,4.93-3.76,7.35s-2.56,4.87-3.79,7.32c-.77,1.51-1.56,3.06-2.36,4.68s-1.59,3.28-2.39,5a6.24,6.24,0,0,0-.54,3.32,11.16,11.16,0,0,0,.54,2.87q.49,1.46,1,.36c.08-.29.55-1.48,1.4-3.58s1.89-4.48,3.1-7.15,2.36-5.17,3.53-7.48a37,37,0,0,1,3-5.19,1.71,1.71,0,0,1,1.2-.69c.58,0,1.11,0,1.62,0s1,0,1.55,0c.83,0,1,.36.5,1.06a38.15,38.15,0,0,0-4.58,8.9,34.37,34.37,0,0,0-2,8.5q-.37,3.85.91,5.7c.85,1.22,2.38,1.18,4.57-.13a14.67,14.67,0,0,0,3.1-2.82,45.49,45.49,0,0,0,3.09-4.06l1.72-2.61c0,.21-.05.43-.06.64q-.42,4.69,1.08,7a5.48,5.48,0,0,0,4.07,2.59q5.49.69,11.47-5.65c1.31-1.44,2.45-2.77,3.47-4,0,.58,0,1.17,0,1.76a7.29,7.29,0,0,0,2.33,5.38c1.53,1.49,3,2.2,4.35,2.15s3.31-1.63,5.49-4.82,3.9-5.62,5.19-7.3c.28-.36.47-.48.56-.34a.6.6,0,0,1,.07.52c-.83,2.41-1.67,4.8-2.52,7.19s-1.69,4.57-2.52,6.54A32.05,32.05,0,0,1,512.59,349a24.81,24.81,0,0,1-8.47,5.5,19.84,19.84,0,0,1-8.52,1.14,19.55,19.55,0,0,1-7.29-2c-2.08-1.09-2.75-.8-2,.87.31.61,1.86,1.57,4.67,2.88a31.94,31.94,0,0,0,6.35,2.4q9,1.76,15.55-3.06a24.2,24.2,0,0,0,5.35-5.71,51.87,51.87,0,0,0,4.19-7.46,79.31,79.31,0,0,0,3.32-8.56c1-3,1.9-6,2.78-9s1.65-5.86,2.46-8.64,1.67-5.32,2.58-7.63C533.82,309.18,533.46,308.58,532.48,308ZM493.1,322.71a24.37,24.37,0,0,1,1.53-4.55,23.39,23.39,0,0,1,3.48-5.71,24.23,24.23,0,0,1,4-3.93,4.69,4.69,0,0,1,3-1.22c.75.08,1,.84.64,2.27a12.42,12.42,0,0,1-1.76,3.57,41,41,0,0,1-3,4,37.3,37.3,0,0,1-6.64,6.11Q492.73,324.24,493.1,322.71Zm33.63-9.62a15.63,15.63,0,0,1-2.35,6.38c-1.08,1.77-2.46,3.78-4.13,6a54.46,54.46,0,0,1-5.24,6.3c-1,1.09-1.78,1-2.2-.17a12.15,12.15,0,0,1-.19-5.37,37.28,37.28,0,0,1,2.08-7.95,28.07,28.07,0,0,1,4.64-8.17c1.38-1.7,2.67-2.62,3.9-2.75a2.77,2.77,0,0,1,2.82,1.33A7.39,7.39,0,0,1,526.73,313.09Zm52.69-2.41c-.86-1.56-1.86-2.22-3-2q-.69.1-4.74,4.8c-1,1.24-2.15,2.61-3.32,4.1s-2.3,3-3.41,4.64c-.14.17-.27.22-.39.16s-.15-.2-.06-.41c.27-.81.56-1.61.85-2.41s.57-1.58.84-2.33c.38-1,.76-1.93,1.12-2.82s.7-1.67,1-2.35c.46-1,.18-2.15-.85-3.4s-1.7-1.55-2-.89c-.65,1.34-1.44,3-2.37,5h0q-2.94,1.61-5.94,3c-.36.19-.5.11-.42-.26a14,14,0,0,0-.12-4.55,4.56,4.56,0,0,0-1.48-2.66,2.43,2.43,0,0,0-.91-.33c-.17,0-.32-.32-.46-1-.79-2.74-2.9-3.71-6.31-2.91s-6.66,3.05-9.74,6.66a28.17,28.17,0,0,0-5.42,9.32,21.31,21.31,0,0,0-1.18,8.56,10.61,10.61,0,0,0,2.48,6.2,6.76,6.76,0,0,0,5.56,2.28,12.4,12.4,0,0,0,6.51-2,20.75,20.75,0,0,0,5-4.51A25.4,25.4,0,0,0,554,325a36.52,36.52,0,0,0,1.94-5.31,1.17,1.17,0,0,1,.66-.73,32.3,32.3,0,0,0,5.06-3.16c-.75,1.63-1.49,3.25-2.21,4.91q-1.62,3.6-2.79,6.73a19.2,19.2,0,0,0-1.29,4.59,3.88,3.88,0,0,0,1.64,3.49c1.18,1.12,2,1.32,2.39.62.09-.14.34-.73.75-1.75.14-.41.28-.87.43-1.38a10.66,10.66,0,0,1,.64-1.6,32.13,32.13,0,0,1,3.1-5.08q2-2.72,4.08-5.37,3.46-4.37,6.6-7.68c.3-.29.5-.41.58-.36s.09.26,0,.58q-2.94,6-4.46,10-2.68,7.17-1.73,10.6a4.8,4.8,0,0,0,1.28,2,21.69,21.69,0,0,0,2.23,2.11,6.53,6.53,0,0,0,1.53,1c.32.12.45-.54.36-2a26.56,26.56,0,0,1,.23-6.13,50.31,50.31,0,0,1,1.38-6.39,85.89,85.89,0,0,1,3.92-10.85C580.57,313.3,580.26,312.25,579.42,310.68Zm-27,10.54a19.17,19.17,0,0,1-5,9.17q-3.06,3-6.15,2.55t-4-4.22c-.66-2.86-.18-6.57,1.44-11.1a21.77,21.77,0,0,1,3.42-6.21,23,23,0,0,1,4.3-4.28,6.11,6.11,0,0,1,3.55-1.49c1,0,1.44.74,1.36,2.15a.73.73,0,0,1-.58.76,12.93,12.93,0,0,0-5.81,4.3c-1.6,2.23-1.69,4.23-.25,6a5.42,5.42,0,0,0,3.21,2,10.15,10.15,0,0,0,4.13-.15C552.38,320.6,552.5,320.78,552.39,321.22Zm.91-5.17a7.32,7.32,0,0,1-.08.86c-.06.37-.19.6-.42.67q-6.6,2.3-6.1-.69t4.78-5c.66-.31,1.17-.07,1.53.73A8.55,8.55,0,0,1,553.3,316.05Z" transform="translate(-114.95 -33.61)"/></svg>