<?xml version="1.0" encoding="utf-8"?>
<!-- Generator: Adobe Illustrator 25.2.3, SVG Export Plug-In . SVG Version: 6.00 Build 0)  -->
<svg version="1.1" id="Layer_1" xmlns="http://www.w3.org/2000/svg" xmlns:xlink="http://www.w3.org/1999/xlink" x="0px" y="0px"
	 viewBox="0 0 541.4 336.8" style="enable-background:new 0 0 541.4 336.8;" xml:space="preserve">
<style type="text/css">
	.st0{fill:#FFF200;}
	.st1{fill:#231F20;stroke:#231F20;stroke-width:3.19;}
	.st2{fill:#008DD2;stroke:#231F20;stroke-width:3.11;}
	.st3{fill:#231F20;stroke:#231F20;stroke-width:7.3;}
	.st4{fill:url(#SVGID_1_);stroke:#231F20;stroke-width:9.55;}
	.st5{fill:url(#SVGID_2_);stroke:#ED1C24;stroke-width:3.93;}
	.st6{fill:#231F20;stroke:#231F20;stroke-width:4.86;}
	.st7{fill:#ED1C24;}
	.st8{fill:#231F20;stroke:#231F20;stroke-width:4.81;}
	.st9{display:none;fill:#231F20;stroke:#231F20;stroke-width:4.81;}
	.st10{fill:#FFF200;stroke:#231F20;stroke-width:4.81;}
	.st11{fill:#FFF200;stroke:#ED1C24;stroke-width:0.8;}
</style>
<polyline class="st0" points="202.6,194.5 88.5,204.3 202.2,190.1 87.7,192.7 202,185.7 87.6,181.1 202.1,181.2 88.2,169.5 
	202.5,176.8 89.5,157.9 203.1,172.4 91.6,146.5 204,168.1 94.3,135.2 205.2,163.9 97.8,124.1 206.7,159.7 102,113.3 208.4,155.6 
	106.8,102.7 210.4,151.6 112.3,92.4 212.6,147.8 118.4,82.6 215,144.1 125.1,73.1 217.7,140.6 132.5,64.1 220.6,137.2 140.3,55.5 
	223.7,134.1 148.7,47.5 227,131.1 157.6,40 230.4,128.3 166.9,33 234.1,125.8 176.7,26.7 237.9,123.5 186.8,21 241.8,121.5 
	197.2,15.9 245.9,119.7 208,11.6 250,118.1 219,7.9 254.2,116.8 230.2,4.8 258.5,115.8 241.6,2.5 262.9,115.1 253.1,1 267.3,114.6 
	264.7,0.1 271.8,114.4 276.4,0 276.2,114.5 288,0.6 280.6,114.9 299.5,1.9 285,115.6 310.9,4 289.3,116.5 322.2,6.8 293.6,117.7 
	333.3,10.2 297.8,119.1 344.2,14.4 301.8,120.8 354.7,19.2 305.8,122.8 365,24.7 309.6,125 374.8,30.9 313.3,127.5 384.3,37.6 
	316.9,130.1 393.4,44.9 320.2,133 401.9,52.8 323.4,136.1 409.9,61.2 326.3,139.4 417.5,70 329.1,142.9 424.4,79.4 331.6,146.5 
	430.7,89.1 333.9,150.3 436.4,99.2 336,154.2 441.5,109.7 337.8,158.3 445.9,120.4 339.3,162.4 449.6,131.5 340.6,166.7 
	452.6,142.7 341.6,171 454.9,154.1 342.3,175.4 456.4,165.6 342.8,179.8 457.3,177.2 343,184.2 457.4,188.8 342.9,188.6 
	456.8,200.4 342.5,193 "/>
<path class="st1" d="M91.9,212.2c-11.2-7.4-17.3-15.4-17.1-23.8c0.7-34.2,105.4-61.1,233.8-60.1s231.8,29.6,231.1,63.8
	c-0.6,29.5-78.8,53.6-182.8,59h0.2c0,0-25.2,0.8-26.2,14.8c-0.1,1.2,0.2,2.4,0.6,3.5l1.5,2.7c0.8,1.7,1.2,3.6,1.2,5.5
	c-0.5,24.5-75.4,43.7-167.2,43S1.1,299.4,1.6,274.9c0.3-15.9,32.1-29.6,79.5-37l0.4-0.1c10.8-1.8,18.7-7.4,18.9-14.3
	c0.1-3.5-2-6.8-5.4-9.4L91.9,212.2z"/>
<path class="st2" d="M94.8,209.9c-10.9-7.2-16.8-15-16.6-23.2c0.7-33.3,102.4-59.5,227.2-58.5S530.8,157,530,190.3
	c-0.6,28.8-76.6,52.2-177.7,57.5h0.2c0,0-24.5,0.8-25.5,14.4c0,1.2,0.2,2.3,0.6,3.4l1.5,2.6c0.8,1.7,1.2,3.5,1.1,5.4
	c-0.5,23.8-73.3,42.6-162.6,41.8S6.5,294.8,7.1,271c0.3-15.5,31.2-28.8,77.3-36.1l0.4-0.1c10.4-1.7,18.2-7.2,18.3-13.9
	c0.1-3.4-1.9-6.6-5.2-9.1L94.8,209.9z"/>
<path class="st3" d="M182.5,55.4c0.6-6.7-1.5-11.6-6.3-14.8c-4.8-3.2-12.6-4.4-23.5-3.6c-9.9,1-19.7,3.5-28.9,7.2
	c-9.8,3.9-19.3,8.7-28.3,14.3c-10.2,6.2-19.8,13.3-28.8,21.1c-8.9,7.7-15.5,14.8-19.9,21.3c-11,17.7-1.4,30,29,36.8
	c11.3,2.6,20.7,5,28.2,7.2c5.3,1.4,10.5,3.2,15.5,5.3c4.6,2.2,7,5.2,7.3,8.9c0.3,3.7-3.3,8.1-10.7,13.2c-7.6,5.1-17.2,9-28.7,11.7
	c-11.5,2.8-21.6,1.9-30.3-2.5c-3.4-1.7-7.9-4.1-13.6-7.4c-5-3.1-10.5-5.1-16.3-6.1c-5.2-0.8-10.5-0.6-15.6,0.7
	c-4.8,1.3-3.3,2.5,4.7,3.7c7,1.5,13.6,4.6,19.2,8.9c5.5,4.2,11.3,8,17.5,11.2c10.7,5.1,25.2,6.2,43.5,3.2
	c18.3-3,33.7-10.2,46.4-21.9c8.4-9.3,9.6-16.9,3.6-22.8c-5.9-5.9-20.9-11.7-44.9-17.5c-12.8-2.9-22.3-5.8-28.4-8.6
	c-6.3-3.9-7.8-9.1-4.6-15.6c3.1-6.4,8.1-13.3,15-20.7c7-7.5,14.6-14.5,22.7-20.9c17.3-13.5,31.2-21.2,41.7-23.1
	c7.3-1.5,12.6-1.2,16.1,0.8c3,2.3,3.2,5.8,0.5,10.7c-5.8,10.8-12.4,21.2-19.8,31c-7.7,10.2-11.8,17.6-12.3,22.1
	c-0.2,4.7,2.6,8.4,8.3,11.1c5.5,2.9,8.8,2.4,9.7-1.5c2.5-6.7,5.5-13.3,9-19.6c3.1-5.5,7.6-12.9,13.5-22S182.1,60.9,182.5,55.4z
	 M300.5,99.5c-2.7-3.5-5.8-4.8-9.5-3.9c-1.5,0.3-6.4,4.5-14.9,12.5c-3.3,3.2-6.8,6.6-10.4,10.4c-3.7,3.8-7.2,7.7-10.7,11.8
	c-0.3,0.4-0.8,0.6-1.2,0.5c-0.4-0.1-0.5-0.4-0.2-1c0.9-1.9,1.7-3.9,2.6-5.9c0.9-2,1.8-3.8,2.7-5.6c1.2-2.4,2.4-4.7,3.5-6.9
	s2.2-4.1,3.2-5.8c1.5-2.5,0.6-5.1-2.7-7.8s-5.3-3.2-6.3-1.6c-2.3,3.8-5.2,8.6-8.7,14.4c-2.7,4.7-5.4,9.3-8.1,14
	c-2.3,2.6-4.9,5.7-7.9,9.2c-7.8,9.2-13.1,14.8-16,16.9c-2.2,1.6-3.2,1.5-3.2-0.3c0.3-5,1.9-11.3,4.6-18.8c1.6-5,3.7-9.9,6.5-14.4
	c2.1-3.2,1.7-6.4-1.3-9.3s-5.8-2.5-8.3,1.5c-1.5,2.2-2.9,4.6-4.1,7c-1.5,2.9-2.8,5.2-3.8,6.9c-1.5,2.2-3.2,4.9-5.3,8.1
	s-4.4,6.4-6.9,9.8c-2.6,3.5-5.3,6.8-8.3,9.9c-2.5,2.8-5.2,5.4-8,7.9c-3.5,2.8-5.6,2.8-6.4-0.1c-0.8-2.9-0.6-7.1,0.6-12.5
	c1.3-5.8,3.2-11.4,5.5-16.9c1.9-5,4.4-9.7,7.2-14.2c2.1-3.3,1.3-6-2.2-8.1c-3.7-2-6.5-1.1-8.4,2.7c-2.8,4.5-5,8.2-6.7,11.1
	s-3.5,6.1-5.5,9.6c-2,3.7-3.9,7.5-5.5,11.4c-1.3,3.2-2.4,6.6-3.3,9.9c-1.1,4.5-0.3,9.2,2.2,13c2.7,4.2,7.3,6.6,13.9,7.2
	c1.4,0.2,3.1-0.6,5.2-2.5c2.7-2.5,5.3-5.1,7.8-7.8c2.2-2.6,4.5-5.1,6.7-7.6l5.2-5.9c0.8-0.9,1.3-1.3,1.5-1.2s0.2,0.8-0.1,2
	c-1.1,6.4-0.4,11.6,2,15.6c2.4,4.7,6.5,4.8,12.2,0.3c5.3-4.2,11.5-10.5,18.5-18.8c-2,4.3-3.1,7.5-3.3,9.5c-0.5,3,1.2,5.5,5.2,7.8
	c3.7,2.3,6.2,2.6,7.5,0.9c0.3-0.4,1-1.8,2.3-4.3c0.4-1,0.9-2.1,1.4-3.4c0.5-1.4,1.2-2.7,2-3.9c2.8-4.5,6.1-8.8,9.7-12.7
	c4.1-4.5,8.4-9.1,12.9-13.6c7.3-7.4,14.2-14,20.7-19.7c1-0.8,1.6-1.1,1.8-1s0.3,0.6-0.1,1.4c-6.1,9.8-10.8,18-14,24.5
	c-5.6,11.7-7.4,20.1-5.4,25.3c0.4,1.2,1.7,2.7,4,4.4c2.2,1.6,4.6,3.1,7,4.4c1.5,0.8,3.1,1.5,4.8,1.9c1,0.2,1.4-1.4,1.2-4.8
	c-0.5-4.8-0.3-9.7,0.7-14.5c1-5.2,2.5-10.4,4.3-15.3c3.4-9.1,7.5-18,12.3-26.4C304.1,105.4,303.2,103,300.5,99.5L300.5,99.5z
	 M396.9,95c3.4-0.3,6.9-2.7,10.6-7.2c1.2-1.4,1.8-3.2,1.8-5c-0.1-1.6-1.5-2.5-4-2.8c-4.8-0.3-8.3,2-10.5,7.2
	C392.7,92.8,393.4,95.4,396.9,95L396.9,95z M537.6,94.9c-0.7-1-1.6-0.8-2.8,0.4c-3,3.6-6.6,7.6-10.8,11.9s-8.4,8.3-12.5,11.8
	c-5.3,4.7-11,9-17,12.8c-8.3,4.5-14.5,4.5-18.7,0.1c-2.1-2.1-3-5.1-2.6-9.2c0-0.9,0.7-1.5,2.2-1.7c7.3-1.4,14.9-4.9,23-10.5
	c7.9-5.6,14.7-12.5,20.2-20.4c2.2-3.2,3.8-6.7,4.9-10.4c0.8-6.3-3.1-9.5-11.6-9.6c-11.4,0.1-23.3,6-35.6,17.9
	c-5.5,5.4-10.3,11.3-14.5,17.8c-2.3,3.4-4.2,7.1-5.7,11c-4.1,0.1-8.2,0.4-12.2,1c-0.7,0.1-1.3-0.3-1.7-0.8c-1.6-1.8-3.1-3.7-4.5-5.7
	c-1.3-1.9-2.5-3.9-3.4-6c-1.3-2.9-0.7-6.8,1.9-11.5c1.7-3.4,5-6.9,9.9-10.7c4.9-3.7,10.1-7.1,15.6-10c2.4-1.2,3.6-2.1,3.5-2.8
	c-0.4-1-2.2-1.4-5.5-0.9C444,72.1,429.8,80.1,419.3,92c-4.4,5.3-4.5,10.6-0.2,15.7l-8.1,8.1c-4.7,4.8-8.4,8.5-11,11.2
	s-5.1,5.2-7.5,7.6c-2.4,2.4-4.2,4.1-5.5,5.2c-1.7,1.6-2.5,1.2-2.3-0.9c0.2-3.1,0.8-6.1,1.8-9.1c1.4-4.5,3-8.9,4.9-13.2
	c2.1-5,3.6-8.2,4.4-9.6c2-3.5,1.8-6.2-0.5-8.1c-2.3-1.9-4.2-1.8-5.6,0.2c-1.1,1.6-2.9,4.1-5.4,7.7c-1.5,2.2-2.9,4.5-4.3,6.8
	c-3.4,3.8-7,7.8-10.7,12c-6.3,7.1-11.5,12.2-15.9,15.5c-2.2,1.3-3.2,0.3-3.1-2.8s1.1-7.3,2.9-12.7c1.8-5.6,4.1-11,6.7-16.2
	c2.6-5.3,5.8-10.2,9.7-14.7c1.3-1.5,0.3-2.3-2.8-2.5c-3.7-0.1-7.3,0-11,0.4c-2.9,0.3-5.8,0.6-8.5,1c-2.7,0.4-4.7,0.6-5.9,0.7
	c-1.2,0.1-1.4-0.6-0.8-2.1c0.8-1.9,2.6-4.8,5.5-8.7c1.7-2.4,3.6-4.7,5.6-6.9c1.9-1.9,0.9-3.8-2.9-5.8c-3.9-2-6.3-1.7-7.3,0.7
	c-1.9,4.1-4,8.1-6.3,12c-3.8,6.1-7.7,12.2-11.8,18.2c-4,6-8,12.1-12,18.2c-2.4,3.7-4.9,7.6-7.4,11.6c-2.5,4-5,8.1-7.5,12.4
	c-1.5,2.4-2.1,5.2-1.7,7.9c0.2,2.3,0.8,4.5,1.7,6.6c1,2.2,2.1,2.4,3.1,0.6c0.3-0.7,1.7-3.6,4.4-8.8c2.7-5.2,5.9-11,9.7-17.6
	c3.7-6.6,7.4-12.7,11-18.4c2.8-4.6,6-8.9,9.5-12.9c1-1,2.3-1.7,3.8-1.9c1.8-0.1,3.5-0.3,5.1-0.5c1.6-0.2,3.2-0.4,4.9-0.5
	c2.6-0.2,3.1,0.6,1.6,2.4c-5.8,6.6-10.6,14.1-14.4,22.1c-3.4,7.5-5.5,14.4-6.2,20.4s0.3,10.5,3,13.1c2.7,2.7,7.5,2.2,14.4-1.5
	c3.5-2.1,6.8-4.5,9.7-7.4c3.4-3.3,6.7-6.7,9.7-10.3l5.9-7.1c-0.1,0.2-0.2,0.4-0.2,0.6c-1.3,3.5-1.8,7.2-1.5,10.9
	c0.3,3.8,2.2,7.3,5.1,9.8c2.8,2.4,5.2,3,7.3,1.5c2.8-1.9,5.3-4.1,7.6-6.6c1.3-1.4,2.7-2.9,4.1-4.5c0,0,0,0.1,0,0.1
	c-1.2,4,0.8,7,6.1,8.9c3.9,1.3,8.6,1.6,14.2,0.9c5.6-0.7,10.9-2.4,15.9-5c6.1-3.2,10.5-6.9,13.3-11.2c2.8-4.3,3.4-8.5,1.7-12.5
	c-0.2-0.5,0.1-0.9,0.8-1.2c1.5-0.4,3.8-0.8,6.9-1.3l1.8-0.3c-0.4,1.7-0.7,3.4-0.9,5.2c-0.8,7.4,0.3,12.8,3.5,16.1
	c3.2,3.3,7.4,5,12.8,5c11.5,0.2,23.5-5.2,36-16.1c7.2-6.5,12.9-12.2,17.3-17c4.4-4.8,8.2-9.2,11.5-13.2
	C537.3,98,538.1,96.1,537.6,94.9L537.6,94.9z M474.3,113.8c1.1-3.8,2.7-7.5,4.7-11c2.9-5.3,6.6-10.1,11-14.3
	c3.8-3.8,8-7.3,12.5-10.2c3.9-2.4,7-3.6,9.4-3.6c2.4,0,3.1,1.7,2,5.2c-1.3,3.2-3.2,6.2-5.5,8.8c-3,3.5-6.2,6.9-9.5,10.1
	c-8,7.3-15,12.7-20.9,16C474.8,116.5,473.5,116.3,474.3,113.8L474.3,113.8z M410.3,123.5c5-5.6,8.5-9.6,10.5-12
	c0.3-0.4,0.5-0.7,0.8-1l4.6,4.9c1.2,1.2,2.3,2.6,3.3,4c0.3,0.6,0.1,1-0.7,1.2c-10,2.5-18,5.7-24,9.6c-0.5,0.3-1,0.7-1.5,1
	C405.4,129.1,407.7,126.5,410.3,123.5L410.3,123.5z M427.6,134.4c-3,2.7-6.3,5-9.8,6.9c-3.4,1.7-6.9,3-10.6,3.9
	c-3.3,0.8-5.6,0.6-6.7-0.4c-1-2,0.4-4.4,4.3-7.3c4.2-3.1,8.9-5.5,13.8-7.4c3.8-1.5,7.7-2.8,11.7-3.8c1.1-0.3,1.7-0.1,1.7,0.6
	C431.9,129.4,430.5,131.9,427.6,134.4L427.6,134.4z"/>
<linearGradient id="SVGID_1_" gradientUnits="userSpaceOnUse" x1="391.222" y1="127.7305" x2="377.834" y2="280.6977" gradientTransform="matrix(1 0 0 -1 -114.95 304.39)">
	<stop  offset="0" style="stop-color:#ED1C24"/>
	<stop  offset="5.000000e-02" style="stop-color:#EF391F"/>
	<stop  offset="0.12" style="stop-color:#F36418"/>
	<stop  offset="0.21" style="stop-color:#F68B11"/>
	<stop  offset="0.29" style="stop-color:#F9AB0C"/>
	<stop  offset="0.39" style="stop-color:#FBC508"/>
	<stop  offset="0.49" style="stop-color:#FDD904"/>
	<stop  offset="0.61" style="stop-color:#FEE702"/>
	<stop  offset="0.76" style="stop-color:#FFEF00"/>
	<stop  offset="1" style="stop-color:#FFF200"/>
</linearGradient>
<path class="st4" d="M181.3,51.8c0.6-6.7-1.5-11.6-6.3-14.8s-12.6-4.4-23.5-3.6c-9.9,1-19.7,3.4-28.9,7.2
	c-9.8,3.9-19.3,8.6-28.3,14.3c-10.2,6.2-19.8,13.3-28.8,21.1C56.6,83.8,50,90.9,45.6,97.4c-11,17.7-1.4,30,29,36.8
	c11.3,2.6,20.7,5,28.2,7.2c5.3,1.4,10.5,3.2,15.5,5.3c4.6,2.2,7,5.2,7.3,8.9c0.3,3.7-3.3,8.1-10.7,13.2c-7.6,5.1-17.2,9-28.7,11.7
	c-11.5,2.7-21.6,1.9-30.3-2.5c-3.4-1.7-7.9-4.2-13.6-7.4c-5-3.1-10.5-5.1-16.3-6.1c-5.2-0.8-10.5-0.6-15.6,0.7
	c-4.8,1.3-3.3,2.5,4.7,3.7c7,1.5,13.6,4.6,19.2,8.9c5.5,4.2,11.3,7.9,17.4,11.2c10.7,5.1,25.2,6.2,43.5,3.2s33.7-10.2,46.4-21.9
	c8.4-9.3,9.6-16.9,3.6-22.8c-5.9-5.9-20.9-11.7-44.9-17.5c-12.8-2.9-22.3-5.7-28.4-8.5c-6.3-3.9-7.8-9.1-4.6-15.6
	c3.1-6.4,8.1-13.3,15-20.7c7-7.5,14.6-14.5,22.6-20.9c17.3-13.5,31.2-21.2,41.7-23.1c7.3-1.5,12.6-1.2,16.1,0.8
	c3,2.3,3.2,5.8,0.5,10.7c-5.8,10.8-12.4,21.2-19.8,31c-7.7,10.2-11.8,17.6-12.3,22.1c-0.2,4.8,2.6,8.5,8.3,11.1
	c5.5,2.9,8.8,2.4,9.7-1.5c2.5-6.7,5.5-13.3,9-19.6c3.1-5.5,7.6-12.9,13.5-22S180.9,57.3,181.3,51.8z M299.3,95.9
	c-2.7-3.5-5.8-4.8-9.5-3.9c-1.5,0.3-6.4,4.4-14.9,12.5c-3.3,3.2-6.8,6.7-10.4,10.5s-7.2,7.7-10.7,11.8c-0.3,0.4-0.8,0.6-1.2,0.5
	c-0.4-0.1-0.5-0.4-0.2-1c0.9-1.9,1.7-3.9,2.6-5.9c0.9-2,1.8-3.9,2.6-5.7c1.2-2.4,2.4-4.7,3.5-6.9s2.2-4.1,3.2-5.8
	c1.5-2.5,0.6-5.1-2.7-7.8c-3.2-2.7-5.3-3.2-6.3-1.6c-2.3,3.8-5.2,8.6-8.7,14.4c-2.7,4.6-5.4,9.3-8.1,14c-2.3,2.7-4.9,5.8-7.9,9.3
	c-7.8,9.2-13.1,14.9-15.9,16.9c-2.2,1.6-3.2,1.5-3.2-0.3c0.3-5,1.9-11.3,4.6-18.8c1.6-5,3.7-9.9,6.5-14.4c2.2-3.2,1.7-6.4-1.3-9.3
	s-5.8-2.5-8.3,1.5c-1.5,2.2-2.9,4.6-4.1,7c-1.5,2.9-2.8,5.2-3.8,6.8l-5.3,8.1c-2.1,3.2-4.4,6.4-6.9,9.8c-2.6,3.5-5.3,6.8-8.3,9.9
	c-2.5,2.8-5.2,5.4-8,7.9c-3.5,2.9-5.6,2.8-6.4-0.1s-0.6-7.1,0.5-12.5c1.3-5.8,3.2-11.4,5.5-16.9c1.9-5,4.4-9.7,7.2-14.2
	c2.1-3.3,1.3-6-2.2-8.1c-3.7-2-6.5-1.1-8.4,2.7c-2.8,4.5-5,8.2-6.7,11.1c-1.7,2.9-3.5,6.1-5.5,9.6c-2,3.7-3.9,7.5-5.5,11.4
	c-1.3,3.2-2.4,6.5-3.3,9.9c-1.1,4.5-0.3,9.2,2.2,13c2.7,4.2,7.3,6.6,13.9,7.2c1.4,0.2,3.1-0.6,5.2-2.5c2.7-2.5,5.3-5.1,7.8-7.8
	c2.2-2.6,4.5-5.1,6.7-7.6c2.2-2.5,4-4.5,5.2-5.9c0.8-0.9,1.3-1.3,1.5-1.2s0.2,0.8-0.1,2c-1.1,6.4-0.4,11.6,2,15.6
	c2.4,4.7,6.5,4.8,12.2,0.3c5.3-4.2,11.5-10.5,18.5-18.8c-2,4.3-3.1,7.4-3.3,9.5c-0.5,3,1.2,5.5,5.2,7.8c3.7,2.3,6.2,2.6,7.5,0.8
	c0.3-0.4,1-1.8,2.3-4.3c0.4-1,0.9-2.1,1.4-3.4c0.5-1.4,1.2-2.7,2-3.9c2.8-4.5,6.1-8.8,9.7-12.7c4.1-4.6,8.4-9.1,12.8-13.6
	c7.3-7.4,14.2-14,20.7-19.7c1-0.8,1.5-1.1,1.8-1s0.3,0.6-0.1,1.4c-6.1,9.8-10.8,18-14,24.6c-5.6,11.7-7.4,20.1-5.4,25.3
	c0.3,1.2,1.7,2.7,4,4.4c2.2,1.6,4.6,3.1,7,4.4c1.5,0.8,3.1,1.5,4.8,1.9c1,0.2,1.4-1.4,1.2-4.8c-0.5-4.8-0.3-9.7,0.7-14.4
	c1-5.2,2.5-10.4,4.3-15.4c3.4-9.1,7.5-18,12.3-26.5C302.9,101.8,301.9,99.4,299.3,95.9L299.3,95.9z M395.7,91.5
	c3.4-0.3,6.9-2.7,10.6-7.2c1.2-1.4,1.8-3.2,1.7-5c-0.1-1.6-1.5-2.5-4-2.8c-4.8-0.4-8.3,2-10.5,7.2C391.5,89.1,392.2,91.7,395.7,91.5
	L395.7,91.5z M536.4,91.3c-0.7-1-1.7-0.8-2.8,0.4c-3,3.6-6.6,7.6-10.8,11.9s-8.4,8.2-12.5,11.8c-5.3,4.7-11,9-17,12.8
	c-8.3,4.5-14.5,4.5-18.7,0.1c-2.1-2.1-3-5.1-2.6-9.2c0-0.9,0.7-1.5,2.2-1.7c7.3-1.4,14.9-4.9,22.9-10.5c7.9-5.6,14.7-12.5,20.2-20.4
	c2.2-3.2,3.8-6.7,4.9-10.4c0.8-6.3-3.1-9.5-11.6-9.6c-11.4,0.1-23.3,6-35.7,17.9c-5.5,5.4-10.3,11.3-14.5,17.8
	c-2.3,3.4-4.2,7.1-5.7,11c-4.1,0.1-8.2,0.4-12.2,1c-0.7,0.1-1.3-0.2-1.7-0.8c-1.6-1.8-3.1-3.7-4.6-5.7c-1.3-1.9-2.5-3.9-3.4-6
	c-1.3-2.9-0.7-6.7,1.9-11.5c1.7-3.4,5-6.9,9.9-10.7c4.9-3.8,10.1-7.1,15.6-10c2.4-1.2,3.6-2.1,3.5-2.8c-0.4-1-2.2-1.3-5.5-0.9
	c-3.8,0.7-7.6,1.7-11.3,3C435.2,73,425.5,79.6,418,88.5c-4.4,5.3-4.5,10.6-0.2,15.7l-8,8.2c-4.7,4.8-8.4,8.5-11,11.2
	c-2.6,2.7-5.1,5.2-7.5,7.6c-2.4,2.4-4.2,4.1-5.5,5.2c-1.7,1.6-2.5,1.3-2.3-0.9c0.2-3.1,0.8-6.1,1.8-9.1c1.4-4.5,3-8.9,4.9-13.2
	c2.2-5,3.6-8.2,4.4-9.6c2-3.5,1.8-6.2-0.5-8.1c-2.3-1.9-4.2-1.8-5.6,0.2c-1.1,1.6-2.9,4.1-5.4,7.7c-1.5,2.2-2.9,4.5-4.3,6.8
	c-3.5,3.8-7,7.8-10.7,12c-6.3,7.1-11.5,12.2-15.9,15.5c-2.2,1.3-3.2,0.3-3.1-2.8c0.1-3.1,1.1-7.4,2.9-12.7c1.8-5.6,4.1-11,6.7-16.2
	c2.6-5.3,5.8-10.2,9.7-14.6c1.3-1.5,0.3-2.3-2.9-2.4c-3.7-0.1-7.3,0-11,0.4c-2.9,0.3-5.8,0.6-8.5,1c-2.7,0.4-4.7,0.6-5.9,0.7
	c-1.2,0.1-1.4-0.6-0.8-2.1c1.5-3.1,3.3-6,5.5-8.7c1.7-2.4,3.6-4.7,5.6-6.9c1.9-1.9,0.9-3.8-2.9-5.8c-3.9-1.9-6.3-1.7-7.3,0.7
	c-1.8,4.1-4,8.1-6.3,12c-3.8,6.1-7.7,12.2-11.8,18.2s-8,12.1-11.9,18.1c-2.4,3.7-4.9,7.6-7.4,11.6c-2.5,4-5,8.1-7.5,12.4
	c-1.5,2.4-2.1,5.2-1.7,7.9c0.2,2.3,0.8,4.5,1.7,6.6c1,2.2,2.1,2.4,3.1,0.6c0.3-0.7,1.7-3.6,4.4-8.8c2.7-5.1,5.9-11,9.7-17.6
	c3.7-6.6,7.4-12.7,11.1-18.5c2.8-4.6,6-8.9,9.5-12.9c1-1,2.3-1.7,3.8-1.9c1.8-0.1,3.5-0.3,5.1-0.5c1.6-0.2,3.2-0.3,4.9-0.5
	c2.6-0.2,3.1,0.6,1.6,2.4c-5.8,6.6-10.6,14-14.4,22c-3.4,7.5-5.5,14.4-6.2,20.4c-0.7,6.1,0.3,10.5,2.9,13.1
	c2.7,2.7,7.5,2.2,14.4-1.5c3.5-2.1,6.8-4.5,9.7-7.4c3.4-3.3,6.7-6.7,9.7-10.3l5.8-7.1c-0.1,0.2-0.1,0.4-0.2,0.6
	c-1.3,3.5-1.8,7.2-1.5,10.9c0.3,3.8,2.2,7.3,5.1,9.8c2.8,2.5,5.2,3,7.3,1.6c2.8-1.9,5.3-4.1,7.6-6.6c1.4-1.4,2.7-2.9,4.1-4.5v0.1
	c-1.2,4,0.8,7,6.1,8.9c3.9,1.3,8.6,1.6,14.2,0.9c5.6-0.7,10.9-2.4,15.9-5c6-3.1,10.4-6.8,13.3-11.1c2.9-4.3,3.5-8.5,1.8-12.6
	c-0.2-0.5,0.1-0.9,0.8-1.2c2.3-0.5,4.6-1,6.9-1.3l1.8-0.3c-0.4,1.7-0.7,3.4-0.9,5.2c-0.8,7.4,0.3,12.8,3.5,16.1s7.4,5,12.8,5
	c11.5,0.2,23.5-5.2,36-16.1c7.2-6.5,12.9-12.2,17.3-17c4.4-4.8,8.2-9.2,11.5-13.2C536,94.4,536.9,92.5,536.4,91.3L536.4,91.3z
	 M473,110.2c1.2-3.9,2.8-7.6,4.8-11.1c2.9-5.3,6.6-10.1,10.9-14.3c3.8-3.8,8-7.3,12.5-10.2c3.9-2.4,7-3.6,9.4-3.6
	c2.4,0,3.1,1.7,2,5.2c-1.3,3.2-3.2,6.2-5.5,8.8c-3,3.5-6.2,6.9-9.5,10.1c-8,7.3-15,12.7-20.9,16C473.5,112.9,472.3,112.6,473,110.2z
	 M409,119.9c5-5.6,8.5-9.6,10.5-11.9c0.3-0.4,0.5-0.7,0.8-1.1l4.6,4.9c1.2,1.2,2.3,2.6,3.3,4c0.3,0.6,0.1,1-0.6,1.2
	c-10,2.5-18,5.7-24,9.6c-0.5,0.3-1,0.7-1.5,1C404.1,125.5,406.5,122.9,409,119.9L409,119.9z M426.3,130.9c-3,2.7-6.3,5-9.8,6.9
	c-3.4,1.7-6.9,3-10.6,3.9c-3.3,0.8-5.6,0.6-6.7-0.4c-1-2,0.4-4.4,4.3-7.3c4.2-3.1,8.9-5.5,13.8-7.4c3.8-1.5,7.8-2.8,11.8-3.9
	c1.1-0.3,1.7,0,1.7,0.6C430.7,125.8,429.2,128.2,426.3,130.9L426.3,130.9z"/>
<linearGradient id="SVGID_2_" gradientUnits="userSpaceOnUse" x1="391.222" y1="127.7305" x2="377.834" y2="280.6977" gradientTransform="matrix(1 0 0 -1 -114.95 304.39)">
	<stop  offset="0" style="stop-color:#ED1C24"/>
	<stop  offset="5.000000e-02" style="stop-color:#EF391F"/>
	<stop  offset="0.12" style="stop-color:#F36418"/>
	<stop  offset="0.21" style="stop-color:#F68B11"/>
	<stop  offset="0.29" style="stop-color:#F9AB0C"/>
	<stop  offset="0.39" style="stop-color:#FBC508"/>
	<stop  offset="0.49" style="stop-color:#FDD904"/>
	<stop  offset="0.61" style="stop-color:#FEE702"/>
	<stop  offset="0.76" style="stop-color:#FFEF00"/>
	<stop  offset="1" style="stop-color:#FFF200"/>
</linearGradient>
<path class="st5" d="M181.3,51.8c0.6-6.7-1.5-11.6-6.3-14.8s-12.6-4.4-23.5-3.6c-9.9,1-19.7,3.4-28.9,7.2
	c-9.8,3.9-19.3,8.6-28.3,14.3c-10.2,6.2-19.8,13.3-28.8,21.1C56.6,83.8,50,90.9,45.6,97.4c-11,17.7-1.4,30,29,36.8
	c11.3,2.6,20.7,5,28.2,7.2c5.3,1.4,10.5,3.2,15.5,5.3c4.6,2.2,7,5.2,7.3,8.9c0.3,3.7-3.3,8.1-10.7,13.2c-7.6,5.1-17.2,9-28.7,11.7
	c-11.5,2.7-21.6,1.9-30.3-2.5c-3.4-1.7-7.9-4.2-13.6-7.4c-5-3.1-10.5-5.1-16.3-6.1c-5.2-0.8-10.5-0.6-15.6,0.7
	c-4.8,1.3-3.3,2.5,4.7,3.7c7,1.5,13.6,4.6,19.2,8.9c5.5,4.2,11.3,7.9,17.4,11.2c10.7,5.1,25.2,6.2,43.5,3.2s33.7-10.2,46.4-21.9
	c8.4-9.3,9.6-16.9,3.6-22.8c-5.9-5.9-20.9-11.7-44.9-17.5c-12.8-2.9-22.3-5.7-28.4-8.5c-6.3-3.9-7.8-9.1-4.6-15.6
	c3.1-6.4,8.1-13.3,15-20.7c7-7.5,14.6-14.5,22.6-20.9c17.3-13.5,31.2-21.2,41.7-23.1c7.3-1.5,12.6-1.2,16.1,0.8
	c3,2.3,3.2,5.8,0.5,10.7c-5.8,10.8-12.4,21.2-19.8,31c-7.7,10.2-11.8,17.6-12.3,22.1c-0.2,4.8,2.6,8.5,8.3,11.1
	c5.5,2.9,8.8,2.4,9.7-1.5c2.5-6.7,5.5-13.3,9-19.6c3.1-5.5,7.6-12.9,13.5-22S180.9,57.3,181.3,51.8z M299.3,95.9
	c-2.7-3.5-5.8-4.8-9.5-3.9c-1.5,0.3-6.4,4.4-14.9,12.5c-3.3,3.2-6.8,6.7-10.4,10.5s-7.2,7.7-10.7,11.8c-0.3,0.4-0.8,0.6-1.2,0.5
	c-0.4-0.1-0.5-0.4-0.2-1c0.9-1.9,1.7-3.9,2.6-5.9c0.9-2,1.8-3.9,2.6-5.7c1.2-2.4,2.4-4.7,3.5-6.9s2.2-4.1,3.2-5.8
	c1.5-2.5,0.6-5.1-2.7-7.8c-3.2-2.7-5.3-3.2-6.3-1.6c-2.3,3.8-5.2,8.6-8.7,14.4c-2.7,4.6-5.4,9.3-8.1,14c-2.3,2.7-4.9,5.8-7.9,9.3
	c-7.8,9.2-13.1,14.9-15.9,16.9c-2.2,1.6-3.2,1.5-3.2-0.3c0.3-5,1.9-11.3,4.6-18.8c1.6-5,3.7-9.9,6.5-14.4c2.2-3.2,1.7-6.4-1.3-9.3
	s-5.8-2.5-8.3,1.5c-1.5,2.2-2.9,4.6-4.1,7c-1.5,2.9-2.8,5.2-3.8,6.8l-5.3,8.1c-2.1,3.2-4.4,6.4-6.9,9.8c-2.6,3.5-5.3,6.8-8.3,9.9
	c-2.5,2.8-5.2,5.4-8,7.9c-3.5,2.9-5.6,2.8-6.4-0.1s-0.6-7.1,0.5-12.5c1.3-5.8,3.2-11.4,5.5-16.9c1.9-5,4.4-9.7,7.2-14.2
	c2.1-3.3,1.3-6-2.2-8.1c-3.7-2-6.5-1.1-8.4,2.7c-2.8,4.5-5,8.2-6.7,11.1c-1.7,2.9-3.5,6.1-5.5,9.6c-2,3.7-3.9,7.5-5.5,11.4
	c-1.3,3.2-2.4,6.5-3.3,9.9c-1.1,4.5-0.3,9.2,2.2,13c2.7,4.2,7.3,6.6,13.9,7.2c1.4,0.2,3.1-0.6,5.2-2.5c2.7-2.5,5.3-5.1,7.8-7.8
	c2.2-2.6,4.5-5.1,6.7-7.6c2.2-2.5,4-4.5,5.2-5.9c0.8-0.9,1.3-1.3,1.5-1.2s0.2,0.8-0.1,2c-1.1,6.4-0.4,11.6,2,15.6
	c2.4,4.7,6.5,4.8,12.2,0.3c5.3-4.2,11.5-10.5,18.5-18.8c-2,4.3-3.1,7.4-3.3,9.5c-0.5,3,1.2,5.5,5.2,7.8c3.7,2.3,6.2,2.6,7.5,0.8
	c0.3-0.4,1-1.8,2.3-4.3c0.4-1,0.9-2.1,1.4-3.4c0.5-1.4,1.2-2.7,2-3.9c2.8-4.5,6.1-8.8,9.7-12.7c4.1-4.6,8.4-9.1,12.8-13.6
	c7.3-7.4,14.2-14,20.7-19.7c1-0.8,1.5-1.1,1.8-1s0.3,0.6-0.1,1.4c-6.1,9.8-10.8,18-14,24.6c-5.6,11.7-7.4,20.1-5.4,25.3
	c0.3,1.2,1.7,2.7,4,4.4c2.2,1.6,4.6,3.1,7,4.4c1.5,0.8,3.1,1.5,4.8,1.9c1,0.2,1.4-1.4,1.2-4.8c-0.5-4.8-0.3-9.7,0.7-14.4
	c1-5.2,2.5-10.4,4.3-15.4c3.4-9.1,7.5-18,12.3-26.5C302.9,101.8,301.9,99.4,299.3,95.9L299.3,95.9z M395.7,91.5
	c3.4-0.3,6.9-2.7,10.6-7.2c1.2-1.4,1.8-3.2,1.7-5c-0.1-1.6-1.5-2.5-4-2.8c-4.8-0.4-8.3,2-10.5,7.2C391.5,89.1,392.2,91.7,395.7,91.5
	L395.7,91.5z M536.4,91.3c-0.7-1-1.7-0.8-2.8,0.4c-3,3.6-6.6,7.6-10.8,11.9s-8.4,8.2-12.5,11.8c-5.3,4.7-11,9-17,12.8
	c-8.3,4.5-14.5,4.5-18.7,0.1c-2.1-2.1-3-5.1-2.6-9.2c0-0.9,0.7-1.5,2.2-1.7c7.3-1.4,14.9-4.9,22.9-10.5c7.9-5.6,14.7-12.5,20.2-20.4
	c2.2-3.2,3.8-6.7,4.9-10.4c0.8-6.3-3.1-9.5-11.6-9.6c-11.4,0.1-23.3,6-35.7,17.9c-5.5,5.4-10.3,11.3-14.5,17.8
	c-2.3,3.4-4.2,7.1-5.7,11c-4.1,0.1-8.2,0.4-12.2,1c-0.7,0.1-1.3-0.2-1.7-0.8c-1.6-1.8-3.1-3.7-4.6-5.7c-1.3-1.9-2.5-3.9-3.4-6
	c-1.3-2.9-0.7-6.7,1.9-11.5c1.7-3.4,5-6.9,9.9-10.7c4.9-3.8,10.1-7.1,15.6-10c2.4-1.2,3.6-2.1,3.5-2.8c-0.4-1-2.2-1.3-5.5-0.9
	c-3.8,0.7-7.6,1.7-11.3,3C435.2,73,425.5,79.6,418,88.5c-4.4,5.3-4.5,10.6-0.2,15.7l-8,8.2c-4.7,4.8-8.4,8.5-11,11.2
	c-2.6,2.7-5.1,5.2-7.5,7.6c-2.4,2.4-4.2,4.1-5.5,5.2c-1.7,1.6-2.5,1.3-2.3-0.9c0.2-3.1,0.8-6.1,1.8-9.1c1.4-4.5,3-8.9,4.9-13.2
	c2.2-5,3.6-8.2,4.4-9.6c2-3.5,1.8-6.2-0.5-8.1c-2.3-1.9-4.2-1.8-5.6,0.2c-1.1,1.6-2.9,4.1-5.4,7.7c-1.5,2.2-2.9,4.5-4.3,6.8
	c-3.5,3.8-7,7.8-10.7,12c-6.3,7.1-11.5,12.2-15.9,15.5c-2.2,1.3-3.2,0.3-3.1-2.8c0.1-3.1,1.1-7.4,2.9-12.7c1.8-5.6,4.1-11,6.7-16.2
	c2.6-5.3,5.8-10.2,9.7-14.6c1.3-1.5,0.3-2.3-2.9-2.4c-3.7-0.1-7.3,0-11,0.4c-2.9,0.3-5.8,0.6-8.5,1c-2.7,0.4-4.7,0.6-5.9,0.7
	c-1.2,0.1-1.4-0.6-0.8-2.1c1.5-3.1,3.3-6,5.5-8.7c1.7-2.4,3.6-4.7,5.6-6.9c1.9-1.9,0.9-3.8-2.9-5.8c-3.9-1.9-6.3-1.7-7.3,0.7
	c-1.8,4.1-4,8.1-6.3,12c-3.8,6.1-7.7,12.2-11.8,18.2s-8,12.1-11.9,18.1c-2.4,3.7-4.9,7.6-7.4,11.6c-2.5,4-5,8.1-7.5,12.4
	c-1.5,2.4-2.1,5.2-1.7,7.9c0.2,2.3,0.8,4.5,1.7,6.6c1,2.2,2.1,2.4,3.1,0.6c0.3-0.7,1.7-3.6,4.4-8.8c2.7-5.1,5.9-11,9.7-17.6
	c3.7-6.6,7.4-12.7,11.1-18.5c2.8-4.6,6-8.9,9.5-12.9c1-1,2.3-1.7,3.8-1.9c1.8-0.1,3.5-0.3,5.1-0.5c1.6-0.2,3.2-0.3,4.9-0.5
	c2.6-0.2,3.1,0.6,1.6,2.4c-5.8,6.6-10.6,14-14.4,22c-3.4,7.5-5.5,14.4-6.2,20.4c-0.7,6.1,0.3,10.5,2.9,13.1
	c2.7,2.7,7.5,2.2,14.4-1.5c3.5-2.1,6.8-4.5,9.7-7.4c3.4-3.3,6.7-6.7,9.7-10.3l5.8-7.1c-0.1,0.2-0.1,0.4-0.2,0.6
	c-1.3,3.5-1.8,7.2-1.5,10.9c0.3,3.8,2.2,7.3,5.1,9.8c2.8,2.5,5.2,3,7.3,1.6c2.8-1.9,5.3-4.1,7.6-6.6c1.4-1.4,2.7-2.9,4.1-4.5v0.1
	c-1.2,4,0.8,7,6.1,8.9c3.9,1.3,8.6,1.6,14.2,0.9c5.6-0.7,10.9-2.4,15.9-5c6-3.1,10.4-6.8,13.3-11.1c2.9-4.3,3.5-8.5,1.8-12.6
	c-0.2-0.5,0.1-0.9,0.8-1.2c2.3-0.5,4.6-1,6.9-1.3l1.8-0.3c-0.4,1.7-0.7,3.4-0.9,5.2c-0.8,7.4,0.3,12.8,3.5,16.1s7.4,5,12.8,5
	c11.5,0.2,23.5-5.2,36-16.1c7.2-6.5,12.9-12.2,17.3-17c4.4-4.8,8.2-9.2,11.5-13.2C536,94.4,536.9,92.5,536.4,91.3L536.4,91.3z
	 M473,110.2c1.2-3.9,2.8-7.6,4.8-11.1c2.9-5.3,6.6-10.1,10.9-14.3c3.8-3.8,8-7.3,12.5-10.2c3.9-2.4,7-3.6,9.4-3.6
	c2.4,0,3.1,1.7,2,5.2c-1.3,3.2-3.2,6.2-5.5,8.8c-3,3.5-6.2,6.9-9.5,10.1c-8,7.3-15,12.7-20.9,16C473.5,112.9,472.3,112.6,473,110.2z
	 M409,119.9c5-5.6,8.5-9.6,10.5-11.9c0.3-0.4,0.5-0.7,0.8-1.1l4.6,4.9c1.2,1.2,2.3,2.6,3.3,4c0.3,0.6,0.1,1-0.6,1.2
	c-10,2.5-18,5.7-24,9.6c-0.5,0.3-1,0.7-1.5,1C404.1,125.5,406.5,122.9,409,119.9L409,119.9z M426.3,130.9c-3,2.7-6.3,5-9.8,6.9
	c-3.4,1.7-6.9,3-10.6,3.9c-3.3,0.8-5.6,0.6-6.7-0.4c-1-2,0.4-4.4,4.3-7.3c4.2-3.1,8.9-5.5,13.8-7.4c3.8-1.5,7.8-2.8,11.8-3.9
	c1.1-0.3,1.7,0,1.7,0.6C430.7,125.8,429.2,128.2,426.3,130.9L426.3,130.9z"/>
<path class="st0" d="M181.3,51.8c0.6-6.7-1.5-11.6-6.3-14.8s-12.6-4.4-23.5-3.6c-9.9,1-19.7,3.4-28.9,7.2
	c-9.8,3.9-19.3,8.6-28.3,14.3c-10.2,6.2-19.8,13.3-28.8,21.1C56.6,83.8,50,90.9,45.6,97.4c-11,17.7-1.4,30,29,36.8
	c11.3,2.6,20.7,5,28.2,7.2c5.3,1.4,10.5,3.2,15.5,5.3c4.6,2.2,7,5.2,7.3,8.9c0.3,3.7-3.3,8.1-10.7,13.2c-7.6,5.1-17.2,9-28.7,11.7
	c-11.5,2.7-21.6,1.9-30.3-2.5c-3.4-1.7-7.9-4.2-13.6-7.4c-5-3.1-10.5-5.1-16.3-6.1c-5.2-0.8-10.5-0.6-15.6,0.7
	c-4.8,1.3-3.3,2.5,4.7,3.7c7,1.5,13.6,4.6,19.2,8.9c5.5,4.2,11.3,7.9,17.4,11.2c10.7,5.1,25.2,6.2,43.5,3.2s33.7-10.2,46.4-21.9
	c8.4-9.3,9.6-16.9,3.6-22.8c-5.9-5.9-20.9-11.7-44.9-17.5c-12.8-2.9-22.3-5.7-28.4-8.5c-6.3-3.9-7.8-9.1-4.6-15.6
	c3.1-6.4,8.1-13.3,15-20.7c7-7.5,14.6-14.5,22.6-20.9c17.3-13.5,31.2-21.2,41.7-23.1c7.3-1.5,12.6-1.2,16.1,0.8
	c3,2.3,3.2,5.8,0.5,10.7c-5.8,10.8-12.4,21.2-19.8,31c-7.7,10.2-11.8,17.6-12.3,22.1c-0.2,4.8,2.6,8.5,8.3,11.1
	c5.5,2.9,8.8,2.4,9.7-1.5c2.5-6.7,5.5-13.3,9-19.6c3.1-5.5,7.6-12.9,13.5-22S180.9,57.3,181.3,51.8z M299.3,95.9
	c-2.7-3.5-5.8-4.8-9.5-3.9c-1.5,0.3-6.4,4.4-14.9,12.5c-3.3,3.2-6.8,6.7-10.4,10.5s-7.2,7.7-10.7,11.8c-0.3,0.4-0.8,0.6-1.2,0.5
	c-0.4-0.1-0.5-0.4-0.2-1c0.9-1.9,1.7-3.9,2.6-5.9c0.9-2,1.8-3.9,2.6-5.7c1.2-2.4,2.4-4.7,3.5-6.9s2.2-4.1,3.2-5.8
	c1.5-2.5,0.6-5.1-2.7-7.8c-3.2-2.7-5.3-3.2-6.3-1.6c-2.3,3.8-5.2,8.6-8.7,14.4c-2.7,4.6-5.4,9.3-8.1,14c-2.3,2.7-4.9,5.8-7.9,9.3
	c-7.8,9.2-13.1,14.9-15.9,16.9c-2.2,1.6-3.2,1.5-3.2-0.3c0.3-5,1.9-11.3,4.6-18.8c1.6-5,3.7-9.9,6.5-14.4c2.2-3.2,1.7-6.4-1.3-9.3
	s-5.8-2.5-8.3,1.5c-1.5,2.2-2.9,4.6-4.1,7c-1.5,2.9-2.8,5.2-3.8,6.8l-5.3,8.1c-2.1,3.2-4.4,6.4-6.9,9.8c-2.6,3.5-5.3,6.8-8.3,9.9
	c-2.5,2.8-5.2,5.4-8,7.9c-3.5,2.9-5.6,2.8-6.4-0.1s-0.6-7.1,0.5-12.5c1.3-5.8,3.2-11.4,5.5-16.9c1.9-5,4.4-9.7,7.2-14.2
	c2.1-3.3,1.3-6-2.2-8.1c-3.7-2-6.5-1.1-8.4,2.7c-2.8,4.5-5,8.2-6.7,11.1c-1.7,2.9-3.5,6.1-5.5,9.6c-2,3.7-3.9,7.5-5.5,11.4
	c-1.3,3.2-2.4,6.5-3.3,9.9c-1.1,4.5-0.3,9.2,2.2,13c2.7,4.2,7.3,6.6,13.9,7.2c1.4,0.2,3.1-0.6,5.2-2.5c2.7-2.5,5.3-5.1,7.8-7.8
	c2.2-2.6,4.5-5.1,6.7-7.6c2.2-2.5,4-4.5,5.2-5.9c0.8-0.9,1.3-1.3,1.5-1.2s0.2,0.8-0.1,2c-1.1,6.4-0.4,11.6,2,15.6
	c2.4,4.7,6.5,4.8,12.2,0.3c5.3-4.2,11.5-10.5,18.5-18.8c-2,4.3-3.1,7.4-3.3,9.5c-0.5,3,1.2,5.5,5.2,7.8c3.7,2.3,6.2,2.6,7.5,0.8
	c0.3-0.4,1-1.8,2.3-4.3c0.4-1,0.9-2.1,1.4-3.4c0.5-1.4,1.2-2.7,2-3.9c2.8-4.5,6.1-8.8,9.7-12.7c4.1-4.6,8.4-9.1,12.8-13.6
	c7.3-7.4,14.2-14,20.7-19.7c1-0.8,1.5-1.1,1.8-1s0.3,0.6-0.1,1.4c-6.1,9.8-10.8,18-14,24.6c-5.6,11.7-7.4,20.1-5.4,25.3
	c0.3,1.2,1.7,2.7,4,4.4c2.2,1.6,4.6,3.1,7,4.4c1.5,0.8,3.1,1.5,4.8,1.9c1,0.2,1.4-1.4,1.2-4.8c-0.5-4.8-0.3-9.7,0.7-14.4
	c1-5.2,2.5-10.4,4.3-15.4c3.4-9.1,7.5-18,12.3-26.5C302.9,101.8,301.9,99.4,299.3,95.9L299.3,95.9z M395.7,91.5
	c3.4-0.3,6.9-2.7,10.6-7.2c1.2-1.4,1.8-3.2,1.7-5c-0.1-1.6-1.5-2.5-4-2.8c-4.8-0.4-8.3,2-10.5,7.2C391.5,89.1,392.2,91.7,395.7,91.5
	L395.7,91.5z M536.4,91.3c-0.7-1-1.7-0.8-2.8,0.4c-3,3.6-6.6,7.6-10.8,11.9s-8.4,8.2-12.5,11.8c-5.3,4.7-11,9-17,12.8
	c-8.3,4.5-14.5,4.5-18.7,0.1c-2.1-2.1-3-5.1-2.6-9.2c0-0.9,0.7-1.5,2.2-1.7c7.3-1.4,14.9-4.9,22.9-10.5c7.9-5.6,14.7-12.5,20.2-20.4
	c2.2-3.2,3.8-6.7,4.9-10.4c0.8-6.3-3.1-9.5-11.6-9.6c-11.4,0.1-23.3,6-35.7,17.9c-5.5,5.4-10.3,11.3-14.5,17.8
	c-2.3,3.4-4.2,7.1-5.7,11c-4.1,0.1-8.2,0.4-12.2,1c-0.7,0.1-1.3-0.2-1.7-0.8c-1.6-1.8-3.1-3.7-4.6-5.7c-1.3-1.9-2.5-3.9-3.4-6
	c-1.3-2.9-0.7-6.7,1.9-11.5c1.7-3.4,5-6.9,9.9-10.7c4.9-3.8,10.1-7.1,15.6-10c2.4-1.2,3.6-2.1,3.5-2.8c-0.4-1-2.2-1.3-5.5-0.9
	c-3.8,0.7-7.6,1.7-11.3,3C435.2,73,425.5,79.6,418,88.5c-4.4,5.3-4.5,10.6-0.2,15.7l-8,8.2c-4.7,4.8-8.4,8.5-11,11.2
	c-2.6,2.7-5.1,5.2-7.5,7.6c-2.4,2.4-4.2,4.1-5.5,5.2c-1.7,1.6-2.5,1.3-2.3-0.9c0.2-3.1,0.8-6.1,1.8-9.1c1.4-4.5,3-8.9,4.9-13.2
	c2.2-5,3.6-8.2,4.4-9.6c2-3.5,1.8-6.2-0.5-8.1c-2.3-1.9-4.2-1.8-5.6,0.2c-1.1,1.6-2.9,4.1-5.4,7.7c-1.5,2.2-2.9,4.5-4.3,6.8
	c-3.5,3.8-7,7.8-10.7,12c-6.3,7.1-11.5,12.2-15.9,15.5c-2.2,1.3-3.2,0.3-3.1-2.8c0.1-3.1,1.1-7.4,2.9-12.7c1.8-5.6,4.1-11,6.7-16.2
	c2.6-5.3,5.8-10.2,9.7-14.6c1.3-1.5,0.3-2.3-2.9-2.4c-3.7-0.1-7.3,0-11,0.4c-2.9,0.3-5.8,0.6-8.5,1c-2.7,0.4-4.7,0.6-5.9,0.7
	c-1.2,0.1-1.4-0.6-0.8-2.1c1.5-3.1,3.3-6,5.5-8.7c1.7-2.4,3.6-4.7,5.6-6.9c1.9-1.9,0.9-3.8-2.9-5.8c-3.9-1.9-6.3-1.7-7.3,0.7
	c-1.8,4.1-4,8.1-6.3,12c-3.8,6.1-7.7,12.2-11.8,18.2s-8,12.1-11.9,18.1c-2.4,3.7-4.9,7.6-7.4,11.6c-2.5,4-5,8.1-7.5,12.4
	c-1.5,2.4-2.1,5.2-1.7,7.9c0.2,2.3,0.8,4.5,1.7,6.6c1,2.2,2.1,2.4,3.1,0.6c0.3-0.7,1.7-3.6,4.4-8.8c2.7-5.1,5.9-11,9.7-17.6
	c3.7-6.6,7.4-12.7,11.1-18.5c2.8-4.6,6-8.9,9.5-12.9c1-1,2.3-1.7,3.8-1.9c1.8-0.1,3.5-0.3,5.1-0.5c1.6-0.2,3.2-0.3,4.9-0.5
	c2.6-0.2,3.1,0.6,1.6,2.4c-5.8,6.6-10.6,14-14.4,22c-3.4,7.5-5.5,14.4-6.2,20.4c-0.7,6.1,0.3,10.5,2.9,13.1
	c2.7,2.7,7.5,2.2,14.4-1.5c3.5-2.1,6.8-4.5,9.7-7.4c3.4-3.3,6.7-6.7,9.7-10.3l5.8-7.1c-0.1,0.2-0.1,0.4-0.2,0.6
	c-1.3,3.5-1.8,7.2-1.5,10.9c0.3,3.8,2.2,7.3,5.1,9.8c2.8,2.5,5.2,3,7.3,1.6c2.8-1.9,5.3-4.1,7.6-6.6c1.4-1.4,2.7-2.9,4.1-4.5v0.1
	c-1.2,4,0.8,7,6.1,8.9c3.9,1.3,8.6,1.6,14.2,0.9c5.6-0.7,10.9-2.4,15.9-5c6-3.1,10.4-6.8,13.3-11.1c2.9-4.3,3.5-8.5,1.8-12.6
	c-0.2-0.5,0.1-0.9,0.8-1.2c2.3-0.5,4.6-1,6.9-1.3l1.8-0.3c-0.4,1.7-0.7,3.4-0.9,5.2c-0.8,7.4,0.3,12.8,3.5,16.1s7.4,5,12.8,5
	c11.5,0.2,23.5-5.2,36-16.1c7.2-6.5,12.9-12.2,17.3-17c4.4-4.8,8.2-9.2,11.5-13.2C536,94.4,536.9,92.5,536.4,91.3L536.4,91.3z
	 M473,110.2c1.2-3.9,2.8-7.6,4.8-11.1c2.9-5.3,6.6-10.1,10.9-14.3c3.8-3.8,8-7.3,12.5-10.2c3.9-2.4,7-3.6,9.4-3.6
	c2.4,0,3.1,1.7,2,5.2c-1.3,3.2-3.2,6.2-5.5,8.8c-3,3.5-6.2,6.9-9.5,10.1c-8,7.3-15,12.7-20.9,16C473.5,112.9,472.3,112.6,473,110.2z
	 M409,119.9c5-5.6,8.5-9.6,10.5-11.9c0.3-0.4,0.5-0.7,0.8-1.1l4.6,4.9c1.2,1.2,2.3,2.6,3.3,4c0.3,0.6,0.1,1-0.6,1.2
	c-10,2.5-18,5.7-24,9.6c-0.5,0.3-1,0.7-1.5,1C404.1,125.5,406.5,122.9,409,119.9L409,119.9z M426.3,130.9c-3,2.7-6.3,5-9.8,6.9
	c-3.4,1.7-6.9,3-10.6,3.9c-3.3,0.8-5.6,0.6-6.7-0.4c-1-2,0.4-4.4,4.3-7.3c4.2-3.1,8.9-5.5,13.8-7.4c3.8-1.5,7.8-2.8,11.8-3.9
	c1.1-0.3,1.7,0,1.7,0.6C430.7,125.8,429.2,128.2,426.3,130.9L426.3,130.9z"/>
<path class="st6" d="M55.3,227.9v7.9c-0.1,2,0.5,3.9,1.6,5.6H39.7c1.1-1.7,1.6-3.6,1.6-5.6v-26.4c0.1-2-0.5-3.9-1.6-5.5h30.6
	c1.6,0,3.2,0.1,4.8,0.4c1,0.2,2,0.7,2.8,1.4c1.5,1.3,2.3,3.3,2.4,5.9v8.5c0.1,2.2-0.8,4.4-2.4,5.9c-0.8,0.7-1.7,1.2-2.8,1.5
	c-1.6,0.3-3.2,0.4-4.8,0.4H55.3z M55.3,221.8h7.2c1.6,0,2.6-0.3,3.1-0.8s0.6-1.7,0.6-3.6v-2.9c0.1-1.2-0.1-2.4-0.6-3.6
	c-0.4-0.5-1.2-0.8-2.4-0.8h-7.9L55.3,221.8z"/>
<path class="st6" d="M97.8,203.9h21.8c1.4,0,2.9,0.3,4.2,0.8c1.2,0.5,2.4,1.2,3.3,2.2c1.4,1.5,2.1,4,2.1,7.7v16
	c0,3.6-0.7,6.2-2.1,7.7c-0.9,1-2,1.7-3.3,2.2c-1.3,0.5-2.8,0.8-4.2,0.8H97.8c-1.4,0-2.9-0.3-4.2-0.8c-1.2-0.5-2.4-1.2-3.3-2.2
	c-1.4-1.5-2.1-4-2.1-7.7v-16c0-3.6,0.7-6.2,2.1-7.7c0.9-1,2-1.7,3.3-2.2C94.9,204.2,96.3,203.9,97.8,203.9z M102.4,214.5v16.3
	c-0.1,1.1,0.1,2.2,0.5,3.3c0.6,0.8,1.6,1.1,3.2,1.1h5c1.5,0,2.6-0.3,3-0.8s0.7-1.7,0.7-3.6v-16.3c0.1-1.1-0.1-2.2-0.5-3.3
	c-0.6-0.8-1.6-1.1-3.2-1.1h-5.6c-0.9-0.1-1.9,0.2-2.5,0.9C102.5,212.1,102.3,213.3,102.4,214.5L102.4,214.5z"/>
<path class="st6" d="M147.8,203.9h21.8c1.4,0,2.9,0.3,4.2,0.8c1.2,0.5,2.4,1.2,3.3,2.2c1.4,1.5,2.1,4,2.1,7.7v16
	c0,3.6-0.7,6.2-2.1,7.7c-0.9,1-2,1.7-3.3,2.2c-1.3,0.5-2.8,0.8-4.2,0.8h-21.8c-1.4,0-2.9-0.3-4.2-0.8c-1.2-0.5-2.4-1.2-3.3-2.2
	c-1.4-1.5-2.1-4-2.1-7.7v-16c0-3.6,0.7-6.2,2.1-7.7c0.9-1,2-1.7,3.3-2.2C144.9,204.2,146.3,203.9,147.8,203.9z M152.4,214.5v16.3
	c-0.1,1.1,0.1,2.2,0.5,3.3c0.6,0.8,1.6,1.1,3.2,1.1h5c1.5,0,2.5-0.3,3-0.8s0.7-1.7,0.7-3.6v-16.3c0.1-1.1-0.1-2.2-0.5-3.3
	c-0.6-0.8-1.6-1.1-3.2-1.1h-5.6c-0.9-0.1-1.9,0.2-2.5,0.9C152.5,212.1,152.3,213.3,152.4,214.5z"/>
<path class="st6" d="M221.5,233.8l-1.2,7.5h-32.7c1.1-1.6,1.6-3.6,1.6-5.5v-26.4c0.1-2-0.5-3.9-1.6-5.5H205
	c-1.1,1.6-1.6,3.6-1.6,5.5v25.8h13.4C218.5,235.3,220.1,234.8,221.5,233.8z"/>
<path class="st6" d="M279.9,203.9l1.3,7.6c-1.3-1-2.8-1.5-4.4-1.5l-1.7,0.1h-13c-0.7-0.1-1.4,0.1-2,0.4c-0.4,0.4-0.6,1-0.6,1.5v1.3
	c0,1,0.2,1.6,0.5,1.9c0.8,0.4,1.6,0.5,2.4,0.4h9.2c1.7,0,3.5,0.1,5.2,0.3c1,0.2,1.9,0.7,2.6,1.4c1.4,1.3,2.1,3.3,2.2,6.1v10.2
	c0.1,2.2-0.8,4.4-2.5,5.9c-0.8,0.7-1.7,1.2-2.8,1.5c-1.6,0.3-3.1,0.4-4.7,0.4h-24.8l-1.3-7.5c0.9,0.5,1.9,0.9,3,1.1
	c1.7,0.2,3.4,0.3,5.1,0.2h10.9c0.8,0,1.6,0,2.3-0.1c0.3-0.1,0.5-0.3,0.6-0.6c0.1-0.4,0.2-0.9,0.2-1.3v-1.2c0.1-0.6-0.1-1.2-0.3-1.8
	c-0.4-0.4-0.9-0.5-1.3-0.5h-10.6c-1.7,0-3.3-0.1-5-0.3c-1-0.2-1.9-0.6-2.7-1.2c-1.4-1.2-2.1-3.3-2.2-6.2v-10.3
	c-0.1-2.2,0.8-4.4,2.5-5.9c0.8-0.7,1.7-1.2,2.8-1.5c1.6-0.3,3.1-0.4,4.7-0.4L279.9,203.9z"/>
<path class="st6" d="M305.3,210.1v9.1h11.5c1.8,0.1,3.6-0.2,5.3-0.8v8c-0.8-0.6-2.2-1-4.2-1h-12.5v9.9h13.9c1.8-0.1,3.6-0.6,5.3-1.3
	l-1.2,7.4h-33.7c1.1-1.6,1.6-3.6,1.6-5.5v-26.4c0.1-2-0.5-3.9-1.6-5.5h32.9l1.1,7c-0.9-0.3-1.7-0.6-2.6-0.7c-1.3-0.1-2.7-0.2-4-0.2
	L305.3,210.1z"/>
<path class="st6" d="M351.3,225.4H347v10.4c-0.1,2,0.5,3.9,1.6,5.5h-17.4c1.1-1.6,1.6-3.6,1.6-5.5v-26.3c0.1-2-0.5-3.9-1.6-5.5H362
	c1.6,0,3.2,0.1,4.8,0.4c1,0.2,2,0.7,2.8,1.4c1.6,1.5,2.5,3.7,2.4,5.9v8.1c0.1,1.3-0.1,2.5-0.7,3.7c-0.8,1.3-2.3,2.1-3.9,2
	c-0.2,0-0.6,0-1,0l5.1,10.9c0.8,1.8,1.8,3.5,2.9,5.1H358L351.3,225.4z M347,219.2h8c0.8,0.1,1.7-0.1,2.4-0.6
	c0.5-0.8,0.7-1.7,0.5-2.7v-1.9c0-1.9-0.2-3-0.5-3.4c-0.3-0.4-1.3-0.6-2.8-0.6H347V219.2z"/>
<path class="st6" d="M404.5,233.7l9-23.9c0.5-1.2,0.8-2.5,0.8-3.9c0-0.7-0.1-1.3-0.3-2h9.5c-0.8,0.6-1.4,1.4-1.9,2.2
	c-0.7,1.4-1.3,2.8-1.8,4.3l-11.9,30.9h-15.7l-11.3-31.8c-0.7-2-1.6-3.9-2.7-5.6h17.5c-0.2,0.6-0.4,1.3-0.4,2c0.1,1.4,0.3,2.7,0.8,4
	L404.5,233.7z"/>
<path class="st6" d="M445.4,241.4H428c1.1-1.6,1.6-3.6,1.6-5.5v-26.4c0.1-2-0.5-3.9-1.6-5.5h17.3c-1.1,1.6-1.6,3.6-1.6,5.5v26.4
	C443.8,237.8,444.3,239.8,445.4,241.4z"/>
<path class="st6" d="M485.9,203.9l1.3,7.7c-0.8-0.6-1.7-1-2.7-1.3c-1.4-0.2-2.9-0.3-4.3-0.3h-7.8c-0.8,0-1.6,0-2.4,0.2
	c-0.4,0.1-0.8,0.3-1.1,0.7c-0.3,0.4-0.5,0.8-0.6,1.2c-0.1,0.9-0.2,1.8-0.1,2.7v15.9c0,1.8,0.3,3,1,3.6s2,0.9,3.9,0.9h7.4
	c2.4,0.1,4.9-0.3,7.2-1.2l-1.1,7.3h-23c-2.8,0.1-5.4-1-7.3-3c-0.8-0.9-1.4-1.9-1.8-3.1c-0.4-1.5-0.5-3-0.5-4.6v-16
	c0-1.5,0.1-3.1,0.5-4.6c0.4-1.2,1-2.2,1.8-3.1c1.9-2,4.5-3.1,7.3-3L485.9,203.9z"/>
<path class="st6" d="M510.9,210.1v9.1h11.5c1.8,0.1,3.6-0.2,5.3-0.9v8c-0.8-0.6-2.2-1-4.2-1h-12.5v9.9h13.9c1.8-0.1,3.6-0.6,5.3-1.3
	l-1.2,7.5H495c1.1-1.6,1.6-3.6,1.6-5.5v-26.4c0-2-0.5-3.9-1.6-5.5h33l1.1,7c-0.9-0.3-1.7-0.6-2.7-0.7c-1.3-0.1-2.7-0.2-4-0.2
	L510.9,210.1z"/>
<path class="st6" d="M51.4,224v7.9c-0.1,2,0.5,3.9,1.6,5.6H35.8c1.1-1.7,1.6-3.6,1.6-5.6v-26.3c0.1-2-0.5-3.9-1.6-5.5h30.6
	c1.6,0,3.2,0.1,4.8,0.4c1,0.2,2,0.7,2.8,1.4c1.6,1.5,2.5,3.7,2.4,5.9v8.5c0.1,2.2-0.7,4.4-2.4,5.9c-0.8,0.7-1.8,1.2-2.8,1.5
	c-1.6,0.3-3.2,0.4-4.8,0.4L51.4,224z M51.4,217.8h7.2c1.6,0,2.6-0.2,3.1-0.8s0.6-1.7,0.6-3.6v-2.9c0.1-1.2-0.1-2.4-0.6-3.6
	c-0.4-0.5-1.2-0.8-2.4-0.8h-7.9V217.8z"/>
<path class="st6" d="M93.8,200h21.8c1.4,0,2.9,0.3,4.2,0.8c1.2,0.5,2.4,1.2,3.3,2.2c1.4,1.5,2.1,4,2.1,7.7v16c0,3.6-0.7,6.2-2.1,7.7
	c-0.9,1-2,1.7-3.3,2.2c-1.3,0.5-2.8,0.8-4.2,0.8H93.8c-1.4,0-2.9-0.3-4.2-0.8c-1.2-0.5-2.4-1.2-3.3-2.2c-1.4-1.5-2.1-4-2.1-7.7v-16
	c0-3.6,0.7-6.2,2.1-7.7c0.9-1,2-1.7,3.3-2.2C91,200.3,92.4,200,93.8,200z M98.5,210.6v16.3c-0.1,1.1,0.1,2.2,0.5,3.3
	c0.6,0.8,1.6,1.1,3.2,1.1h5c1.6,0,2.6-0.3,3-0.8s0.7-1.7,0.7-3.6v-16.4c0.1-1.1-0.1-2.2-0.5-3.3c-0.6-0.8-1.6-1.1-3.2-1.1h-5.6
	c-0.9-0.1-1.9,0.2-2.6,0.9C98.6,208.2,98.4,209.4,98.5,210.6L98.5,210.6z"/>
<path class="st6" d="M143.8,200h21.8c1.4,0,2.9,0.3,4.2,0.8c1.2,0.5,2.4,1.2,3.3,2.2c1.4,1.5,2.1,4,2.1,7.7v16
	c0,3.6-0.7,6.2-2.1,7.7c-0.9,1-2,1.7-3.3,2.2c-1.3,0.5-2.8,0.8-4.2,0.8h-21.8c-1.4,0-2.9-0.3-4.2-0.8c-1.2-0.5-2.4-1.2-3.3-2.2
	c-1.4-1.5-2.1-4-2.1-7.7v-16c0-3.6,0.7-6.2,2.1-7.7c0.9-1,2-1.7,3.3-2.2C141,200.3,142.4,200,143.8,200z M148.5,210.6v16.3
	c-0.1,1.1,0.1,2.2,0.5,3.3c0.6,0.8,1.6,1.1,3.2,1.1h5c1.5,0,2.5-0.3,3-0.8s0.7-1.7,0.7-3.6v-16.4c0.1-1.1-0.1-2.2-0.5-3.3
	c-0.6-0.8-1.6-1.1-3.2-1.1h-5.6c-0.9-0.1-1.9,0.2-2.5,0.9C148.6,208.2,148.3,209.4,148.5,210.6L148.5,210.6z"/>
<path class="st6" d="M217.6,229.9l-1.2,7.6h-32.7c1.1-1.6,1.6-3.6,1.6-5.5v-26.4c0.1-2-0.5-3.9-1.6-5.5h17.4
	c-1.1,1.6-1.6,3.6-1.6,5.5v25.7h13.4C214.6,231.4,216.2,230.9,217.6,229.9z"/>
<path class="st6" d="M276,200l1.3,7.6c-1.3-1-2.8-1.5-4.4-1.5h-1.7h-12.9c-0.7-0.1-1.4,0.1-2,0.4c-0.4,0.4-0.6,1-0.6,1.5v1.3
	c0,1,0.2,1.6,0.5,1.9c0.8,0.4,1.6,0.5,2.5,0.4h9.2c1.7-0.1,3.4,0.1,5.1,0.3c1,0.2,1.9,0.7,2.7,1.4c1.4,1.3,2.1,3.3,2.2,6v10.2
	c0.1,2.2-0.8,4.4-2.5,5.9c-0.8,0.7-1.7,1.2-2.8,1.5c-1.6,0.3-3.1,0.4-4.7,0.4h-24.8l-1.3-7.5c0.9,0.5,1.9,0.9,3,1.1
	c1.7,0.2,3.4,0.3,5.1,0.2h10.9c0.8,0,1.6,0,2.3-0.1c0.3-0.1,0.5-0.3,0.6-0.6c0.1-0.4,0.2-0.9,0.1-1.3V228c0.1-0.6-0.1-1.3-0.3-1.8
	c-0.4-0.4-0.9-0.5-1.4-0.5h-10.6c-1.7,0-3.3-0.1-5-0.3c-1-0.2-1.9-0.6-2.7-1.2c-1.4-1.2-2.1-3.3-2.2-6.2v-10.2
	c-0.1-2.2,0.8-4.4,2.5-5.9c0.8-0.7,1.7-1.2,2.8-1.5c1.5-0.3,3.1-0.4,4.7-0.4H276z"/>
<path class="st6" d="M301.4,206.2v9.1h11.5c1.8,0.1,3.6-0.2,5.3-0.9v8c-0.8-0.6-2.2-1-4.2-1h-12.5v9.9h13.9c1.8-0.1,3.6-0.6,5.3-1.3
	l-1.2,7.5h-33.7c1.1-1.6,1.6-3.6,1.6-5.5v-26.4c0.1-2-0.5-3.9-1.6-5.5h32.9l1.1,7c-0.9-0.3-1.7-0.5-2.6-0.7c-0.6-0.1-2-0.1-4-0.1
	L301.4,206.2z"/>
<path class="st6" d="M347.4,221.5H343v10.4c-0.1,2,0.5,3.9,1.6,5.5h-17.4c1.1-1.6,1.6-3.6,1.6-5.5v-26.4c0.1-2-0.5-3.9-1.6-5.5H358
	c1.6,0,3.2,0.1,4.8,0.4c1,0.2,2,0.7,2.8,1.5c1.6,1.5,2.5,3.7,2.4,5.9v8.1c0.1,1.3-0.1,2.5-0.7,3.7c-0.8,1.3-2.3,2.1-3.9,2
	c-0.2,0-0.6,0-1,0l5.1,10.8c0.8,1.8,1.8,3.5,2.9,5.1H354L347.4,221.5z M343,215.4h8c0.8,0.1,1.7-0.1,2.4-0.6
	c0.5-0.8,0.7-1.7,0.5-2.7v-1.9c0-1.9-0.2-3-0.5-3.4s-1.3-0.6-2.8-0.6H343V215.4z"/>
<path class="st6" d="M400.6,229.8l9-23.9c0.5-1.2,0.8-2.5,0.8-3.9c0-0.7-0.1-1.3-0.3-2h9.5c-0.8,0.6-1.4,1.4-1.9,2.2
	c-0.7,1.4-1.3,2.8-1.8,4.3L404,237.5h-15.7L377,205.7c-0.7-2-1.6-3.9-2.7-5.6h17.5c-0.2,0.6-0.4,1.3-0.4,2c0,1.4,0.3,2.7,0.8,4
	L400.6,229.8z"/>
<path class="st6" d="M441.5,237.5h-17.4c1.1-1.6,1.6-3.6,1.6-5.5v-26.4c0.1-2-0.5-3.9-1.6-5.5h17.4c-1.1,1.6-1.6,3.6-1.6,5.5v26.4
	C439.8,233.9,440.4,235.8,441.5,237.5z"/>
<path class="st6" d="M481.9,200l1.3,7.7c-0.8-0.6-1.7-1-2.7-1.3c-1.4-0.2-2.9-0.3-4.3-0.3h-7.8c-0.8,0-1.6,0.1-2.4,0.2
	c-0.4,0.1-0.8,0.3-1.1,0.7c-0.3,0.4-0.5,0.8-0.6,1.2c-0.1,0.9-0.2,1.8-0.1,2.7v15.9c0,1.8,0.3,2.9,1,3.5s2,0.9,3.9,0.9h7.4
	c2.4,0.1,4.9-0.3,7.2-1.2l-1.2,7.3h-23c-2.7,0.1-5.4-1-7.3-3c-0.8-0.9-1.4-1.9-1.8-3.1c-0.4-1.5-0.5-3-0.5-4.6v-16
	c0-1.5,0.1-3.1,0.5-4.6c0.4-1.2,1-2.2,1.8-3.1c1.9-2,4.5-3.1,7.3-3L481.9,200z"/>
<path class="st6" d="M506.9,206.2v9.1h11.5c1.8,0.1,3.6-0.2,5.3-0.9v8c-0.8-0.6-2.2-1-4.2-1h-12.5v9.9h13.9c1.8-0.1,3.6-0.6,5.3-1.3
	l-1.2,7.5h-33.7c1.1-1.6,1.6-3.6,1.6-5.5v-26.4c0.1-2-0.5-3.9-1.6-5.5H524l1.1,7c-0.9-0.3-1.7-0.5-2.6-0.7c-0.6-0.1-2-0.1-4-0.1
	L506.9,206.2z"/>
<path class="st7" d="M51.4,224v7.9c-0.1,2,0.5,3.9,1.6,5.6H35.8c1.1-1.7,1.6-3.6,1.6-5.6v-26.3c0.1-2-0.5-3.9-1.6-5.5h30.6
	c1.6,0,3.2,0.1,4.8,0.4c1,0.2,2,0.7,2.8,1.4c1.6,1.5,2.5,3.7,2.4,5.9v8.5c0.1,2.2-0.7,4.4-2.4,5.9c-0.8,0.7-1.8,1.2-2.8,1.5
	c-1.6,0.3-3.2,0.4-4.8,0.4L51.4,224z M51.4,217.8h7.2c1.6,0,2.6-0.2,3.1-0.8s0.6-1.7,0.6-3.6v-2.9c0.1-1.2-0.1-2.4-0.6-3.6
	c-0.4-0.5-1.2-0.8-2.4-0.8h-7.9V217.8z"/>
<path class="st7" d="M93.8,200h21.8c1.4,0,2.9,0.3,4.2,0.8c1.2,0.5,2.4,1.2,3.3,2.2c1.4,1.5,2.1,4,2.1,7.7v16c0,3.6-0.7,6.2-2.1,7.7
	c-0.9,1-2,1.7-3.3,2.2c-1.3,0.5-2.8,0.8-4.2,0.8H93.8c-1.4,0-2.9-0.3-4.2-0.8c-1.2-0.5-2.4-1.2-3.3-2.2c-1.4-1.5-2.1-4-2.1-7.7v-16
	c0-3.6,0.7-6.2,2.1-7.7c0.9-1,2-1.7,3.3-2.2C91,200.3,92.4,200,93.8,200z M98.5,210.6v16.3c-0.1,1.1,0.1,2.2,0.5,3.3
	c0.6,0.8,1.6,1.1,3.2,1.1h5c1.6,0,2.6-0.3,3-0.8s0.7-1.7,0.7-3.6v-16.4c0.1-1.1-0.1-2.2-0.5-3.3c-0.6-0.8-1.6-1.1-3.2-1.1h-5.6
	c-0.9-0.1-1.9,0.2-2.6,0.9C98.6,208.2,98.4,209.4,98.5,210.6L98.5,210.6z"/>
<path class="st7" d="M143.8,200h21.8c1.4,0,2.9,0.3,4.2,0.8c1.2,0.5,2.4,1.2,3.3,2.2c1.4,1.5,2.1,4,2.1,7.7v16
	c0,3.6-0.7,6.2-2.1,7.7c-0.9,1-2,1.7-3.3,2.2c-1.3,0.5-2.8,0.8-4.2,0.8h-21.8c-1.4,0-2.9-0.3-4.2-0.8c-1.2-0.5-2.4-1.2-3.3-2.2
	c-1.4-1.5-2.1-4-2.1-7.7v-16c0-3.6,0.7-6.2,2.1-7.7c0.9-1,2-1.7,3.3-2.2C141,200.3,142.4,200,143.8,200z M148.5,210.6v16.3
	c-0.1,1.1,0.1,2.2,0.5,3.3c0.6,0.8,1.6,1.1,3.2,1.1h5c1.5,0,2.5-0.3,3-0.8s0.7-1.7,0.7-3.6v-16.4c0.1-1.1-0.1-2.2-0.5-3.3
	c-0.6-0.8-1.6-1.1-3.2-1.1h-5.6c-0.9-0.1-1.9,0.2-2.5,0.9C148.6,208.2,148.3,209.4,148.5,210.6L148.5,210.6z"/>
<path class="st7" d="M217.6,229.9l-1.2,7.6h-32.7c1.1-1.6,1.6-3.6,1.6-5.5v-26.4c0.1-2-0.5-3.9-1.6-5.5h17.4
	c-1.1,1.6-1.6,3.6-1.6,5.5v25.7h13.4C214.6,231.4,216.2,230.9,217.6,229.9z"/>
<path class="st7" d="M276,200l1.3,7.6c-1.3-1-2.8-1.5-4.4-1.5h-1.7h-12.9c-0.7-0.1-1.4,0.1-2,0.4c-0.4,0.4-0.6,1-0.6,1.5v1.3
	c0,1,0.2,1.6,0.5,1.9c0.8,0.4,1.6,0.5,2.5,0.4h9.2c1.7-0.1,3.4,0.1,5.1,0.3c1,0.2,1.9,0.7,2.7,1.4c1.4,1.3,2.1,3.3,2.2,6v10.2
	c0.1,2.2-0.8,4.4-2.5,5.9c-0.8,0.7-1.7,1.2-2.8,1.5c-1.6,0.3-3.1,0.4-4.7,0.4h-24.8l-1.3-7.5c0.9,0.5,1.9,0.9,3,1.1
	c1.7,0.2,3.4,0.3,5.1,0.2h10.9c0.8,0,1.6,0,2.3-0.1c0.3-0.1,0.5-0.3,0.6-0.6c0.1-0.4,0.2-0.9,0.1-1.3V228c0.1-0.6-0.1-1.3-0.3-1.8
	c-0.4-0.4-0.9-0.5-1.4-0.5h-10.6c-1.7,0-3.3-0.1-5-0.3c-1-0.2-1.9-0.6-2.7-1.2c-1.4-1.2-2.1-3.3-2.2-6.2v-10.2
	c-0.1-2.2,0.8-4.4,2.5-5.9c0.8-0.7,1.7-1.2,2.8-1.5c1.5-0.3,3.1-0.4,4.7-0.4H276z"/>
<path class="st7" d="M301.4,206.2v9.1h11.5c1.8,0.1,3.6-0.2,5.3-0.9v8c-0.8-0.6-2.2-1-4.2-1h-12.5v9.9h13.9c1.8-0.1,3.6-0.6,5.3-1.3
	l-1.2,7.5h-33.7c1.1-1.6,1.6-3.6,1.6-5.5v-26.4c0.1-2-0.5-3.9-1.6-5.5h32.9l1.1,7c-0.9-0.3-1.7-0.5-2.6-0.7c-0.6-0.1-2-0.1-4-0.1
	L301.4,206.2z"/>
<path class="st7" d="M347.4,221.5H343v10.4c-0.1,2,0.5,3.9,1.6,5.5h-17.4c1.1-1.6,1.6-3.6,1.6-5.5v-26.4c0.1-2-0.5-3.9-1.6-5.5H358
	c1.6,0,3.2,0.1,4.8,0.4c1,0.2,2,0.7,2.8,1.5c1.6,1.5,2.5,3.7,2.4,5.9v8.1c0.1,1.3-0.1,2.5-0.7,3.7c-0.8,1.3-2.3,2.1-3.9,2
	c-0.2,0-0.6,0-1,0l5.1,10.8c0.8,1.8,1.8,3.5,2.9,5.1H354L347.4,221.5z M343,215.4h8c0.8,0.1,1.7-0.1,2.4-0.6
	c0.5-0.8,0.7-1.7,0.5-2.7v-1.9c0-1.9-0.2-3-0.5-3.4s-1.3-0.6-2.8-0.6H343V215.4z"/>
<path class="st7" d="M400.6,229.8l9-23.9c0.5-1.2,0.8-2.5,0.8-3.9c0-0.7-0.1-1.3-0.3-2h9.5c-0.8,0.6-1.4,1.4-1.9,2.2
	c-0.7,1.4-1.3,2.8-1.8,4.3L404,237.5h-15.7L377,205.7c-0.7-2-1.6-3.9-2.7-5.6h17.5c-0.2,0.6-0.4,1.3-0.4,2c0,1.4,0.3,2.7,0.8,4
	L400.6,229.8z"/>
<path class="st7" d="M441.5,237.5h-17.4c1.1-1.6,1.6-3.6,1.6-5.5v-26.4c0.1-2-0.5-3.9-1.6-5.5h17.4c-1.1,1.6-1.6,3.6-1.6,5.5v26.4
	C439.8,233.9,440.4,235.8,441.5,237.5z"/>
<path class="st7" d="M481.9,200l1.3,7.7c-0.8-0.6-1.7-1-2.7-1.3c-1.4-0.2-2.9-0.3-4.3-0.3h-7.8c-0.8,0-1.6,0.1-2.4,0.2
	c-0.4,0.1-0.8,0.3-1.1,0.7c-0.3,0.4-0.5,0.8-0.6,1.2c-0.1,0.9-0.2,1.8-0.1,2.7v15.9c0,1.8,0.3,2.9,1,3.5s2,0.9,3.9,0.9h7.4
	c2.4,0.1,4.9-0.3,7.2-1.2l-1.2,7.3h-23c-2.7,0.1-5.4-1-7.3-3c-0.8-0.9-1.4-1.9-1.8-3.1c-0.4-1.5-0.5-3-0.5-4.6v-16
	c0-1.5,0.1-3.1,0.5-4.6c0.4-1.2,1-2.2,1.8-3.1c1.9-2,4.5-3.1,7.3-3L481.9,200z"/>
<path class="st7" d="M506.9,206.2v9.1h11.5c1.8,0.1,3.6-0.2,5.3-0.9v8c-0.8-0.6-2.2-1-4.2-1h-12.5v9.9h13.9c1.8-0.1,3.6-0.6,5.3-1.3
	l-1.2,7.5h-33.7c1.1-1.6,1.6-3.6,1.6-5.5v-26.4c0.1-2-0.5-3.9-1.6-5.5H524l1.1,7c-0.9-0.3-1.7-0.5-2.6-0.7c-0.6-0.1-2-0.1-4-0.1
	L506.9,206.2z"/>
<path class="st8" d="M116.7,253.4c1.3-2,2.8-1.6,4.3,1.1c1.5,2.8,1.6,6.2,0.3,10.5c-0.7,2.2-1.3,4.7-2,7.7c-0.7,2.9-1.3,6-1.9,9.2
	c-0.6,2.6-1.1,5.3-1.5,7.9c-0.5,2.6-0.9,5.1-1.3,7.5c-0.1,0.6,0,0.8,0.2,0.8s0.5-0.2,0.7-0.7c2.3-4.3,4.8-8.9,7.4-14
	c1.5-2.8,3-5.6,4.4-8.4l4.2-7.9c2-3.7,3.6-7,4.9-9.9c0.9-2.1,2-4.2,3.2-6.2c0.7-1.2,1.5-1.6,2.3-1.3c0.9,0.4,1.6,1.1,2.1,2
	c0.6,1,1.1,2.2,1.4,3.3c0.3,0.8,0.4,1.7,0.3,2.6c-1.1,3.7-2.3,7.9-3.5,12.4c-1.2,4.5-2.2,9.3-3.1,14.2c-0.9,4.9-1.5,9.9-1.9,14.9
	c-0.3,3.8-0.4,7.7-0.3,11.5c0.1,2.1,0.4,4.1,1,6.1c0.5,1.6,0.4,2.4-0.4,2.4s-1.7-0.8-2.9-2.2c-1.3-1.8-2.5-3.6-3.5-5.5
	c-1.2-2.2-1.7-4-1.6-5.4c0.5-4.5,1.2-8.8,2-13.1c0.8-4.3,1.8-8.4,2.9-12.4c1-4,2-7.5,2.9-10.6c0.9-3,1.9-6.3,2.9-9.8
	c0.2-0.8,0.2-1.3-0.1-1.5c-0.3-0.1-0.6,0.1-1,0.8c-1.1,2.2-2.7,5.1-4.7,8.7c-2,3.6-4.2,7.8-6.6,12.7c-2.9,5.9-5.9,12.1-8.9,18.4
	s-5.5,12.2-7.5,17.4c-0.3,0.5-0.8,0.7-1.3,0.7c-0.7-0.1-1.3-0.4-1.6-1c-0.9-0.8-1.5-1.8-1.9-2.9c-0.3-0.7-0.6-1.5-0.8-2.3
	c0-2.3,0.3-4.5,0.9-6.7c0.7-3.5,1.7-7.8,3-13c1.8-7.1,3.2-12.7,4.2-16.8s2-8,2.9-11.7c0.2-0.9-0.1-1.3-1-1.1
	c-2.8,5.9-5.6,12-8.3,18.1c-2.6,5.8-5.4,11.5-8.6,17c-2.7,4.7-5.9,9-9.7,12.9c-3,3.2-7.1,5.2-11.5,5.7c-1.8,0.2-3.7,0-5.4-0.7
	c-1.2-0.5-2.3-1.3-3.3-2.2c-0.6-0.6-1.1-1.5-1.2-2.3c-0.1-0.7,0.1-1.1,0.6-1c6.7,0.4,13.3-2,18.3-6.4c5.3-4.7,9.8-10.2,13.4-16.2
	c3.6-6,6.8-12.3,9.6-18.8C111.7,262.9,114,258,116.7,253.4z"/>
<path class="st9" d="M148.3,295.3c-0.2,1.4,0.1,2.8,0.8,4c1.3,2,3.3,2.2,5.9,0.6c1.9-1.5,3.7-3.1,5.4-4.9c1.4-1.5,2.7-3,4-4.6
	c1.3-1.7,2.5-3.3,3.4-4.7c0.4-0.5,0.7-0.5,0.9-0.1c0.2,0.4-0.1,1.3-0.8,2.4c-1,1.6-2.3,3.3-3.7,5.2c-1.4,1.9-3.2,4.1-5.5,6.6
	c-4,4.2-7.8,6.1-11.5,5.6c-1.7-0.2-3.2-1.1-4.1-2.6c-1-1.5-1.4-3.9-1.1-7c0.2-2.9,1.1-5.7,2.5-8.2c1.3-2.5,2.8-4.9,4.6-7.1
	c3.9-4.6,7.7-6.8,11.4-6.4c2.7,0.3,3.9,1.8,3.7,4.5c-0.3,1.5-0.9,2.9-1.6,4.3c-1.6,3-3.8,5.8-6.4,8c-2.1,1.9-4.6,3.1-7.3,3.7
	C148.5,294.7,148.3,294.9,148.3,295.3z M150.2,287c-0.7,1.5-1.2,3-1.5,4.5c-0.2,1,0.2,1.2,1.2,0.5c2.5-1.8,4.7-3.8,6.6-6.1
	c1.1-1.3,2.1-2.6,3-4c0.8-1.1,1.4-2.3,1.8-3.6c0.3-1.4,0.1-2.2-0.6-2.3c-1.1,0-2.2,0.5-3,1.2c-1.5,1.1-2.8,2.5-4,3.9
	C152.2,282.9,151,284.9,150.2,287z"/>
<path class="st8" d="M195.3,253.5c0.5-0.4,1.2-0.3,2.2,0.5c1,0.7,1.4,1.4,1.2,2.1c-0.1,0.2-1.2,3-3.3,8.3c-2,5.3-4.2,10.9-6.4,16.9
	s-4.2,11.6-6,16.6c-1.8,5.1-2.8,7.9-2.8,8.3c-0.1,0.8-0.9,0.7-2.3-0.4c-1.4-1-2.1-2-2.1-2.9c0.1-1.2,0.3-2.3,0.7-3.4
	c0.5-1.7,1.2-3.7,2-6.1c0.1-0.2,0.1-0.5-0.1-0.7c-0.2-0.1-0.4,0-0.6,0.3l-2.8,4c-0.9,1.4-1.9,2.6-2.8,3.7c-2.1,2.6-3.7,4.1-4.9,4.3
	c-1.2,0.3-2.5,0-3.3-0.9c-0.9-0.9-1.6-2-2-3.2c-0.4-1-0.6-2-0.7-3c-0.2-2.6,0.3-5.2,1.3-7.7c1-2.3,2.3-4.5,4-6.3
	c3.4-3.8,7.1-5.8,11-6.1c2.2-0.1,4.1-0.2,5.7-0.1c0.8,0.1,1.6-0.5,1.9-1.3c1.2-2.9,2.4-5.7,3.5-8.4c1.1-2.7,2.2-5.1,3.2-7.3
	C193.9,256.2,195,253.8,195.3,253.5z M183.4,281.1c0.4-0.8,0.1-1.3-0.8-1.5c-0.7-0.1-1.4-0.1-2.1,0c-0.8,0.1-1.6,0.3-2.3,0.6
	c-1.7,0.9-3.2,2.1-4.3,3.6c-1.5,1.8-2.9,3.9-4,6c-1.1,2-1.9,4.1-2.4,6.4c-0.4,2.1-0.2,3.6,0.6,4.7c0.2,0.3,1.1-0.5,2.7-2.3
	c1.6-1.8,3.2-3.9,5-6.2c1.5-1.9,2.8-3.8,4-5.4l2.2-3c0.3-0.4,0.5-0.9,0.8-1.4C183.1,282,183.2,281.5,183.4,281.1z"/>
<path class="st8" d="M206.8,253.5c0.9,0.1,1.8,0.4,2.5,0.9c0.9,0.7,1.7,1.6,2.2,2.7c0.7,1.9,1,4,0.7,6c-0.3,2.5-0.9,4.9-1.9,7.2
	c-0.9,2.4-2.1,4.8-3.5,7c-1.3,2.1-2.8,4-4.5,5.7c-0.5,0.5-0.3,0.7,0.5,0.7l2.7,0.1l2.8,0.2c2,0.1,3.4,0.7,4.2,1.6
	c0.8,0.9,0.6,1.4-0.7,1.3c-0.2,0-1,0-2.3,0.2l-4.5,0.3c-3.6,0.3-6.8,0.5-9.6,0.7c-0.4,0-0.8,0.3-1,0.7c-1.6,4.7-3.3,9.5-4.9,14.5
	c-1.6,4.8-2.9,9.3-4,13.4c-1.1,4.1-1.9,7.7-2.5,10.6c-0.5,3-0.7,5-0.4,6c0.2,0.9,0,1.3-0.8,1.2c-0.9-0.2-1.8-0.5-2.7-1
	c-1-0.6-1.9-1.3-2.8-2c-0.9-0.8-1.3-1.3-1.3-1.8c0.2-1.8,0.6-3.6,1.2-5.4c0.8-2.7,1.9-6,3.3-9.8c0.5-1.5,1.1-3,1.7-4.6
	c0.6-1.6,1.2-3.2,1.8-4.9c1-2.7,2.1-5.5,3.2-8.4c1.1-2.9,2.3-5.8,3.5-8.6c0.2-0.4,0-0.8-0.3-1c-1-0.8-1.2-1.3-0.6-1.7
	c0.6-0.3,1.1-0.5,1.7-0.6c0.4-0.1,0.7-0.5,1-1.1c1.7-4,3.4-7.8,5-11.5c1.6-3.7,3.1-6.9,4.5-9.7c1.3-2.7,2.5-4.9,3.5-6.5
	C205.7,254.3,206.4,253.5,206.8,253.5z M207.1,258.4c-1.7,2.9-3.2,6-4.5,9.2c-1.8,4.1-3.6,8.7-5.5,13.8c-0.3,0.8-0.1,1,0.6,0.4
	c1.8-1.6,3.3-3.3,4.7-5.2c1.7-2.3,3.2-4.8,4.5-7.3c1.2-2.2,2.2-4.6,2.9-7.1c0.6-2.2,0.5-3.8-0.4-4.7c-0.5-0.6-1-0.7-1.4-0.3
	C207.6,257.6,207.3,258,207.1,258.4z"/>
<path class="st8" d="M229.9,284.3c-0.1,0.4,0.1,0.5,0.4,0.3c2-1,4-2,5.9-3c0.7-0.4,1.1-0.2,1.1,0.6c0,0.4-0.7,1.2-2.2,2.3
	c-1.7,1.3-3.5,2.4-5.4,3.4c-0.3,0.1-0.6,0.4-0.7,0.7c-0.5,1.8-1.2,3.6-1.9,5.3c-0.9,2-2,3.9-3.4,5.6c-1.4,1.8-3.1,3.3-5,4.5
	c-1.9,1.3-4.2,2-6.5,2c-2.1,0.2-4.2-0.7-5.6-2.3c-1.5-1.8-2.3-3.9-2.5-6.2c-0.2-2.9,0.2-5.8,1.2-8.5c1.2-3.4,3-6.6,5.4-9.3
	c3.1-3.6,6.3-5.8,9.7-6.7c3.4-0.8,5.5,0.2,6.3,2.9c0.1,0.7,0.3,1,0.5,1c0.3,0,0.6,0.2,0.9,0.3c0.8,0.7,1.3,1.6,1.5,2.6
	C230,281.3,230.1,282.8,229.9,284.3z M211.9,286.4c-1.6,4.5-2.1,8.2-1.4,11.1c0.6,2.5,1.9,3.9,4,4.2c2.1,0.3,4.1-0.5,6.1-2.5
	c2.5-2.5,4.2-5.7,5-9.2c0.1-0.4,0-0.6-0.4-0.5c-1.3,0.3-2.8,0.4-4.1,0.1c-1.3-0.3-2.4-1-3.2-2c-1.4-1.8-1.4-3.8,0.2-6
	c1.5-2,3.5-3.4,5.8-4.3c0.4-0.1,0.6-0.4,0.6-0.8c0.1-1.4-0.4-2.1-1.4-2.1c-1.3,0.1-2.6,0.6-3.5,1.5c-1.6,1.2-3.1,2.7-4.3,4.3
	C213.8,282,212.7,284.1,211.9,286.4L211.9,286.4z M226.5,284.8c0.1-1.1,0-2.3-0.3-3.4c-0.4-0.8-0.9-1-1.5-0.7
	c-2.9,1.4-4.5,3.1-4.8,5s1.7,2.2,6.1,0.7c0.2-0.1,0.4-0.3,0.4-0.7C226.4,285.4,226.5,285.1,226.5,284.8L226.5,284.8z"/>
<path class="st8" d="M245.3,281.8c0.5-0.7,0.3-1-0.5-1c-0.5,0-1,0-1.5,0s-1,0-1.6,0c-0.5,0.1-0.9,0.3-1.2,0.7
	c-1.1,1.6-2.1,3.4-3,5.2c-1.2,2.3-2.3,4.8-3.5,7.5c-1.2,2.7-2.2,5-3.1,7.2c-0.9,2.1-1.3,3.3-1.4,3.6c-0.3,0.7-0.7,0.6-1-0.4
	c-0.3-0.9-0.5-1.9-0.5-2.9c-0.1-1.1,0.1-2.3,0.5-3.3c0.8-1.7,1.6-3.4,2.4-5c0.8-1.6,1.6-3.2,2.4-4.7c1.2-2.5,2.5-4.9,3.8-7.3
	s2.5-4.9,3.8-7.4c0.8-1.6,1.4-3.2,2-4.9c0.3-1,1.1-1,2.3,0s1.5,1.8,0.9,2.6c-0.7,0.9-1.3,1.8-1.8,2.7c-0.7,1.1-1.3,2.3-1.8,3.5
	c-0.2,0.6-0.1,0.9,0.2,0.9s1,0,1.9-0.1s1.8-0.1,2.7-0.1c1.2,0,2.3,0,3.5,0.2c1,0.2,1.3,0.5,0.9,1.1c-1.3,1.8-2.3,3.8-3.1,5.9
	c-0.8,2.2-1.6,4.4-2.1,6.7c-0.5,1.7-0.8,3.5-0.9,5.3c0,1.3,0.3,1.8,1,1.3c1.9-1.8,3.6-3.9,5-6c2-2.8,3.9-5.4,5.7-7.9
	c0.4-0.5,0.7-0.6,1-0.4c0.1,0.1,0.2,0.5,0.1,1c-0.1,0.4-0.3,0.8-0.6,1.1c-0.3,0.4-0.5,0.7-0.5,0.8l-3.2,4.9l-3.5,5.4
	c-1,1.4-2,2.8-3.1,4.1c-0.9,1.1-1.9,2-3.1,2.8c-2.2,1.3-3.7,1.4-4.6,0.1c-0.9-1.2-1.2-3.1-0.9-5.7c0.3-2.9,1-5.8,2-8.5
	C241.9,287.5,243.4,284.6,245.3,281.8z"/>
<path class="st8" d="M284.4,253.5c0.5-0.4,1.2-0.3,2.2,0.5c1,0.7,1.4,1.4,1.2,2.1c-0.1,0.2-1.2,3-3.3,8.3c-2,5.3-4.2,10.9-6.4,16.9
	c-2.2,6-4.2,11.6-6,16.6c-1.8,5.1-2.7,7.9-2.8,8.3c-0.1,0.8-0.9,0.7-2.3-0.4c-1.4-1-2.1-2-2.1-2.9c0.1-1.2,0.3-2.3,0.7-3.4
	c0.5-1.7,1.2-3.7,2-6.1c0.1-0.2,0.1-0.5-0.1-0.7c-0.2-0.1-0.4,0-0.6,0.3l-2.8,4c-1,1.4-1.9,2.6-2.8,3.7c-2.1,2.6-3.7,4.1-4.9,4.3
	c-1.2,0.4-2.5,0-3.3-0.9c-0.9-0.9-1.6-2-2-3.2c-0.4-1-0.6-2-0.7-3c-0.2-2.6,0.3-5.3,1.3-7.7c1-2.3,2.3-4.5,4-6.3
	c3.4-3.8,7.1-5.8,11-6.1c2.2-0.1,4.1-0.2,5.7-0.1c0.8,0.1,1.6-0.5,1.9-1.3c1.2-2.9,2.3-5.7,3.5-8.4c1.1-2.7,2.2-5.1,3.1-7.3
	C283,256.2,284.1,253.8,284.4,253.5z M272.5,281.1c0.4-0.8,0.1-1.3-0.8-1.5c-0.7-0.1-1.4-0.1-2.1,0c-0.8,0.1-1.6,0.3-2.3,0.6
	c-1.7,0.9-3.2,2.1-4.3,3.6c-1.5,1.8-2.9,3.9-3.9,6c-1.1,2-1.9,4.1-2.4,6.4c-0.4,2.1-0.2,3.6,0.6,4.7c0.2,0.3,1.1-0.5,2.7-2.3
	c1.6-1.8,3.2-3.9,5-6.2c1.5-1.9,2.8-3.8,4-5.4l2.2-3c0.3-0.4,0.5-0.9,0.7-1.4C272,282,272.3,281.5,272.5,281.1z"/>
<path class="st8" d="M285.8,297.5c1,0.1,1.8,0.9,2,1.9c0.1,1.1-0.2,2.3-0.8,3.2c-0.6,1.2-1.3,2.2-2.3,3.1c-0.4,0.4-1.8,1.8-4.1,4
	c-2.3,2.2-3.6,3.4-3.9,3.4c-0.8,0-1.3-0.5-1.6-1.5c-0.1-0.5,0.7-2.1,2.5-4.7c1.8-2.6,2.8-4.3,2.9-5c0.1-1.3,0.7-2.6,1.6-3.5
	C283.2,297.5,284.6,297.2,285.8,297.5z"/>
<path class="st8" d="M315,316.3c-3.6-1.5-6-4.5-7.1-9c-1.1-4.7-1.2-9.6-0.2-14.3c1-5.1,2.6-10,4.7-14.7c1.9-4.3,4.3-8.4,7-12.3
	c2.6-3.7,5.9-6.9,9.6-9.6c3-2.2,6.4-3.8,10-4.6c2.7-0.7,5.6-0.2,7.9,1.3c2.2,1.5,3.3,4.2,3.4,8.2c0,0.4-0.1,0.8-0.3,1.2
	c0,0.8,0.2,1.5,0.6,2.2c1.8,4.1,2,9.2,0.6,15.2c-1.3,5.9-3.4,11.7-6.3,17.1c-1,1.8-2.4,4.1-4.2,6.9c-1.9,2.8-4.1,5.4-6.7,7.6
	c-2.6,2.3-5.5,4-8.7,5.2C322,317.9,318.3,317.8,315,316.3z M317.6,280.5c-3.7,10-4.7,17.5-3,22.4c1.8,4.9,4.7,7.4,8.7,7.5
	c4,0.1,8.6-2.7,13.2-8.2c4.9-6,8.3-13,10.1-20.5c1.1-5.9,1.1-9.9,0-11.9c-0.8-1.8-2.8-2.9-4.8-2.6c-2.7,0.4-5.3,2.1-7.8,5.2
	c-2,2.3-3.7,4.9-4.9,7.6c-0.4,0.9-0.7,1.3-1.1,1.1c-0.4-0.3-0.6-0.8-0.5-1.3c-0.1-3,0.5-5.9,1.7-8.6c1.2-2.8,3-5.3,5.4-7.1
	c2.8-2.3,6.4-3.5,10-3.4c0.7,0.1,1.1-0.2,1.2-0.9c0.2-3.3-0.8-5-3-5.1c-2.2-0.1-4.8,0.9-7.8,3c-3.7,2.7-7,5.8-9.8,9.4
	C322,271.1,319.4,275.7,317.6,280.5L317.6,280.5z"/>
<path class="st8" d="M365.7,281.8c0.5-0.7,0.3-1-0.5-1c-0.5,0-1,0-1.5,0s-1,0-1.6,0c-0.5,0.1-0.9,0.3-1.2,0.7
	c-1.1,1.6-2.1,3.4-3,5.2c-1.2,2.3-2.3,4.8-3.5,7.5c-1.2,2.7-2.2,5-3.1,7.2c-0.9,2.1-1.3,3.3-1.4,3.6c-0.3,0.7-0.7,0.6-1-0.4
	c-0.3-0.9-0.5-1.9-0.5-2.9c-0.1-1.1,0.1-2.3,0.5-3.3c0.8-1.7,1.6-3.4,2.4-5c0.8-1.6,1.6-3.2,2.4-4.7c1.2-2.5,2.5-4.9,3.8-7.3
	s2.5-4.9,3.8-7.4c0.8-1.6,1.4-3.2,2-4.9c0.3-1,1.1-1,2.3,0c1.2,1,1.5,1.8,0.9,2.6c-0.7,0.9-1.3,1.8-1.8,2.7
	c-0.7,1.1-1.3,2.3-1.8,3.5c-0.2,0.6-0.1,0.9,0.2,0.9s1,0,1.9-0.1s1.8-0.1,2.7-0.1c1.2,0,2.3,0,3.5,0.2c1,0.2,1.3,0.5,0.9,1.1
	c-1.3,1.8-2.3,3.8-3.1,5.9c-0.8,2.2-1.6,4.4-2.1,6.7c-0.5,1.7-0.8,3.5-0.9,5.3c0,1.3,0.3,1.8,1,1.3c1.9-1.8,3.6-3.9,5-6
	c2-2.8,3.9-5.4,5.7-7.9c0.4-0.5,0.7-0.6,1-0.4c0.3,0.2,0.2,0.5,0.1,1c-0.1,0.4-0.3,0.8-0.6,1.1c-0.3,0.4-0.5,0.7-0.5,0.8l-3.2,4.9
	l-3.5,5.4c-1,1.4-2,2.8-3.1,4.1c-0.9,1.1-1.9,2-3.1,2.8c-2.2,1.3-3.7,1.4-4.6,0.1c-0.9-1.2-1.2-3.1-0.9-5.7c0.3-2.9,1-5.8,2-8.5
	C362.3,287.5,363.8,284.6,365.7,281.8z"/>
<path class="st8" d="M378.6,295.3c-0.2,1.4,0.1,2.8,0.8,4c1.3,2,3.3,2.2,5.9,0.6c1.9-1.5,3.7-3.1,5.4-4.9c1.4-1.5,2.7-3,4-4.6
	c1.3-1.7,2.5-3.3,3.4-4.7c0.4-0.5,0.7-0.5,0.9-0.1c0.2,0.4-0.1,1.3-0.8,2.4c-1,1.6-2.3,3.3-3.7,5.2c-1.4,1.9-3.2,4.1-5.5,6.6
	c-4,4.2-7.8,6.1-11.5,5.6c-1.7-0.2-3.2-1.1-4.1-2.6c-1-1.5-1.4-3.9-1.1-7c0.3-2.9,1.1-5.7,2.5-8.2c1.3-2.5,2.8-4.9,4.6-7.1
	c3.9-4.6,7.7-6.8,11.4-6.4c2.7,0.3,3.9,1.8,3.7,4.5c-0.3,1.5-0.9,2.9-1.6,4.3c-1.6,3-3.8,5.8-6.4,8c-2.1,1.9-4.6,3.1-7.3,3.7
	C378.8,294.7,378.6,294.9,378.6,295.3z M380.5,287c-0.7,1.5-1.2,3-1.5,4.5c-0.2,1,0.1,1.2,1.2,0.5c2.5-1.8,4.7-3.8,6.6-6.1
	c1.1-1.3,2.1-2.6,3-4c0.8-1.1,1.4-2.3,1.8-3.6c0.3-1.4,0.1-2.2-0.6-2.3c-1.1,0-2.2,0.5-3,1.2c-1.5,1.1-2.8,2.5-4,3.9
	C382.5,282.9,381.3,284.9,380.5,287z"/>
<path class="st8" d="M419.4,278.6c-0.9,2.3-1.8,4.8-2.6,7.6c-0.8,2.8-1.6,5.7-2.5,8.6c-0.8,3-1.8,6-2.8,9c-0.9,2.9-2,5.8-3.3,8.5
	c-1.2,2.6-2.6,5.1-4.2,7.5c-1.5,2.2-3.3,4.1-5.3,5.7c-4.4,3.2-9.6,4.2-15.6,3c-2.2-0.6-4.3-1.4-6.3-2.4c-2.8-1.3-4.4-2.3-4.7-2.9
	c-0.8-1.7-0.1-2,2-0.9c2.3,1.1,4.8,1.8,7.3,2c2.9,0.2,5.8-0.2,8.5-1.1c3.2-1.2,6.1-3.1,8.5-5.5c3.1-3.1,5.5-6.8,7.1-10.9
	c0.8-2,1.7-4.1,2.5-6.5c0.9-2.4,1.7-4.8,2.5-7.2c0.1-0.2,0-0.4-0.1-0.5c-0.1-0.1-0.3,0-0.6,0.3c-1.3,1.7-3,4.1-5.2,7.3
	s-4,4.8-5.5,4.8c-1.4,0.1-2.8-0.7-4.3-2.1c-1.5-1.4-2.3-3.3-2.3-5.4c-0.2-4.5,0.9-8.9,3-12.9c1.7-3.3,4.1-6.1,7.2-8.2
	c2.8-1.9,5.4-2.6,7.8-2.2c2.1,0.4,3.7,1.9,4.3,3.9c0.2,0.8,0.5,0.8,0.7,0c0.2-0.6,0.5-1.3,0.9-1.8c0.3-0.3,0.9-0.2,1.9,0.4
	C419.4,277.4,419.7,278,419.4,278.6z M405.2,278.9c-2,2.4-3.6,5.2-4.6,8.2c-1,2.6-1.7,5.3-2.1,8c-0.3,1.8-0.3,3.6,0.2,5.4
	c0.4,1.2,1.2,1.2,2.2,0.2c1.9-2,3.7-4.1,5.2-6.3c1.5-1.9,2.9-3.9,4.1-6c1.2-1.9,2-4.1,2.3-6.4c0.2-1.5,0-3-0.7-4.4
	c-0.6-1-1.7-1.5-2.8-1.3C407.9,276.3,406.6,277.2,405.2,278.9z"/>
<path class="st8" d="M442.6,284.3c-0.1,0.4,0,0.5,0.4,0.3c2-1,4-2,5.9-3c0.7-0.4,1.1-0.2,1.1,0.6c0,0.4-0.7,1.2-2.2,2.3
	c-1.7,1.3-3.5,2.4-5.4,3.4c-0.3,0.1-0.6,0.4-0.7,0.7c-0.5,1.8-1.2,3.6-1.9,5.3c-0.9,2-2,3.9-3.4,5.6c-1.4,1.8-3.1,3.3-5,4.5
	c-1.9,1.3-4.2,2-6.5,2c-2.1,0.2-4.2-0.7-5.6-2.3c-1.5-1.7-2.3-3.9-2.5-6.2c-0.2-2.9,0.2-5.8,1.2-8.5c1.2-3.4,3-6.6,5.4-9.3
	c3.1-3.6,6.3-5.8,9.7-6.7c3.4-0.8,5.5,0.1,6.3,2.9c0.1,0.7,0.3,1,0.5,1c0.3,0,0.6,0.2,0.9,0.3c0.8,0.7,1.3,1.6,1.5,2.6
	C442.7,281.3,442.8,282.8,442.6,284.3z M424.6,286.4c-1.6,4.5-2.1,8.2-1.5,11.1c0.6,2.5,1.9,3.9,4,4.2s4.1-0.5,6.2-2.5
	c2.5-2.5,4.2-5.7,5-9.2c0.1-0.4,0-0.6-0.4-0.5c-1.3,0.3-2.8,0.4-4.1,0.1c-1.3-0.3-2.4-1-3.2-2c-1.4-1.8-1.3-3.8,0.2-6
	c1.5-2,3.5-3.4,5.8-4.3c0.4-0.1,0.6-0.4,0.6-0.8c0.1-1.4-0.4-2.1-1.4-2.1c-1.3,0.1-2.6,0.6-3.5,1.5c-1.6,1.2-3.1,2.7-4.3,4.3
	C426.5,282,425.3,284.1,424.6,286.4L424.6,286.4z M439.2,284.8c0.1-1.1,0-2.3-0.3-3.4c-0.3-0.8-0.9-1-1.5-0.7
	c-2.9,1.4-4.5,3.1-4.8,5c-0.3,1.9,1.7,2.2,6.1,0.7c0.2-0.1,0.4-0.3,0.4-0.7C439.1,285.4,439.2,285.1,439.2,284.8L439.2,284.8z"/>
<path class="st8" d="M445.3,305c-0.4,0.7-1.2,0.5-2.4-0.6c-1.1-0.8-1.8-2.1-1.7-3.5c0.3-1.6,0.7-3.1,1.3-4.6
	c0.8-2.1,1.7-4.3,2.8-6.7s2.1-4.8,3.2-7.1c1.1-2.4,2-4.3,2.8-5.8c0.3-0.6,1-0.4,2,0.9s1.3,2.4,0.8,3.4c-0.3,0.7-0.7,1.5-1,2.3
	s-0.7,1.8-1.1,2.8c-0.3,0.8-0.5,1.5-0.8,2.3s-0.6,1.6-0.8,2.4c-0.1,0.2-0.1,0.4,0.1,0.4c0.1,0.1,0.2,0,0.4-0.2
	c1.1-1.6,2.2-3.1,3.4-4.6c1.2-1.5,2.3-2.9,3.3-4.1c2.7-3.1,4.3-4.7,4.8-4.8c1.2-0.2,2.2,0.4,3,2c0.8,1.6,1.2,2.6,0.9,3.1
	c-1.5,3.5-2.9,7.2-3.9,10.9c-0.6,2.1-1.1,4.2-1.4,6.4c-0.3,2-0.4,4.1-0.2,6.1c0.1,1.5,0,2.1-0.4,2c-0.5-0.3-1.1-0.6-1.5-1
	c-0.8-0.6-1.5-1.4-2.2-2.1c-0.6-0.5-1-1.2-1.3-2c-0.6-2.3-0.1-5.8,1.7-10.6c1-2.7,2.5-6,4.5-10c0.1-0.3,0.2-0.5,0-0.6
	c-0.2-0.1-0.3,0.1-0.6,0.4c-2.1,2.2-4.3,4.8-6.6,7.7c-1.4,1.8-2.8,3.6-4.1,5.4c-1.2,1.6-2.2,3.3-3.1,5.1c-0.3,0.5-0.5,1.1-0.6,1.6
	c-0.2,0.5-0.3,1-0.4,1.4C445.6,304.2,445.4,304.8,445.3,305z"/>
<path class="st10" d="M115.9,250.9c1.3-2,2.7-1.6,4.3,1.1s1.6,6.2,0.3,10.5c-0.7,2.2-1.3,4.7-2,7.7c-0.7,2.9-1.3,6-1.9,9.2
	c-0.6,2.6-1.1,5.3-1.5,7.9c-0.5,2.6-0.9,5.2-1.3,7.5c-0.1,0.6,0,0.8,0.2,0.8s0.5-0.2,0.7-0.7c2.3-4.3,4.7-8.9,7.4-14
	c1.5-2.8,2.9-5.6,4.4-8.4l4.2-7.9c1.9-3.7,3.6-7,4.9-9.9c0.9-2.1,2-4.2,3.2-6.2c0.8-1.2,1.5-1.6,2.3-1.3c0.9,0.4,1.6,1.1,2.1,2
	c0.6,1,1.1,2.2,1.4,3.3c0.3,0.8,0.4,1.7,0.3,2.6c-1.2,3.7-2.3,7.9-3.5,12.4c-1.2,4.6-2.2,9.3-3.1,14.2c-0.9,4.9-1.5,9.9-1.9,14.9
	c-0.3,3.8-0.4,7.7-0.3,11.5c0.1,2.1,0.4,4.1,1,6.1c0.5,1.6,0.4,2.4-0.4,2.4s-1.7-0.8-2.9-2.2c-1.3-1.8-2.5-3.6-3.5-5.5
	c-1.2-2.2-1.7-4-1.6-5.4c0.5-4.5,1.2-8.8,2-13.1s1.8-8.4,2.9-12.4c1-4,2-7.5,2.9-10.6l2.9-9.8c0.2-0.8,0.2-1.3-0.1-1.5
	c-0.3-0.1-0.6,0.1-1,0.8c-1.1,2.2-2.7,5.1-4.7,8.7c-2,3.6-4.2,7.8-6.6,12.7c-2.9,6-5.9,12.1-8.9,18.5c-3,6.3-5.5,12.2-7.5,17.4
	c-0.3,0.5-0.8,0.8-1.3,0.7c-0.7-0.1-1.3-0.4-1.6-1c-0.9-0.8-1.5-1.8-1.9-2.9c-0.3-0.7-0.6-1.5-0.8-2.3c0-2.3,0.3-4.5,0.9-6.7
	c0.7-3.5,1.7-7.8,2.9-13c1.8-7.1,3.3-12.7,4.3-16.8c1-4,2-7.9,2.9-11.7c0.2-0.9-0.1-1.3-0.9-1.1c-2.8,5.9-5.6,12-8.3,18.1
	c-2.6,5.8-5.4,11.5-8.6,17c-2.7,4.7-5.9,9-9.7,12.9c-3,3.2-7.1,5.2-11.5,5.6c-1.8,0.2-3.7,0-5.4-0.7c-1.2-0.5-2.3-1.3-3.2-2.2
	c-0.6-0.6-1.1-1.5-1.2-2.3c-0.1-0.7,0.1-1.1,0.6-1c6.7,0.4,13.3-2,18.3-6.4c5.3-4.7,9.8-10.2,13.4-16.2c3.6-6,6.8-12.3,9.6-18.8
	C110.9,260.5,113.2,255.6,115.9,250.9z"/>
<path class="st10" d="M147.5,292.9c-0.2,1.4,0.1,2.8,0.8,4c1.3,2,3.3,2.2,5.9,0.6c1.9-1.5,3.7-3.1,5.4-4.9c1.4-1.5,2.7-3,4-4.6
	c1.3-1.7,2.5-3.3,3.4-4.7c0.4-0.5,0.7-0.5,0.9-0.1s-0.1,1.3-0.8,2.4c-1,1.6-2.3,3.3-3.7,5.2c-1.7,2.3-3.6,4.5-5.5,6.6
	c-4,4.2-7.8,6.1-11.5,5.7c-1.7-0.2-3.2-1.1-4.1-2.6c-1-1.5-1.4-3.9-1.1-7c0.2-2.9,1.1-5.7,2.5-8.2c1.3-2.5,2.8-4.9,4.6-7.1
	c3.9-4.7,7.7-6.8,11.4-6.4c2.7,0.3,3.9,1.8,3.7,4.5c-0.3,1.5-0.9,2.9-1.6,4.3c-1.6,3-3.8,5.8-6.4,8c-2.1,1.9-4.6,3.1-7.3,3.7
	C147.7,292.3,147.5,292.5,147.5,292.9z M149.4,284.5c-0.7,1.5-1.2,3-1.5,4.5c-0.2,1,0.2,1.2,1.2,0.5c2.5-1.8,4.7-3.8,6.6-6.1
	c1.1-1.3,2.1-2.6,3-4c0.8-1.1,1.4-2.3,1.8-3.6c0.3-1.4,0.1-2.2-0.6-2.3c-1.1,0-2.2,0.5-3,1.2c-1.5,1.1-2.8,2.5-4,3.9
	C151.4,280.5,150.2,282.5,149.4,284.5z"/>
<path class="st10" d="M194.5,251.1c0.5-0.4,1.2-0.3,2.2,0.5s1.4,1.5,1.2,2.1c-0.1,0.2-1.2,3-3.3,8.3s-4.2,10.9-6.4,16.9
	s-4.2,11.6-6,16.7c-1.8,5.1-2.8,7.8-2.8,8.3c-0.1,0.8-0.9,0.7-2.3-0.4s-2.1-2-2.1-2.9c0.1-1.2,0.3-2.3,0.7-3.4
	c0.5-1.7,1.2-3.7,2-6.1c0.1-0.2,0.1-0.5-0.1-0.7c-0.2-0.1-0.4,0-0.6,0.3l-2.8,4c-1,1.4-1.9,2.6-2.8,3.7c-2.1,2.6-3.7,4.1-4.9,4.3
	c-1.2,0.3-2.5,0-3.3-0.9c-0.9-0.9-1.6-2-2-3.2c-0.4-1-0.6-2-0.7-3c-0.2-2.6,0.3-5.3,1.3-7.7c1-2.3,2.3-4.4,4-6.3
	c3.4-3.8,7.1-5.8,11-6.1c2.2-0.1,4.1-0.2,5.7-0.1c0.8,0.1,1.6-0.5,1.9-1.3c1.2-2.9,2.4-5.7,3.5-8.4c1.1-2.7,2.2-5.1,3.1-7.3
	C193.1,253.8,194.2,251.3,194.5,251.1z M182.6,278.7c0.4-0.8,0.1-1.3-0.8-1.5c-0.7-0.1-1.4-0.1-2.1,0c-0.8,0.1-1.6,0.3-2.3,0.6
	c-1.7,0.9-3.2,2.1-4.3,3.6c-1.5,1.8-2.9,3.9-4,6c-1.1,2-1.9,4.1-2.4,6.4c-0.4,2.1-0.2,3.6,0.6,4.7c0.2,0.3,1.1-0.5,2.7-2.3
	c1.6-1.8,3.2-3.9,5-6.2c1.5-1.9,2.8-3.7,4-5.4c1.2-1.7,2-2.7,2.2-3c0.3-0.4,0.5-0.9,0.8-1.4L182.6,278.7z"/>
<path class="st10" d="M206,251.1c0.9,0.1,1.7,0.4,2.5,0.9c0.9,0.7,1.7,1.6,2.2,2.7c0.7,1.9,1,4,0.7,6c-0.3,2.5-0.9,4.9-1.9,7.2
	c-1,2.4-2.1,4.8-3.5,7c-1.3,2.1-2.8,4-4.5,5.7c-0.5,0.5-0.3,0.7,0.5,0.7l2.7,0.1l2.8,0.1c1.5,0,3,0.5,4.2,1.6
	c0.8,0.9,0.6,1.4-0.7,1.3c-0.2,0-1,0-2.3,0.1l-4.5,0.3c-3.6,0.3-6.8,0.6-9.6,0.7c-0.4,0-0.8,0.3-1,0.7c-1.6,4.7-3.3,9.5-4.9,14.5
	c-1.6,4.8-2.9,9.3-4,13.4s-1.9,7.7-2.5,10.6c-0.5,3-0.7,5-0.4,6s0,1.3-0.8,1.2c-0.9-0.2-1.8-0.5-2.7-1c-1-0.6-1.9-1.3-2.8-2
	c-0.9-0.8-1.3-1.3-1.3-1.7c0.2-1.8,0.6-3.6,1.2-5.4c0.8-2.7,1.9-6,3.3-9.8l1.7-4.6c0.6-1.6,1.2-3.2,1.8-4.9c1-2.7,2.1-5.5,3.2-8.3
	s2.3-5.7,3.5-8.6c0.2-0.4,0-0.8-0.3-1c-1-0.8-1.2-1.3-0.6-1.7c0.6-0.3,1.1-0.5,1.7-0.7c0.4-0.1,0.7-0.5,1-1.1c1.7-4,3.4-7.8,5-11.5
	s3.1-6.9,4.5-9.6c1.3-2.7,2.5-4.9,3.5-6.5C204.9,251.9,205.6,251.1,206,251.1z M206.3,256c-1.7,2.9-3.2,6-4.5,9.2
	c-1.8,4.2-3.7,8.8-5.5,13.8c-0.3,0.9-0.1,1,0.6,0.4c1.8-1.6,3.3-3.3,4.7-5.2c1.7-2.3,3.2-4.8,4.5-7.3c1.2-2.2,2.2-4.6,2.9-7.1
	c0.6-2.2,0.5-3.8-0.4-4.7c-0.5-0.6-1-0.6-1.4-0.2C206.8,255.2,206.5,255.6,206.3,256L206.3,256z"/>
<path class="st10" d="M229.1,281.9c-0.1,0.4,0.1,0.5,0.4,0.3c2-1,4-2,5.9-3c0.7-0.4,1.1-0.2,1.1,0.6c0,0.4-0.7,1.2-2.2,2.2
	c-1.6,1.3-3.4,2.4-5.3,3.4c-0.3,0.1-0.6,0.4-0.7,0.7c-0.5,1.8-1.2,3.6-1.9,5.3c-0.9,2-2,3.9-3.4,5.6c-1.4,1.8-3.1,3.3-5,4.5
	c-1.9,1.3-4.2,1.9-6.5,2c-2.1,0.2-4.2-0.7-5.6-2.3c-1.5-1.7-2.3-3.9-2.5-6.2c-0.2-2.9,0.2-5.8,1.2-8.6c1.2-3.4,3-6.6,5.4-9.3
	c3.1-3.6,6.3-5.8,9.7-6.7s5.5,0.1,6.3,2.9c0.1,0.7,0.3,1,0.5,1c0.3,0,0.6,0.2,0.9,0.3c0.8,0.7,1.3,1.6,1.5,2.7
	C229.2,278.9,229.3,280.4,229.1,281.9z M211.1,284c-1.6,4.5-2.1,8.2-1.4,11.1c0.6,2.5,1.9,3.9,4,4.2s4.1-0.6,6.1-2.5
	c2.5-2.5,4.2-5.7,5-9.2c0.1-0.4,0-0.6-0.4-0.5c-1.4,0.3-2.8,0.4-4.1,0.2c-1.3-0.3-2.4-1-3.2-2c-1.4-1.8-1.3-3.8,0.2-6
	c1.5-2,3.5-3.4,5.8-4.3c0.4-0.1,0.6-0.4,0.6-0.8c0.1-1.4-0.4-2.1-1.4-2.2c-1.3,0.1-2.6,0.6-3.5,1.5c-1.6,1.2-3.1,2.7-4.3,4.3
	C213,279.6,211.8,281.7,211.1,284L211.1,284z M225.7,282.4c0.1-1.1,0-2.3-0.3-3.4c-0.4-0.8-0.9-1-1.5-0.7c-2.9,1.4-4.5,3.1-4.8,5
	s1.7,2.2,6.1,0.7c0.2-0.1,0.4-0.3,0.4-0.7C225.6,283,225.7,282.7,225.7,282.4L225.7,282.4z"/>
<path class="st10" d="M244.5,279.4c0.5-0.7,0.3-1.1-0.5-1.1c-0.5,0-1,0-1.5,0s-1,0-1.6,0c-0.5,0-0.9,0.3-1.2,0.7
	c-1.1,1.6-2.1,3.4-3,5.2c-1.2,2.3-2.3,4.8-3.5,7.5c-1.2,2.7-2.2,5-3.1,7.2c-0.9,2.1-1.3,3.3-1.4,3.6c-0.3,0.7-0.7,0.6-1-0.4
	c-0.3-0.9-0.5-1.9-0.5-2.9c-0.1-1.1,0.1-2.3,0.5-3.3c0.8-1.7,1.6-3.4,2.4-5s1.6-3.2,2.4-4.7c1.2-2.5,2.5-4.9,3.8-7.3
	s2.5-4.9,3.8-7.3c0.8-1.6,1.4-3.2,2-4.9c0.3-1,1.1-1,2.3,0s1.5,1.8,0.9,2.6c-0.7,0.9-1.3,1.8-1.8,2.7c-0.7,1.1-1.3,2.3-1.8,3.5
	c-0.2,0.6-0.1,0.9,0.2,0.9s1,0,1.9-0.1s1.8-0.1,2.7-0.2c1.2,0,2.3,0,3.5,0.2c1,0.2,1.3,0.5,0.9,1.2c-1.3,1.8-2.3,3.8-3.1,5.9
	c-0.9,2.2-1.6,4.4-2.1,6.7c-0.5,1.7-0.8,3.5-0.9,5.3c0,1.3,0.3,1.8,1,1.3c1.9-1.8,3.6-3.8,5-6c2-2.8,3.9-5.4,5.7-7.9
	c0.4-0.5,0.7-0.6,1-0.4c0.3,0.2,0.2,0.5,0.1,1c-0.1,0.4-0.3,0.8-0.6,1.1c-0.3,0.4-0.5,0.7-0.5,0.8l-3.2,4.9l-3.5,5.4
	c-1,1.4-2,2.8-3.1,4.1c-0.9,1.1-1.9,2-3.1,2.8c-2.2,1.3-3.7,1.4-4.6,0.1c-0.9-1.2-1.2-3.1-0.9-5.7c0.3-2.9,1-5.8,2-8.5
	C241.1,285.1,242.6,282.1,244.5,279.4z"/>
<path class="st10" d="M283.6,251.1c0.5-0.4,1.2-0.3,2.2,0.5c1,0.7,1.4,1.5,1.2,2.1c-0.1,0.2-1.2,3-3.3,8.3s-4.2,10.9-6.4,16.9
	c-2.2,6-4.2,11.6-6,16.7c-1.8,5.1-2.7,7.8-2.8,8.3c-0.1,0.8-0.9,0.7-2.3-0.4s-2.1-2-2.2-2.9c0.1-1.2,0.3-2.3,0.7-3.4
	c0.5-1.7,1.2-3.7,2-6.1c0.1-0.2,0.1-0.5-0.1-0.7c-0.2-0.1-0.4,0-0.6,0.3l-2.8,4c-1,1.4-1.9,2.6-2.8,3.7c-2.1,2.6-3.7,4.1-4.9,4.3
	c-1.2,0.3-2.5,0-3.3-0.9c-0.9-0.9-1.6-2-2-3.2c-0.4-1-0.6-2-0.7-3c-0.2-2.6,0.3-5.3,1.3-7.7c1-2.3,2.3-4.5,4-6.3
	c3.4-3.8,7-5.8,11-6.1c2.2-0.1,4.1-0.2,5.7-0.1c0.8,0.1,1.6-0.5,1.9-1.3c1.2-2.9,2.3-5.7,3.5-8.4c1.2-2.7,2.2-5.1,3.2-7.3
	C282.2,253.8,283.3,251.3,283.6,251.1z M271.7,278.7c0.4-0.8,0.1-1.3-0.8-1.5c-0.7-0.1-1.4-0.1-2.1,0c-0.8,0.1-1.6,0.3-2.3,0.6
	c-1.7,0.9-3.2,2.1-4.3,3.6c-1.5,1.8-2.9,3.9-3.9,6c-1.1,2-1.9,4.1-2.4,6.4c-0.4,2.1-0.2,3.6,0.6,4.7c0.2,0.3,1.1-0.5,2.7-2.3
	c1.6-1.8,3.2-3.9,5-6.2c1.5-1.9,2.8-3.7,4-5.4c1.2-1.7,2-2.7,2.2-3c0.3-0.4,0.5-0.9,0.7-1.4C271.3,279.6,271.5,279.1,271.7,278.7z"
	/>
<path class="st10" d="M285,295.1c1,0.1,1.8,0.9,2,1.9c0.1,1.1-0.2,2.3-0.8,3.2c-0.6,1.2-1.3,2.2-2.2,3.1l-4.1,4
	c-2.3,2.2-3.6,3.3-3.9,3.4c-0.8,0-1.3-0.5-1.6-1.5c-0.1-0.5,0.7-2.1,2.5-4.7s2.8-4.3,2.9-5c0.1-1.3,0.7-2.5,1.6-3.5
	C282.5,295.2,283.8,294.8,285,295.1z"/>
<path class="st10" d="M314.2,313.9c-3.6-1.5-6-4.5-7.1-9c-1.1-4.7-1.2-9.6-0.2-14.3c1-5.1,2.6-10,4.7-14.7c1.9-4.3,4.3-8.4,7-12.3
	c2.6-3.7,5.9-6.9,9.6-9.6c3-2.2,6.4-3.8,10-4.6c2.7-0.7,5.6-0.2,7.9,1.3c2.2,1.5,3.3,4.2,3.4,8.2c0,0.4-0.1,0.8-0.3,1.2
	c0,0.8,0.2,1.5,0.6,2.2c1.8,4.1,2,9.2,0.6,15.2c-1.3,5.9-3.4,11.7-6.3,17.1c-1,1.8-2.4,4.1-4.2,6.9c-1.9,2.8-4.1,5.4-6.7,7.6
	c-2.5,2.3-5.5,4-8.7,5.2C321.1,315.5,317.5,315.4,314.2,313.9z M316.8,278.2c-3.7,10-4.7,17.5-3,22.4s4.7,7.4,8.7,7.5
	c4.2,0.1,8.6-2.7,13.2-8.2c4.9-6,8.3-13,10.1-20.5c1.2-5.9,1.2-9.9,0-11.9c-0.8-1.8-2.8-2.9-4.8-2.6c-2.7,0.4-5.3,2.1-7.8,5.2
	c-2,2.3-3.7,4.9-4.9,7.6c-0.3,1-0.7,1.3-1.1,1.1c-0.4-0.3-0.6-0.8-0.5-1.3c-0.1-3,0.5-5.9,1.7-8.6c1.2-2.8,3-5.3,5.4-7.2
	c2.8-2.3,6.4-3.5,10-3.4c0.7,0.1,1.1-0.2,1.2-0.9c0.2-3.3-0.8-5-3-5.1s-4.8,0.9-7.8,2.9c-3.7,2.7-7,5.9-9.8,9.4
	C321.2,268.8,318.6,273.3,316.8,278.2z"/>
<path class="st10" d="M364.9,279.4c0.5-0.7,0.3-1.1-0.5-1.1c-0.5,0-1,0-1.5,0s-1,0-1.6,0c-0.5,0-0.9,0.3-1.2,0.7
	c-1.1,1.6-2.1,3.4-3,5.2c-1.2,2.3-2.3,4.8-3.5,7.5c-1.2,2.7-2.2,5-3.1,7.2c-0.9,2.1-1.3,3.3-1.4,3.6c-0.3,0.7-0.7,0.6-1-0.4
	c-0.3-0.9-0.5-1.9-0.5-2.9c-0.1-1.1,0.1-2.3,0.5-3.3c0.8-1.7,1.6-3.4,2.4-5s1.6-3.2,2.4-4.7c1.2-2.5,2.5-4.9,3.8-7.3
	c1.3-2.4,2.5-4.9,3.8-7.3c0.8-1.6,1.4-3.2,2-4.9c0.3-1,1.1-1,2.3,0c1.2,1,1.5,1.8,0.9,2.6c-0.7,0.9-1.3,1.8-1.8,2.7
	c-0.7,1.1-1.3,2.3-1.8,3.5c-0.2,0.6-0.1,0.9,0.2,0.9s1,0,1.9-0.1s1.8-0.1,2.7-0.2c1.2,0,2.3,0,3.5,0.2c1,0.2,1.3,0.5,0.9,1.2
	c-1.3,1.8-2.3,3.8-3.1,5.9c-0.9,2.2-1.6,4.4-2.1,6.7c-0.5,1.8-0.8,3.6-1,5.4c0,1.3,0.3,1.8,1,1.3c1.9-1.8,3.6-3.8,5.1-6
	c2-2.8,3.9-5.4,5.7-7.9c0.4-0.5,0.7-0.6,1-0.4c0.3,0.2,0.2,0.5,0.1,1c-0.1,0.4-0.3,0.8-0.6,1.1c-0.3,0.4-0.5,0.7-0.5,0.8
	c-0.6,0.9-1.6,2.5-3.2,4.9c-1.6,2.4-2.7,4.1-3.5,5.3c-1,1.4-2,2.8-3.1,4.1c-0.9,1.1-1.9,2-3.1,2.8c-2.2,1.3-3.7,1.3-4.6,0.1
	c-0.8-1.2-1.2-3.1-0.9-5.7c0.3-2.9,1-5.8,2-8.5C361.5,285.2,363,282.2,364.9,279.4z"/>
<path class="st10" d="M377.8,292.9c-0.2,1.4,0.1,2.8,0.8,4c1.3,2,3.3,2.2,5.9,0.6c1.9-1.5,3.7-3.1,5.4-4.9c1.3-1.3,2.7-2.9,4-4.6
	c1.3-1.7,2.5-3.3,3.4-4.7c0.4-0.5,0.7-0.5,0.9-0.1s-0.1,1.3-0.8,2.4c-1,1.6-2.3,3.3-3.7,5.2c-1.7,2.3-3.6,4.5-5.5,6.6
	c-4,4.2-7.8,6.1-11.5,5.7c-1.7-0.2-3.2-1.1-4.1-2.6c-1-1.5-1.4-3.9-1.1-7c0.2-2.9,1.1-5.7,2.5-8.2c1.3-2.5,2.8-4.9,4.6-7.1
	c3.9-4.7,7.7-6.8,11.3-6.4c2.7,0.3,3.9,1.8,3.7,4.5c-0.3,1.5-0.9,2.9-1.6,4.3c-1.6,3-3.8,5.8-6.4,8c-2.1,1.9-4.6,3.1-7.3,3.7
	C378,292.3,377.8,292.5,377.8,292.9z M379.7,284.5c-0.7,1.5-1.2,3-1.5,4.5c-0.2,1,0.2,1.2,1.2,0.5c2.5-1.8,4.7-3.8,6.6-6.1
	c1.1-1.3,2.1-2.6,3-4c0.8-1.1,1.4-2.3,1.8-3.6c0.3-1.4,0.1-2.2-0.6-2.3c-1.1,0-2.2,0.5-3,1.2c-1.5,1.2-2.8,2.5-4,3.9
	C381.7,280.5,380.5,282.5,379.7,284.5z"/>
<path class="st10" d="M418.6,276.2c-0.9,2.3-1.8,4.9-2.6,7.6c-0.8,2.8-1.6,5.7-2.5,8.6c-0.8,3-1.8,6-2.8,9c-0.9,2.9-2,5.8-3.3,8.6
	c-1.2,2.6-2.6,5.1-4.2,7.5c-1.5,2.2-3.3,4.1-5.3,5.7c-4.4,3.2-9.6,4.2-15.5,3.1c-2.2-0.6-4.3-1.4-6.3-2.4c-2.8-1.3-4.4-2.3-4.7-2.9
	c-0.8-1.7-0.1-2,2-0.9c2.3,1.1,4.8,1.8,7.3,2c2.9,0.2,5.8-0.1,8.5-1.1c3.2-1.2,6.1-3.1,8.5-5.5c3.1-3.1,5.5-6.8,7.1-10.9
	c0.8-2,1.7-4.2,2.5-6.5c0.8-2.4,1.7-4.8,2.5-7.2c0.1-0.2,0-0.4-0.1-0.5c-0.1-0.1-0.3,0-0.6,0.3c-1.3,1.7-3,4.1-5.2,7.3
	c-2.2,3.2-4,4.8-5.5,4.8s-2.8-0.7-4.3-2.1c-1.5-1.4-2.3-3.3-2.3-5.4c-0.2-4.5,0.9-8.9,3-12.9c1.7-3.3,4.1-6.1,7.2-8.2
	c2.8-1.9,5.4-2.6,7.8-2.2c2.1,0.4,3.7,1.9,4.3,3.9c0.2,0.8,0.5,0.8,0.7,0c0.2-0.6,0.5-1.3,0.9-1.8c0.3-0.3,0.9-0.2,1.9,0.4
	C418.5,275,418.9,275.6,418.6,276.2z M404.4,276.5c-2,2.4-3.6,5.2-4.6,8.2c-1,2.6-1.7,5.2-2.1,8c-0.3,1.8-0.3,3.6,0.2,5.4
	c0.4,1.2,1.2,1.3,2.2,0.2c1.9-2,3.7-4.1,5.2-6.3c1.7-2.2,3-4.2,4.1-6c1.2-1.9,2-4.1,2.3-6.4c0.2-1.5,0-3-0.7-4.4
	c-0.6-1-1.7-1.5-2.8-1.3C407,273.9,405.8,274.8,404.4,276.5z"/>
<path class="st10" d="M441.8,281.9c-0.1,0.4,0.1,0.5,0.4,0.3c2-1,4-2,5.9-3c0.7-0.4,1.1-0.2,1.1,0.6c0,0.4-0.7,1.2-2.2,2.2
	c-1.7,1.3-3.5,2.4-5.4,3.4c-0.3,0.1-0.6,0.4-0.7,0.7c-0.5,1.8-1.2,3.5-2,5.2c-0.9,2-2,3.9-3.4,5.6c-1.4,1.8-3.1,3.3-5,4.5
	c-1.9,1.3-4.2,1.9-6.5,2c-2.1,0.2-4.2-0.7-5.6-2.3c-1.5-1.7-2.3-3.9-2.5-6.2c-0.2-2.9,0.2-5.8,1.2-8.6c1.2-3.4,3-6.6,5.4-9.3
	c3.1-3.6,6.3-5.8,9.7-6.7c3.4-0.8,5.5,0.2,6.3,2.9c0.1,0.7,0.3,1,0.5,1c0.3,0,0.6,0.2,0.9,0.3c0.8,0.7,1.4,1.6,1.5,2.7
	C441.9,278.9,442,280.4,441.8,281.9z M423.8,284c-1.6,4.5-2.1,8.2-1.5,11.1c0.6,2.5,1.9,3.9,4,4.2c2.1,0.3,4.1-0.5,6.2-2.5
	c2.5-2.5,4.2-5.7,5-9.2c0.1-0.4,0-0.6-0.4-0.5c-1.4,0.3-2.8,0.4-4.1,0.2c-1.3-0.3-2.4-1-3.2-2c-1.4-1.8-1.3-3.8,0.2-6
	c1.5-2,3.5-3.4,5.8-4.3c0.4-0.1,0.6-0.4,0.6-0.8c0.1-1.4-0.4-2.1-1.4-2.2c-1.3,0.1-2.6,0.6-3.5,1.5c-1.6,1.2-3.1,2.7-4.3,4.3
	C425.7,279.6,424.5,281.7,423.8,284L423.8,284z M438.4,282.4c0.1-1.1,0-2.3-0.3-3.4c-0.4-0.8-0.9-1-1.5-0.7c-2.9,1.4-4.5,3.1-4.8,5
	s1.7,2.2,6.1,0.7c0.2-0.1,0.4-0.3,0.4-0.7C438.3,283,438.3,282.7,438.4,282.4L438.4,282.4z"/>
<path class="st10" d="M444.5,302.6c-0.4,0.7-1.2,0.5-2.4-0.6c-1.1-0.8-1.8-2.1-1.7-3.5c0.2-1.6,0.7-3.1,1.3-4.6
	c0.8-2.1,1.7-4.3,2.8-6.7c1-2.4,2.1-4.8,3.2-7.1c1.1-2.4,2-4.3,2.8-5.8c0.3-0.7,1-0.4,2,0.9s1.3,2.4,0.8,3.4c-0.3,0.7-0.7,1.5-1,2.4
	s-0.7,1.8-1.1,2.8c-0.3,0.8-0.6,1.5-0.8,2.3s-0.6,1.6-0.8,2.4c-0.1,0.2-0.1,0.4,0.1,0.4c0.1,0.1,0.2,0,0.4-0.2
	c1.1-1.6,2.2-3.2,3.4-4.6c1.2-1.5,2.3-2.9,3.3-4.1c2.7-3.1,4.3-4.7,4.7-4.8c1.2-0.2,2.2,0.4,3,2c0.8,1.6,1.2,2.6,0.9,3.2
	c-1.5,3.5-2.9,7.1-3.9,10.8c-0.6,2.1-1.1,4.2-1.4,6.4c-0.3,2-0.4,4.1-0.2,6.1c0.1,1.5,0,2.1-0.4,2c-0.6-0.3-1.1-0.6-1.5-1
	c-0.8-0.7-1.5-1.4-2.2-2.1c-0.6-0.5-1-1.2-1.3-2c-0.6-2.3-0.1-5.8,1.7-10.6c1-2.7,2.5-6,4.5-10c0.1-0.3,0.2-0.5,0-0.6
	c-0.2-0.1-0.3,0.1-0.6,0.4c-2.1,2.2-4.3,4.8-6.6,7.7c-1.4,1.8-2.8,3.6-4.1,5.4c-1.2,1.6-2.2,3.3-3.1,5.1c-0.3,0.5-0.5,1.1-0.6,1.6
	c-0.2,0.5-0.3,1-0.4,1.4C444.8,301.8,444.6,302.4,444.5,302.6z"/>
<path class="st11" d="M144.4,252.7c-0.3-1.2-0.8-2.3-1.4-3.3c-0.5-0.9-1.2-1.6-2.1-2c-0.8-0.3-1.6,0.1-2.3,1.3
	c-1.2,2-2.2,4.1-3.2,6.2c-1.3,2.8-2.9,6.1-4.9,9.8l-4.2,7.9c-1.5,2.8-2.9,5.6-4.4,8.4c-2.7,5.1-5.1,9.7-7.4,14
	c-0.2,0.5-0.5,0.7-0.7,0.7s-0.3-0.3-0.2-0.8c0.4-2.4,0.9-4.9,1.3-7.5c0.5-2.6,1-5.3,1.5-7.9c0.6-3.2,1.2-6.3,1.9-9.2
	c0.7-2.9,1.3-5.5,2-7.7c1.3-4.3,1.2-7.8-0.3-10.5c-1.5-2.7-3-3.1-4.3-1.1c-2.7,4.7-5,9.5-7,14.5c-2.7,6.5-5.9,12.8-9.6,18.8
	c-3.6,6-8.1,11.5-13.4,16.2c-5,4.5-11.6,6.8-18.3,6.4c-0.5,0-0.7,0.3-0.6,1c0.2,0.9,0.6,1.7,1.2,2.3c0.9,1,2,1.7,3.2,2.2
	c1.7,0.7,3.5,0.9,5.4,0.7c4.4-0.4,8.5-2.4,11.5-5.6c3.8-3.9,7.1-8.2,9.8-12.9c3.2-5.5,6.1-11.2,8.6-17c2.7-6.2,5.5-12.2,8.3-18.1
	c0.8-0.2,1.1,0.1,0.9,1.1c-0.9,3.7-1.8,7.6-2.9,11.7c-1,4.1-2.4,9.7-4.2,16.8c-1.3,5.2-2.2,9.5-2.9,13c-0.5,2.2-0.8,4.5-0.9,6.7
	c0.2,0.8,0.4,1.5,0.8,2.3c0.4,1.1,1.1,2.1,1.9,2.9c0.4,0.6,1,0.9,1.6,1c0.5,0.1,1.1-0.2,1.3-0.7c2-5.2,4.5-11,7.5-17.4
	c3-6.4,6-12.5,8.9-18.4c2.4-4.9,4.6-9.1,6.6-12.7c2-3.6,3.5-6.5,4.7-8.7c0.4-0.7,0.7-1,1-0.8c0.3,0.2,0.3,0.6,0.1,1.5
	c-1,3.5-2,6.8-2.9,9.8c-0.9,3-1.9,6.6-2.9,10.6c-1.1,4-2,8.1-2.9,12.4c-0.8,4.3-1.5,8.6-2,13.1c-0.2,1.4,0.4,3.2,1.6,5.4
	c1,1.9,2.2,3.8,3.5,5.5c1.1,1.5,2.1,2.2,2.9,2.2c0.8,0,0.9-0.8,0.4-2.4c-0.6-2-0.9-4-1-6.1c-0.1-3.8,0-7.7,0.3-11.5
	c0.4-5,1-10,1.9-14.9c0.8-4.9,1.9-9.6,3.1-14.2c1.2-4.5,2.4-8.7,3.5-12.4C144.9,254.4,144.8,253.5,144.4,252.7z M177.1,290.7
	c0.2-0.4,0.5-0.5,0.6-0.3c0.2,0.2,0.2,0.4,0.1,0.7c-0.9,2.4-1.5,4.4-2,6.1c-0.4,1.1-0.6,2.2-0.7,3.4c0.1,1,0.8,1.9,2.1,2.9
	s2.1,1.3,2.3,0.4c0.1-0.4,1-3.2,2.8-8.3s3.8-10.6,6-16.7c2.2-6,4.3-11.6,6.4-16.9c2-5.3,3.1-8,3.3-8.3c0.2-0.7-0.1-1.4-1.2-2.1
	s-1.8-0.9-2.2-0.5c-0.3,0.2-1.4,2.7-3.4,7.3c-1,2.1-2,4.6-3.1,7.3c-1.1,2.7-2.3,5.5-3.5,8.4c-0.2,0.8-1,1.3-1.9,1.3
	c-1.6,0-3.5,0-5.7,0.1c-4,0.3-7.6,2.3-11,6.1c-1.7,1.9-3,4-4,6.3c-0.4,1.1-0.8,2.2-1,3.3l-1.2,1.3c-1.7,1.8-3.5,3.4-5.4,4.9
	c-2.7,1.6-4.6,1.4-5.9-0.6c-0.7-1.2-1-2.6-0.8-4c0-0.4,0.2-0.6,0.7-0.7c2.7-0.5,5.3-1.8,7.3-3.7c2.6-2.2,4.8-5,6.4-8
	c0.7-1.3,1.2-2.8,1.6-4.3c0.3-2.7-1-4.2-3.7-4.5c-3.6-0.4-7.4,1.8-11.4,6.4c-1.8,2.2-3.3,4.6-4.6,7.1c-1.4,2.5-2.2,5.4-2.5,8.2
	c-0.3,3.1,0.1,5.5,1.1,7c0.9,1.4,2.4,2.4,4.1,2.6c3.7,0.5,7.5-1.4,11.5-5.6c0.9-1,1.8-2,2.6-2.9c0,0.4,0,0.8,0,1.1c0,1,0.3,2,0.7,3
	c0.4,1.2,1.1,2.3,2,3.2c0.8,0.9,2.1,1.3,3.3,0.9c1.2-0.3,2.8-1.7,4.9-4.3c0.9-1.1,1.8-2.4,2.8-3.7L177.1,290.7z M147.8,289.1
	c0.4-1.6,0.9-3.1,1.5-4.5c0.9-2.1,2.1-4,3.5-5.7c1.2-1.5,2.5-2.8,4-3.9c0.8-0.7,1.9-1.2,3-1.2c0.8,0.1,1,0.8,0.6,2.3
	c-0.4,1.3-1,2.5-1.8,3.6c-0.9,1.4-1.9,2.7-3,4c-2,2.3-4.2,4.4-6.6,6.1C148,290.3,147.6,290.1,147.8,289.1L147.8,289.1z M170.1,296.2
	c-1.6,1.8-2.5,2.6-2.7,2.3c-0.8-1-1-2.6-0.6-4.7c0.5-2.2,1.3-4.4,2.4-6.4c1.1-2.1,2.4-4.2,4-6c1.1-1.5,2.6-2.8,4.3-3.6
	c0.7-0.3,1.5-0.5,2.3-0.6c0.7-0.1,1.4-0.1,2.1,0c0.9,0.1,1.2,0.6,0.8,1.5l-0.6,1.5c-0.2,0.5-0.5,1-0.8,1.4c-0.3,0.4-1,1.4-2.2,3
	s-2.6,3.5-4,5.4C173.2,292.2,171.6,294.3,170.1,296.2z M285.9,251.6c-1-0.7-1.8-0.9-2.2-0.5c-0.3,0.2-1.4,2.7-3.4,7.3
	c-1,2.1-2,4.6-3.2,7.3c-1.1,2.7-2.3,5.5-3.5,8.4c-0.2,0.8-1,1.3-1.9,1.3c-1.6,0-3.5,0-5.7,0.1c-4,0.3-7.6,2.3-11,6.1
	c-1.7,1.9-3,4-4,6.3c-0.5,1.2-0.9,2.5-1.1,3.8c-1.3,1.8-2.7,3.4-4.2,4.9c-0.7,0.5-1,0-1-1.3c0.1-1.8,0.4-3.6,0.9-5.3
	c0.6-2.3,1.3-4.5,2.1-6.7c0.8-2.1,1.8-4.1,3.1-5.9c0.4-0.6,0.1-1-0.9-1.2c-1.2-0.2-2.3-0.2-3.5-0.2c-0.9,0-1.8,0.1-2.7,0.2
	s-1.5,0.1-1.9,0.1s-0.4-0.3-0.2-0.9c0.4-1.2,1-2.4,1.8-3.5c0.5-1,1.1-1.9,1.8-2.7c0.6-0.8,0.3-1.6-0.9-2.6c-1.2-1-2-0.9-2.3,0
	c-0.6,1.7-1.2,3.3-2,4.9c-1.2,2.5-2.5,4.9-3.8,7.4l0,0c-0.2,0-0.5,0-0.6,0.2c-2,1.1-3.9,2.1-5.9,3c-0.4,0.2-0.5,0.1-0.4-0.3
	c0.2-1.5,0.2-3-0.1-4.5c-0.2-1-0.7-2-1.5-2.7c-0.3-0.2-0.6-0.3-0.9-0.3c-0.2,0-0.3-0.3-0.5-1c-0.8-2.7-2.9-3.7-6.3-2.9
	s-6.7,3-9.8,6.7c-1.2,1.4-2.2,2.8-3.1,4.4l-2.2-0.1l-2.7-0.1c-0.8,0-1-0.2-0.5-0.7c1.7-1.7,3.2-3.6,4.5-5.7c1.4-2.2,2.6-4.6,3.5-7
	c0.9-2.3,1.5-4.7,1.9-7.2c0.3-2,0-4.1-0.7-6c-0.5-1.1-1.2-2-2.2-2.7c-0.7-0.5-1.6-0.8-2.5-0.9c-0.4,0-1.1,0.8-2.1,2.4
	s-2.2,3.8-3.5,6.5c-1.3,2.7-2.9,6-4.5,9.6c-1.6,3.7-3.3,7.5-5,11.5c-0.3,0.7-0.6,1-1,1.1c-0.6,0.2-1.2,0.4-1.7,0.7
	c-0.7,0.3-0.5,0.9,0.6,1.7c0.3,0.2,0.5,0.6,0.3,1c-1.2,2.8-2.4,5.7-3.5,8.6c-1.1,2.9-2.2,5.7-3.2,8.3l-1.8,4.9
	c-0.6,1.6-1.2,3.1-1.7,4.6c-1.4,3.8-2.5,7.1-3.3,9.8c-0.6,1.7-1,3.5-1.2,5.4c0,0.4,0.5,1,1.3,1.7c0.9,0.7,1.8,1.4,2.8,2
	c0.8,0.5,1.7,0.8,2.7,1c0.8,0.1,1-0.3,0.8-1.2s-0.1-3,0.4-6s1.4-6.5,2.5-10.6s2.4-8.6,4-13.4s3.2-9.8,4.9-14.5
	c0.2-0.4,0.6-0.7,1-0.7c2.8-0.2,5.9-0.4,9.6-0.7l1.1-0.1c-0.2,0.5-0.4,1.1-0.6,1.6c-1,2.7-1.4,5.7-1.2,8.6c0.1,2.3,1,4.5,2.5,6.2
	c1.4,1.6,3.5,2.4,5.6,2.3c2.3,0,4.6-0.7,6.5-2c1.9-1.2,3.6-2.7,5-4.5c1.4-1.7,2.5-3.6,3.4-5.6c0.8-1.7,1.4-3.5,1.9-5.3
	c0.1-0.4,0.4-0.6,0.7-0.7c1.9-0.9,3.7-2.1,5.4-3.4l0.3-0.2c-0.8,1.5-1.6,3-2.3,4.5s-1.5,3.1-2.4,4.7s-1.6,3.3-2.4,5
	c-0.5,1-0.7,2.2-0.5,3.3c0.1,1,0.2,1.9,0.5,2.9c0.3,1,0.7,1.1,1,0.4c0.1-0.3,0.5-1.5,1.4-3.6s1.9-4.5,3.1-7.2s2.4-5.2,3.5-7.5
	c0.9-1.8,1.9-3.5,3-5.2c0.3-0.4,0.7-0.6,1.2-0.7c0.6,0,1.1,0,1.6,0s1,0,1.5,0c0.8,0,1,0.4,0.5,1.1c-1.9,2.8-3.4,5.7-4.6,8.9
	c-1,2.7-1.7,5.6-2,8.5c-0.2,2.6,0.1,4.5,0.9,5.7c0.9,1.2,2.4,1.2,4.6-0.1c1.2-0.8,2.2-1.7,3.1-2.8c1.1-1.3,2.1-2.6,3.1-4.1l0.1-0.1
	c0,0.1,0,0.2,0,0.3c0,1,0.3,2,0.7,3c0.5,1.2,1.2,2.3,2,3.2c0.8,0.9,2.1,1.3,3.3,0.9c1.2-0.3,2.8-1.7,4.9-4.3
	c0.9-1.1,1.8-2.4,2.8-3.7l2.8-4c0.2-0.4,0.5-0.5,0.6-0.3c0.2,0.2,0.2,0.4,0.1,0.7c-0.9,2.4-1.5,4.4-2,6.1c-0.4,1.1-0.6,2.2-0.7,3.4
	c0.1,1,0.8,1.9,2.2,2.9s2.1,1.3,2.3,0.4c0.1-0.4,1-3.2,2.8-8.3c1.8-5.1,3.8-10.6,6-16.7c2.2-6,4.3-11.6,6.4-16.9
	c2-5.3,3.1-8,3.3-8.3C287.3,253,286.9,252.3,285.9,251.6L285.9,251.6z M196.9,279.4c-0.7,0.6-0.9,0.4-0.6-0.4
	c1.9-5.1,3.7-9.7,5.5-13.8c1.3-3.2,2.8-6.2,4.5-9.2c0.2-0.4,0.5-0.8,0.9-1.1c0.4-0.4,0.9-0.3,1.4,0.2c0.8,0.9,0.9,2.5,0.4,4.7
	c-0.7,2.5-1.7,4.8-2.9,7.1c-1.3,2.6-2.8,5-4.5,7.3C200.2,276.1,198.6,277.8,196.9,279.4L196.9,279.4z M224.8,287.6
	c-0.8,3.5-2.5,6.6-5,9.2c-2,2-4.1,2.8-6.1,2.5c-2.1-0.3-3.4-1.7-4-4.2c-0.6-2.8-0.2-6.3,1.3-10.6h0.1c1.3,0,1.5-0.4,0.7-1.3
	l-0.2-0.2c0.7-1.9,1.8-3.6,3-5.2c1.2-1.6,2.7-3,4.3-4.3c1-0.9,2.2-1.4,3.5-1.5c1,0,1.4,0.7,1.4,2.2c0,0.4-0.2,0.7-0.6,0.8
	c-2.3,0.9-4.3,2.3-5.8,4.3c-1.6,2.2-1.7,4.2-0.2,6c0.8,1,1.9,1.7,3.2,2c1.4,0.2,2.8,0.2,4.1-0.2C224.7,287,224.9,287.2,224.8,287.6
	L224.8,287.6z M225.7,282.4c0,0.3,0,0.6-0.1,0.9c-0.1,0.4-0.2,0.6-0.4,0.7c-4.4,1.5-6.4,1.3-6.1-0.7c0.3-1.9,1.9-3.6,4.8-5
	c0.7-0.3,1.2-0.1,1.5,0.7C225.7,280.1,225.8,281.3,225.7,282.4L225.7,282.4z M271.7,278.7c-0.2,0.4-0.4,0.9-0.6,1.5
	c-0.2,0.5-0.4,1-0.7,1.4c-0.3,0.4-1,1.4-2.2,3c-1.2,1.6-2.5,3.5-4,5.4c-1.7,2.3-3.4,4.3-5,6.2c-1.6,1.8-2.5,2.6-2.7,2.3
	c-0.8-1-1-2.6-0.6-4.7c0.5-2.2,1.3-4.4,2.4-6.4c1.1-2.1,2.4-4.2,3.9-6c1.1-1.5,2.6-2.8,4.3-3.6c0.7-0.3,1.5-0.5,2.3-0.6
	c0.7-0.1,1.4-0.1,2.1,0C271.8,277.4,272,277.9,271.7,278.7L271.7,278.7z M285,295.1c-1.3-0.3-2.6,0-3.5,0.9
	c-0.9,0.9-1.5,2.2-1.6,3.5c-0.1,0.7-1.1,2.4-2.9,5c-1.8,2.6-2.7,4.2-2.5,4.7c0.3,1,0.8,1.5,1.6,1.5c0.3,0,1.6-1.1,3.9-3.4l4.1-4
	c0.9-0.9,1.7-1.9,2.3-3.1c0.6-1,0.8-2.1,0.8-3.2C286.9,296,286.1,295.2,285,295.1z M349.8,262.4c-0.4-0.7-0.6-1.4-0.6-2.2
	c0.2-0.4,0.3-0.8,0.3-1.2c-0.1-4-1.2-6.7-3.4-8.2c-2.3-1.5-5.2-2-7.9-1.3c-3.6,0.8-7,2.4-10,4.6c-3.7,2.6-6.9,5.9-9.6,9.6
	c-2.7,3.8-5.1,8-7,12.3c-2.2,4.7-3.7,9.6-4.7,14.7c-0.9,4.7-0.9,9.6,0.2,14.3c1.1,4.6,3.4,7.6,7.1,9c3.2,1.4,6.9,1.6,10.3,0.5
	c3.2-1.1,6.2-2.9,8.7-5.2c2.5-2.2,4.8-4.8,6.7-7.6c1.9-2.8,3.3-5.1,4.2-6.9c2.8-5.4,4.9-11.1,6.3-17.1
	C351.8,271.6,351.6,266.5,349.8,262.4z M345.8,279.3c-1.8,7.5-5.2,14.6-10.1,20.5c-4.7,5.6-9.1,8.3-13.2,8.2c-4-0.1-6.9-2.6-8.7-7.5
	c-1.8-4.9-0.8-12.4,3-22.4c1.8-4.9,4.4-9.4,7.7-13.4c2.8-3.6,6.1-6.8,9.8-9.4c3-2.1,5.6-3.1,7.8-2.9c2.2,0.1,3.2,1.8,3,5.1
	c0,0.7-0.4,1-1.2,0.9c-3.6-0.1-7.2,1.1-10,3.4c-2.4,1.9-4.2,4.4-5.4,7.2c-1.2,2.7-1.8,5.6-1.7,8.6c0,0.7,0.2,1.1,0.5,1.3
	s0.7-0.2,1.1-1.1c1.2-2.8,2.9-5.4,4.9-7.6c2.5-3,5.1-4.8,7.8-5.2c2-0.3,4,0.7,4.8,2.6C347,269.4,347,273.4,345.8,279.3L345.8,279.3z
	 M417.5,274.4c-1-0.6-1.6-0.7-1.9-0.4c-0.4,0.6-0.7,1.2-0.9,1.8c-0.3,0.8-0.5,0.8-0.7,0c-0.6-2-2.3-3.5-4.3-3.9
	c-2.4-0.4-5,0.3-7.8,2.2c-3.1,2.1-5.6,4.9-7.2,8.2c-1.3,2.5-2.2,5.2-2.7,7.9c-0.7,0.8-1.4,1.6-2.1,2.3c-1.7,1.8-3.5,3.4-5.4,4.9
	c-2.7,1.6-4.6,1.4-5.9-0.6c-0.7-1.2-1-2.6-0.8-4c0-0.4,0.2-0.6,0.7-0.7c2.7-0.5,5.3-1.8,7.3-3.7c2.6-2.2,4.8-5,6.4-8
	c0.7-1.3,1.2-2.8,1.6-4.3c0.3-2.7-1-4.2-3.7-4.5c-3.6-0.4-7.4,1.8-11.4,6.4c-1.8,2.2-3.3,4.6-4.6,7.1c-0.5,0.9-0.9,1.9-1.3,2.9
	l-1.8,2.4c-1.5,2.2-3.2,4.2-5.1,6c-0.7,0.5-1,0-1-1.3c0.1-1.8,0.4-3.6,0.9-5.3c0.6-2.3,1.3-4.5,2.1-6.7c0.8-2.1,1.8-4.1,3.1-5.9
	c0.4-0.6,0.1-1-0.9-1.2c-1.2-0.2-2.3-0.2-3.5-0.2c-0.9,0-1.8,0-2.7,0.2c-0.9,0.1-1.5,0.1-1.9,0.1s-0.4-0.3-0.2-0.9
	c0.5-1.2,1-2.4,1.8-3.5c0.5-1,1.1-1.9,1.8-2.7c0.6-0.8,0.3-1.6-0.9-2.6c-1.2-1-2-0.9-2.3,0c-0.6,1.7-1.2,3.3-2,4.9
	c-1.2,2.5-2.5,4.9-3.8,7.4c-1.3,2.4-2.6,4.9-3.8,7.3c-0.8,1.5-1.6,3.1-2.4,4.7s-1.6,3.3-2.4,5c-0.5,1-0.7,2.2-0.5,3.3
	c0.1,1,0.2,1.9,0.5,2.9c0.3,1,0.7,1.1,1,0.4c0.1-0.3,0.5-1.5,1.4-3.6c0.8-2.1,1.9-4.5,3.1-7.1c1.2-2.7,2.4-5.2,3.5-7.5
	c0.9-1.8,1.9-3.5,3-5.2c0.3-0.4,0.7-0.6,1.2-0.7c0.6,0,1.1,0,1.6,0s1,0,1.5,0c0.8,0,1,0.4,0.5,1.1c-1.9,2.8-3.5,5.7-4.6,8.9
	c-1,2.7-1.7,5.6-2,8.5c-0.2,2.6,0.1,4.5,0.9,5.7c0.8,1.2,2.4,1.2,4.6-0.1c1.2-0.8,2.2-1.7,3.1-2.8c1.1-1.3,2.1-2.6,3.1-4.1l1.7-2.6
	c0,0.2,0,0.4-0.1,0.6c-0.3,3.1,0.1,5.5,1.1,7c0.9,1.4,2.4,2.4,4.1,2.6c3.7,0.5,7.5-1.4,11.5-5.6c1.3-1.4,2.5-2.8,3.5-4
	c0,0.6,0,1.2,0,1.8c0,2,0.8,4,2.3,5.4c1.5,1.5,3,2.2,4.3,2.1c1.3,0,3.3-1.6,5.5-4.8s3.9-5.6,5.2-7.3c0.3-0.4,0.5-0.5,0.6-0.3
	c0.1,0.2,0.1,0.3,0.1,0.5c-0.8,2.4-1.7,4.8-2.5,7.2s-1.7,4.6-2.5,6.5c-1.6,4-4,7.7-7,10.8c-2.4,2.4-5.3,4.3-8.5,5.5
	c-2.7,1-5.6,1.4-8.5,1.1c-2.5-0.2-5-0.9-7.3-2c-2.1-1.1-2.8-0.8-2,0.9c0.3,0.6,1.9,1.6,4.7,2.9c2,1,4.2,1.8,6.4,2.4
	c6,1.2,11.2,0.2,15.5-3.1c2.1-1.6,3.9-3.5,5.3-5.7c1.6-2.4,3-4.9,4.2-7.5c1.3-2.8,2.4-5.6,3.3-8.6c1-3,1.9-6,2.8-9s1.7-5.9,2.5-8.6
	s1.7-5.3,2.6-7.6C418.9,275.6,418.5,275,417.5,274.4z M378.2,289.1c0.4-1.6,0.9-3.1,1.5-4.5c0.9-2.1,2.1-4,3.5-5.7
	c1.2-1.5,2.5-2.8,4-3.9c0.8-0.8,1.9-1.2,3-1.2c0.8,0.1,1,0.8,0.6,2.3c-0.4,1.3-1,2.5-1.8,3.6c-0.9,1.4-1.9,2.7-3,4
	c-2,2.3-4.2,4.3-6.6,6.1C378.3,290.3,377.9,290.1,378.2,289.1z M411.8,279.5c-0.3,2.3-1.1,4.5-2.3,6.4c-1.1,1.8-2.5,3.8-4.1,6
	c-1.6,2.2-3.3,4.3-5.2,6.3c-1,1.1-1.8,1-2.2-0.2c-0.5-1.8-0.5-3.6-0.2-5.4c0.4-2.7,1.1-5.4,2.1-8c1.1-3,2.6-5.7,4.6-8.2
	c1.4-1.7,2.7-2.6,3.9-2.8c1.1-0.2,2.2,0.3,2.8,1.3C411.8,276.4,412,278,411.8,279.5z M464.5,277.1c-0.9-1.6-1.9-2.2-3-2
	c-0.5,0.1-2,1.7-4.7,4.8c-1,1.2-2.2,2.6-3.3,4.1c-1.2,1.5-2.3,3-3.4,4.6c-0.1,0.2-0.3,0.2-0.4,0.2s-0.2-0.2-0.1-0.4
	c0.3-0.8,0.6-1.6,0.8-2.4c0.3-0.8,0.6-1.6,0.8-2.3c0.4-1,0.8-1.9,1.1-2.8s0.7-1.7,1-2.3c0.5-1,0.2-2.2-0.8-3.4s-1.7-1.5-2-0.9
	c-0.7,1.3-1.4,3-2.4,5l0,0c-2,1.1-3.9,2.1-5.9,3c-0.4,0.2-0.5,0.1-0.4-0.3c0.2-1.5,0.2-3-0.1-4.5c-0.2-1-0.7-2-1.5-2.7
	c-0.3-0.2-0.6-0.3-0.9-0.3c-0.2,0-0.3-0.3-0.5-1c-0.8-2.7-2.9-3.7-6.3-2.9s-6.7,3-9.7,6.7c-2.4,2.7-4.2,5.9-5.4,9.3
	c-1,2.7-1.4,5.7-1.2,8.6c0.1,2.3,1,4.5,2.5,6.2c1.4,1.6,3.5,2.4,5.6,2.3c2.3,0,4.6-0.7,6.5-2c1.9-1.2,3.6-2.7,5-4.5
	c1.3-1.7,2.5-3.6,3.3-5.6c0.8-1.7,1.4-3.5,1.9-5.3c0.1-0.3,0.3-0.6,0.7-0.7c1.8-0.9,3.5-2,5.1-3.2c-0.8,1.6-1.5,3.2-2.2,4.9
	c-1.1,2.4-2,4.6-2.8,6.7c-0.6,1.5-1.1,3-1.3,4.6c-0.1,1.4,0.5,2.7,1.6,3.5c1.2,1.1,2,1.3,2.4,0.6c0.1-0.1,0.3-0.7,0.8-1.8
	c0.1-0.4,0.3-0.9,0.4-1.4c0.2-0.5,0.4-1.1,0.6-1.6c0.9-1.8,1.9-3.5,3.1-5.1c1.3-1.8,2.7-3.6,4.1-5.4c2.3-2.9,4.5-5.5,6.6-7.7
	c0.3-0.3,0.5-0.4,0.6-0.4c0.1,0.1,0.1,0.3,0,0.6c-2,4-3.4,7.3-4.5,10c-1.8,4.8-2.4,8.3-1.7,10.6c0.3,0.8,0.7,1.5,1.3,2
	c0.7,0.8,1.4,1.5,2.2,2.1c0.5,0.4,1,0.7,1.5,1c0.3,0.1,0.5-0.5,0.4-2c-0.2-2-0.1-4.1,0.2-6.1c0.3-2.2,0.8-4.3,1.4-6.4
	c1.1-3.7,2.4-7.3,3.9-10.8C465.6,279.7,465.3,278.6,464.5,277.1z M437.5,287.6c-0.8,3.5-2.5,6.6-5,9.2c-2,2-4.1,2.8-6.2,2.5
	c-2.1-0.3-3.4-1.7-4-4.2c-0.7-2.9-0.2-6.6,1.4-11.1c0.8-2.2,1.9-4.3,3.4-6.2c1.2-1.6,2.7-3,4.3-4.3c1-0.9,2.2-1.4,3.5-1.5
	c1,0,1.4,0.7,1.4,2.1c0,0.4-0.2,0.7-0.6,0.8c-2.3,0.9-4.3,2.3-5.8,4.3c-1.6,2.2-1.7,4.2-0.2,6c0.8,1,1.9,1.7,3.2,2
	c1.4,0.2,2.8,0.2,4.1-0.1C437.4,287,437.5,287.2,437.5,287.6L437.5,287.6z M438.4,282.4c0,0.3,0,0.6-0.1,0.9
	c-0.1,0.4-0.2,0.6-0.4,0.7c-4.4,1.5-6.4,1.3-6.1-0.7s1.9-3.7,4.8-5c0.7-0.3,1.2-0.1,1.5,0.7C438.4,280.1,438.5,281.3,438.4,282.4
	L438.4,282.4z"/>
</svg>
